M48
; DRILL file {KiCad (5.1.5)-3} date 6/16/2020 1:41:40 AM
; FORMAT={-:-/ absolute / inch / decimal}
; #@! TF.CreationDate,2020-06-16T01:41:40-04:00
; #@! TF.GenerationSoftware,Kicad,Pcbnew,(5.1.5)-3
; #@! TF.FileFunction,Plated,1,2,PTH
FMAT,2
INCH
T1C0.0200
T2C0.0230
T3C0.0315
T4C0.0394
T5C0.0394
T6C0.0500
T7C0.0800
T8C0.1160
%
G90
G05
T1
X3.46Y-3.494
X3.46Y-3.602
X3.659Y-3.06
X3.659Y-4.476
X3.777Y-3.24
X3.79Y-3.997
X3.852Y-4.049
X3.8551Y-3.135
X3.92Y-3.288
X3.9236Y-3.83
X3.9246Y-3.032
X4.055Y-3.298
X4.12Y-3.032
X4.12Y-3.83
X4.189Y-3.95
X4.3914Y-4.0346
X4.409Y-3.261
T2
X3.31Y-3.455
X3.31Y-3.535
X3.31Y-3.615
T3
X3.5921Y-3.775
X3.726Y-3.775
T4
X5.25Y-4.6122
X5.35Y-4.6122
T5
X3.31Y-4.1
X3.31Y-4.2
T6
X3.31Y-3.37
X3.31Y-3.7
T7
X4.35Y-4.6
X4.65Y-4.6
X4.05Y-4.6
X3.75Y-4.6
T8
X3.4Y-3.0
X6.0Y-3.0
X6.0Y-4.5
X3.4Y-4.5
T0
M30
