G04 #@! TF.GenerationSoftware,KiCad,Pcbnew,(5.1.5)-3*
G04 #@! TF.CreationDate,2020-06-16T01:41:36-04:00*
G04 #@! TF.ProjectId,SMT-Theremin-v1,534d542d-5468-4657-9265-6d696e2d7631,rev?*
G04 #@! TF.SameCoordinates,Original*
G04 #@! TF.FileFunction,Legend,Top*
G04 #@! TF.FilePolarity,Positive*
%FSLAX46Y46*%
G04 Gerber Fmt 4.6, Leading zero omitted, Abs format (unit mm)*
G04 Created by KiCad (PCBNEW (5.1.5)-3) date 2020-06-16 01:41:36*
%MOMM*%
%LPD*%
G04 APERTURE LIST*
%ADD10C,0.177800*%
%ADD11C,0.254000*%
%ADD12C,0.500000*%
%ADD13C,0.120000*%
%ADD14C,0.150000*%
G04 APERTURE END LIST*
D10*
X117142380Y-113030000D02*
X117021428Y-112969523D01*
X116840000Y-112969523D01*
X116658571Y-113030000D01*
X116537619Y-113150952D01*
X116477142Y-113271904D01*
X116416666Y-113513809D01*
X116416666Y-113695238D01*
X116477142Y-113937142D01*
X116537619Y-114058095D01*
X116658571Y-114179047D01*
X116840000Y-114239523D01*
X116960952Y-114239523D01*
X117142380Y-114179047D01*
X117202857Y-114118571D01*
X117202857Y-113695238D01*
X116960952Y-113695238D01*
X117747142Y-114239523D02*
X117747142Y-112969523D01*
X118472857Y-114239523D01*
X118472857Y-112969523D01*
X119077619Y-114239523D02*
X119077619Y-112969523D01*
X119380000Y-112969523D01*
X119561428Y-113030000D01*
X119682380Y-113150952D01*
X119742857Y-113271904D01*
X119803333Y-113513809D01*
X119803333Y-113695238D01*
X119742857Y-113937142D01*
X119682380Y-114058095D01*
X119561428Y-114179047D01*
X119380000Y-114239523D01*
X119077619Y-114239523D01*
X108615238Y-112969523D02*
X108857142Y-112969523D01*
X108978095Y-113030000D01*
X109099047Y-113150952D01*
X109159523Y-113392857D01*
X109159523Y-113816190D01*
X109099047Y-114058095D01*
X108978095Y-114179047D01*
X108857142Y-114239523D01*
X108615238Y-114239523D01*
X108494285Y-114179047D01*
X108373333Y-114058095D01*
X108312857Y-113816190D01*
X108312857Y-113392857D01*
X108373333Y-113150952D01*
X108494285Y-113030000D01*
X108615238Y-112969523D01*
X109703809Y-112969523D02*
X109703809Y-113997619D01*
X109764285Y-114118571D01*
X109824761Y-114179047D01*
X109945714Y-114239523D01*
X110187619Y-114239523D01*
X110308571Y-114179047D01*
X110369047Y-114118571D01*
X110429523Y-113997619D01*
X110429523Y-112969523D01*
X110852857Y-112969523D02*
X111578571Y-112969523D01*
X111215714Y-114239523D02*
X111215714Y-112969523D01*
X111941428Y-113090476D02*
X112001904Y-113030000D01*
X112122857Y-112969523D01*
X112425238Y-112969523D01*
X112546190Y-113030000D01*
X112606666Y-113090476D01*
X112667142Y-113211428D01*
X112667142Y-113332380D01*
X112606666Y-113513809D01*
X111880952Y-114239523D01*
X112667142Y-114239523D01*
X100995238Y-112969523D02*
X101237142Y-112969523D01*
X101358095Y-113030000D01*
X101479047Y-113150952D01*
X101539523Y-113392857D01*
X101539523Y-113816190D01*
X101479047Y-114058095D01*
X101358095Y-114179047D01*
X101237142Y-114239523D01*
X100995238Y-114239523D01*
X100874285Y-114179047D01*
X100753333Y-114058095D01*
X100692857Y-113816190D01*
X100692857Y-113392857D01*
X100753333Y-113150952D01*
X100874285Y-113030000D01*
X100995238Y-112969523D01*
X102083809Y-112969523D02*
X102083809Y-113997619D01*
X102144285Y-114118571D01*
X102204761Y-114179047D01*
X102325714Y-114239523D01*
X102567619Y-114239523D01*
X102688571Y-114179047D01*
X102749047Y-114118571D01*
X102809523Y-113997619D01*
X102809523Y-112969523D01*
X103232857Y-112969523D02*
X103958571Y-112969523D01*
X103595714Y-114239523D02*
X103595714Y-112969523D01*
X105047142Y-114239523D02*
X104321428Y-114239523D01*
X104684285Y-114239523D02*
X104684285Y-112969523D01*
X104563333Y-113150952D01*
X104442380Y-113271904D01*
X104321428Y-113332380D01*
X93556666Y-112969523D02*
X93980000Y-114239523D01*
X94403333Y-112969523D01*
X95552380Y-114118571D02*
X95491904Y-114179047D01*
X95310476Y-114239523D01*
X95189523Y-114239523D01*
X95008095Y-114179047D01*
X94887142Y-114058095D01*
X94826666Y-113937142D01*
X94766190Y-113695238D01*
X94766190Y-113513809D01*
X94826666Y-113271904D01*
X94887142Y-113150952D01*
X95008095Y-113030000D01*
X95189523Y-112969523D01*
X95310476Y-112969523D01*
X95491904Y-113030000D01*
X95552380Y-113090476D01*
X96822380Y-114118571D02*
X96761904Y-114179047D01*
X96580476Y-114239523D01*
X96459523Y-114239523D01*
X96278095Y-114179047D01*
X96157142Y-114058095D01*
X96096666Y-113937142D01*
X96036190Y-113695238D01*
X96036190Y-113513809D01*
X96096666Y-113271904D01*
X96157142Y-113150952D01*
X96278095Y-113030000D01*
X96459523Y-112969523D01*
X96580476Y-112969523D01*
X96761904Y-113030000D01*
X96822380Y-113090476D01*
X90720333Y-108295923D02*
X90720333Y-107025923D01*
X91204142Y-107025923D01*
X91325095Y-107086400D01*
X91385571Y-107146876D01*
X91446047Y-107267828D01*
X91446047Y-107449257D01*
X91385571Y-107570209D01*
X91325095Y-107630685D01*
X91204142Y-107691161D01*
X90720333Y-107691161D01*
X91990333Y-108295923D02*
X91990333Y-107449257D01*
X91990333Y-107025923D02*
X91929857Y-107086400D01*
X91990333Y-107146876D01*
X92050809Y-107086400D01*
X91990333Y-107025923D01*
X91990333Y-107146876D01*
X92413666Y-107449257D02*
X92897476Y-107449257D01*
X92595095Y-107025923D02*
X92595095Y-108114495D01*
X92655571Y-108235447D01*
X92776523Y-108295923D01*
X92897476Y-108295923D01*
X93865095Y-108235447D02*
X93744142Y-108295923D01*
X93502238Y-108295923D01*
X93381285Y-108235447D01*
X93320809Y-108174971D01*
X93260333Y-108054019D01*
X93260333Y-107691161D01*
X93320809Y-107570209D01*
X93381285Y-107509733D01*
X93502238Y-107449257D01*
X93744142Y-107449257D01*
X93865095Y-107509733D01*
X94409380Y-108295923D02*
X94409380Y-107025923D01*
X94953666Y-108295923D02*
X94953666Y-107630685D01*
X94893190Y-107509733D01*
X94772238Y-107449257D01*
X94590809Y-107449257D01*
X94469857Y-107509733D01*
X94409380Y-107570209D01*
X106770714Y-87412285D02*
X106347380Y-87412285D01*
X106347380Y-88077523D02*
X106347380Y-86807523D01*
X106952142Y-86807523D01*
X107617380Y-88077523D02*
X107496428Y-88017047D01*
X107435952Y-87896095D01*
X107435952Y-86807523D01*
X108645476Y-88077523D02*
X108645476Y-87412285D01*
X108585000Y-87291333D01*
X108464047Y-87230857D01*
X108222142Y-87230857D01*
X108101190Y-87291333D01*
X108645476Y-88017047D02*
X108524523Y-88077523D01*
X108222142Y-88077523D01*
X108101190Y-88017047D01*
X108040714Y-87896095D01*
X108040714Y-87775142D01*
X108101190Y-87654190D01*
X108222142Y-87593714D01*
X108524523Y-87593714D01*
X108645476Y-87533238D01*
X109189761Y-88017047D02*
X109310714Y-88077523D01*
X109552619Y-88077523D01*
X109673571Y-88017047D01*
X109734047Y-87896095D01*
X109734047Y-87835619D01*
X109673571Y-87714666D01*
X109552619Y-87654190D01*
X109371190Y-87654190D01*
X109250238Y-87593714D01*
X109189761Y-87472761D01*
X109189761Y-87412285D01*
X109250238Y-87291333D01*
X109371190Y-87230857D01*
X109552619Y-87230857D01*
X109673571Y-87291333D01*
X110278333Y-88077523D02*
X110278333Y-86807523D01*
X110822619Y-88077523D02*
X110822619Y-87412285D01*
X110762142Y-87291333D01*
X110641190Y-87230857D01*
X110459761Y-87230857D01*
X110338809Y-87291333D01*
X110278333Y-87351809D01*
X107496428Y-90160323D02*
X107073095Y-89555561D01*
X106770714Y-90160323D02*
X106770714Y-88890323D01*
X107254523Y-88890323D01*
X107375476Y-88950800D01*
X107435952Y-89011276D01*
X107496428Y-89132228D01*
X107496428Y-89313657D01*
X107435952Y-89434609D01*
X107375476Y-89495085D01*
X107254523Y-89555561D01*
X106770714Y-89555561D01*
X108585000Y-90160323D02*
X108585000Y-89495085D01*
X108524523Y-89374133D01*
X108403571Y-89313657D01*
X108161666Y-89313657D01*
X108040714Y-89374133D01*
X108585000Y-90099847D02*
X108464047Y-90160323D01*
X108161666Y-90160323D01*
X108040714Y-90099847D01*
X107980238Y-89978895D01*
X107980238Y-89857942D01*
X108040714Y-89736990D01*
X108161666Y-89676514D01*
X108464047Y-89676514D01*
X108585000Y-89616038D01*
X109008333Y-89313657D02*
X109492142Y-89313657D01*
X109189761Y-88890323D02*
X109189761Y-89978895D01*
X109250238Y-90099847D01*
X109371190Y-90160323D01*
X109492142Y-90160323D01*
X110399285Y-90099847D02*
X110278333Y-90160323D01*
X110036428Y-90160323D01*
X109915476Y-90099847D01*
X109855000Y-89978895D01*
X109855000Y-89495085D01*
X109915476Y-89374133D01*
X110036428Y-89313657D01*
X110278333Y-89313657D01*
X110399285Y-89374133D01*
X110459761Y-89495085D01*
X110459761Y-89616038D01*
X109855000Y-89736990D01*
X82749571Y-99168857D02*
X82749571Y-100015523D01*
X82447190Y-98685047D02*
X82144809Y-99592190D01*
X82931000Y-99592190D01*
X83414809Y-99894571D02*
X83475285Y-99955047D01*
X83414809Y-100015523D01*
X83354333Y-99955047D01*
X83414809Y-99894571D01*
X83414809Y-100015523D01*
X84624333Y-98745523D02*
X84019571Y-98745523D01*
X83959095Y-99350285D01*
X84019571Y-99289809D01*
X84140523Y-99229333D01*
X84442904Y-99229333D01*
X84563857Y-99289809D01*
X84624333Y-99350285D01*
X84684809Y-99471238D01*
X84684809Y-99773619D01*
X84624333Y-99894571D01*
X84563857Y-99955047D01*
X84442904Y-100015523D01*
X84140523Y-100015523D01*
X84019571Y-99955047D01*
X83959095Y-99894571D01*
X85229095Y-99531714D02*
X86196714Y-99531714D01*
X83414809Y-102098323D02*
X82689095Y-102098323D01*
X83051952Y-102098323D02*
X83051952Y-100828323D01*
X82931000Y-101009752D01*
X82810047Y-101130704D01*
X82689095Y-101191180D01*
X83898619Y-100949276D02*
X83959095Y-100888800D01*
X84080047Y-100828323D01*
X84382428Y-100828323D01*
X84503380Y-100888800D01*
X84563857Y-100949276D01*
X84624333Y-101070228D01*
X84624333Y-101191180D01*
X84563857Y-101372609D01*
X83838142Y-102098323D01*
X84624333Y-102098323D01*
X84987190Y-100828323D02*
X85410523Y-102098323D01*
X85833857Y-100828323D01*
X83106380Y-108737400D02*
X82985428Y-108676923D01*
X82804000Y-108676923D01*
X82622571Y-108737400D01*
X82501619Y-108858352D01*
X82441142Y-108979304D01*
X82380666Y-109221209D01*
X82380666Y-109402638D01*
X82441142Y-109644542D01*
X82501619Y-109765495D01*
X82622571Y-109886447D01*
X82804000Y-109946923D01*
X82924952Y-109946923D01*
X83106380Y-109886447D01*
X83166857Y-109825971D01*
X83166857Y-109402638D01*
X82924952Y-109402638D01*
X83711142Y-109946923D02*
X83711142Y-108676923D01*
X84436857Y-109946923D01*
X84436857Y-108676923D01*
X85041619Y-109946923D02*
X85041619Y-108676923D01*
X85344000Y-108676923D01*
X85525428Y-108737400D01*
X85646380Y-108858352D01*
X85706857Y-108979304D01*
X85767333Y-109221209D01*
X85767333Y-109402638D01*
X85706857Y-109644542D01*
X85646380Y-109765495D01*
X85525428Y-109886447D01*
X85344000Y-109946923D01*
X85041619Y-109946923D01*
D11*
X117727790Y-72293238D02*
X118114838Y-72293238D01*
X118308361Y-72390000D01*
X118501885Y-72583523D01*
X118598647Y-72970571D01*
X118598647Y-73647904D01*
X118501885Y-74034952D01*
X118308361Y-74228476D01*
X118114838Y-74325238D01*
X117727790Y-74325238D01*
X117534266Y-74228476D01*
X117340742Y-74034952D01*
X117243980Y-73647904D01*
X117243980Y-72970571D01*
X117340742Y-72583523D01*
X117534266Y-72390000D01*
X117727790Y-72293238D01*
X119469504Y-72970571D02*
X119469504Y-75002571D01*
X119469504Y-73067333D02*
X119663028Y-72970571D01*
X120050076Y-72970571D01*
X120243600Y-73067333D01*
X120340361Y-73164095D01*
X120437123Y-73357619D01*
X120437123Y-73938190D01*
X120340361Y-74131714D01*
X120243600Y-74228476D01*
X120050076Y-74325238D01*
X119663028Y-74325238D01*
X119469504Y-74228476D01*
X121017695Y-72970571D02*
X121791790Y-72970571D01*
X121307980Y-72293238D02*
X121307980Y-74034952D01*
X121404742Y-74228476D01*
X121598266Y-74325238D01*
X121791790Y-74325238D01*
X122469123Y-74325238D02*
X122469123Y-72970571D01*
X122469123Y-72293238D02*
X122372361Y-72390000D01*
X122469123Y-72486761D01*
X122565885Y-72390000D01*
X122469123Y-72293238D01*
X122469123Y-72486761D01*
X124307600Y-74228476D02*
X124114076Y-74325238D01*
X123727028Y-74325238D01*
X123533504Y-74228476D01*
X123436742Y-74131714D01*
X123339980Y-73938190D01*
X123339980Y-73357619D01*
X123436742Y-73164095D01*
X123533504Y-73067333D01*
X123727028Y-72970571D01*
X124114076Y-72970571D01*
X124307600Y-73067333D01*
X126049314Y-74325238D02*
X126049314Y-73260857D01*
X125952552Y-73067333D01*
X125759028Y-72970571D01*
X125371980Y-72970571D01*
X125178457Y-73067333D01*
X126049314Y-74228476D02*
X125855790Y-74325238D01*
X125371980Y-74325238D01*
X125178457Y-74228476D01*
X125081695Y-74034952D01*
X125081695Y-73841428D01*
X125178457Y-73647904D01*
X125371980Y-73551142D01*
X125855790Y-73551142D01*
X126049314Y-73454380D01*
X127307219Y-74325238D02*
X127113695Y-74228476D01*
X127016933Y-74034952D01*
X127016933Y-72293238D01*
X129339219Y-72293238D02*
X130500361Y-72293238D01*
X129919790Y-74325238D02*
X129919790Y-72293238D01*
X131177695Y-74325238D02*
X131177695Y-72293238D01*
X132048552Y-74325238D02*
X132048552Y-73260857D01*
X131951790Y-73067333D01*
X131758266Y-72970571D01*
X131467980Y-72970571D01*
X131274457Y-73067333D01*
X131177695Y-73164095D01*
X133790266Y-74228476D02*
X133596742Y-74325238D01*
X133209695Y-74325238D01*
X133016171Y-74228476D01*
X132919409Y-74034952D01*
X132919409Y-73260857D01*
X133016171Y-73067333D01*
X133209695Y-72970571D01*
X133596742Y-72970571D01*
X133790266Y-73067333D01*
X133887028Y-73260857D01*
X133887028Y-73454380D01*
X132919409Y-73647904D01*
X134757885Y-74325238D02*
X134757885Y-72970571D01*
X134757885Y-73357619D02*
X134854647Y-73164095D01*
X134951409Y-73067333D01*
X135144933Y-72970571D01*
X135338457Y-72970571D01*
X136789885Y-74228476D02*
X136596361Y-74325238D01*
X136209314Y-74325238D01*
X136015790Y-74228476D01*
X135919028Y-74034952D01*
X135919028Y-73260857D01*
X136015790Y-73067333D01*
X136209314Y-72970571D01*
X136596361Y-72970571D01*
X136789885Y-73067333D01*
X136886647Y-73260857D01*
X136886647Y-73454380D01*
X135919028Y-73647904D01*
X137757504Y-74325238D02*
X137757504Y-72970571D01*
X137757504Y-73164095D02*
X137854266Y-73067333D01*
X138047790Y-72970571D01*
X138338076Y-72970571D01*
X138531600Y-73067333D01*
X138628361Y-73260857D01*
X138628361Y-74325238D01*
X138628361Y-73260857D02*
X138725123Y-73067333D01*
X138918647Y-72970571D01*
X139208933Y-72970571D01*
X139402457Y-73067333D01*
X139499219Y-73260857D01*
X139499219Y-74325238D01*
X140466838Y-74325238D02*
X140466838Y-72970571D01*
X140466838Y-72293238D02*
X140370076Y-72390000D01*
X140466838Y-72486761D01*
X140563600Y-72390000D01*
X140466838Y-72293238D01*
X140466838Y-72486761D01*
X141434457Y-72970571D02*
X141434457Y-74325238D01*
X141434457Y-73164095D02*
X141531219Y-73067333D01*
X141724742Y-72970571D01*
X142015028Y-72970571D01*
X142208552Y-73067333D01*
X142305314Y-73260857D01*
X142305314Y-74325238D01*
X144530838Y-72293238D02*
X145208171Y-74325238D01*
X145885504Y-72293238D01*
X147627219Y-74325238D02*
X146466076Y-74325238D01*
X147046647Y-74325238D02*
X147046647Y-72293238D01*
X146853123Y-72583523D01*
X146659600Y-72777047D01*
X146466076Y-72873809D01*
D12*
X154620000Y-95561001D02*
G75*
G03X154620000Y-95561001I-20000000J0D01*
G01*
D13*
X95140864Y-76094000D02*
X93936736Y-76094000D01*
X95140864Y-74274000D02*
X93936736Y-74274000D01*
X110776652Y-101675000D02*
X110254148Y-101675000D01*
X110776652Y-100255000D02*
X110254148Y-100255000D01*
X93938800Y-84464000D02*
X96748600Y-84464000D01*
X96748600Y-86224000D02*
X93938800Y-86224000D01*
X96748600Y-86224000D02*
X96748600Y-84464000D01*
X110380864Y-78634000D02*
X109176736Y-78634000D01*
X110380864Y-76814000D02*
X109176736Y-76814000D01*
X111244464Y-94975000D02*
X110040336Y-94975000D01*
X111244464Y-96795000D02*
X110040336Y-96795000D01*
X93936736Y-79354000D02*
X95140864Y-79354000D01*
X93936736Y-81174000D02*
X95140864Y-81174000D01*
X94490400Y-93735000D02*
X91440400Y-93735000D01*
X94490400Y-98035000D02*
X91440400Y-98035000D01*
X94468634Y-98050526D02*
G75*
G03X94490400Y-93735000I-1528234J2165526D01*
G01*
X91395887Y-93766751D02*
G75*
G03X91440400Y-98035000I1544513J-2118249D01*
G01*
X102158800Y-77704000D02*
X98708800Y-77704000D01*
X102158800Y-77704000D02*
X104108800Y-77704000D01*
X102158800Y-82824000D02*
X100208800Y-82824000D01*
X102158800Y-82824000D02*
X104108800Y-82824000D01*
X102184200Y-103525000D02*
X104134200Y-103525000D01*
X102184200Y-103525000D02*
X100234200Y-103525000D01*
X102184200Y-98405000D02*
X104134200Y-98405000D01*
X102184200Y-98405000D02*
X98734200Y-98405000D01*
X101897548Y-94032000D02*
X102420052Y-94032000D01*
X101897548Y-95452000D02*
X102420052Y-95452000D01*
X85404000Y-102810000D02*
X82744000Y-102810000D01*
X85404000Y-105410000D02*
X85404000Y-102810000D01*
X82744000Y-105410000D02*
X82744000Y-102810000D01*
X85404000Y-105410000D02*
X82744000Y-105410000D01*
X85404000Y-106680000D02*
X85404000Y-108010000D01*
X85404000Y-108010000D02*
X84074000Y-108010000D01*
X90369400Y-106125000D02*
X90369400Y-100885000D01*
X95609400Y-106125000D02*
X95609400Y-100885000D01*
X90369400Y-106125000D02*
X91749400Y-106125000D01*
X94229400Y-106125000D02*
X95609400Y-106125000D01*
X90369400Y-100885000D02*
X90950400Y-100885000D01*
X92729400Y-100885000D02*
X93249400Y-100885000D01*
X95029400Y-100885000D02*
X95609400Y-100885000D01*
X99538800Y-86453600D02*
X99538800Y-85873600D01*
X99538800Y-88753600D02*
X99538800Y-88233600D01*
X99538800Y-91113600D02*
X99538800Y-90532600D01*
X104778800Y-87253600D02*
X104778800Y-85873600D01*
X104778800Y-91113600D02*
X104778800Y-89733600D01*
X104778800Y-85873600D02*
X99538800Y-85873600D01*
X104778800Y-91113600D02*
X99538800Y-91113600D01*
X109950067Y-83314000D02*
X109607533Y-83314000D01*
X109950067Y-82294000D02*
X109607533Y-82294000D01*
X110686667Y-105535000D02*
X110344133Y-105535000D01*
X110686667Y-106555000D02*
X110344133Y-106555000D01*
X102786264Y-108225000D02*
X101582136Y-108225000D01*
X102786264Y-106405000D02*
X101582136Y-106405000D01*
D14*
X81788000Y-94107000D02*
X81788000Y-85471000D01*
X81788000Y-85471000D02*
X86360000Y-85471000D01*
X86360000Y-85471000D02*
X86360000Y-94107000D01*
X86360000Y-94107000D02*
X81788000Y-94107000D01*
D10*
X94403333Y-73630971D02*
X94342857Y-73691447D01*
X94161428Y-73751923D01*
X94040476Y-73751923D01*
X93859047Y-73691447D01*
X93738095Y-73570495D01*
X93677619Y-73449542D01*
X93617142Y-73207638D01*
X93617142Y-73026209D01*
X93677619Y-72784304D01*
X93738095Y-72663352D01*
X93859047Y-72542400D01*
X94040476Y-72481923D01*
X94161428Y-72481923D01*
X94342857Y-72542400D01*
X94403333Y-72602876D01*
X95612857Y-73751923D02*
X94887142Y-73751923D01*
X95250000Y-73751923D02*
X95250000Y-72481923D01*
X95129047Y-72663352D01*
X95008095Y-72784304D01*
X94887142Y-72844780D01*
X110303733Y-99665971D02*
X110243257Y-99726447D01*
X110061828Y-99786923D01*
X109940876Y-99786923D01*
X109759447Y-99726447D01*
X109638495Y-99605495D01*
X109578019Y-99484542D01*
X109517542Y-99242638D01*
X109517542Y-99061209D01*
X109578019Y-98819304D01*
X109638495Y-98698352D01*
X109759447Y-98577400D01*
X109940876Y-98516923D01*
X110061828Y-98516923D01*
X110243257Y-98577400D01*
X110303733Y-98637876D01*
X110727066Y-98516923D02*
X111513257Y-98516923D01*
X111089923Y-99000733D01*
X111271352Y-99000733D01*
X111392304Y-99061209D01*
X111452780Y-99121685D01*
X111513257Y-99242638D01*
X111513257Y-99545019D01*
X111452780Y-99665971D01*
X111392304Y-99726447D01*
X111271352Y-99786923D01*
X110908495Y-99786923D01*
X110787542Y-99726447D01*
X110727066Y-99665971D01*
X93677619Y-84038923D02*
X93677619Y-82768923D01*
X93980000Y-82768923D01*
X94161428Y-82829400D01*
X94282380Y-82950352D01*
X94342857Y-83071304D01*
X94403333Y-83313209D01*
X94403333Y-83494638D01*
X94342857Y-83736542D01*
X94282380Y-83857495D01*
X94161428Y-83978447D01*
X93980000Y-84038923D01*
X93677619Y-84038923D01*
X95612857Y-84038923D02*
X94887142Y-84038923D01*
X95250000Y-84038923D02*
X95250000Y-82768923D01*
X95129047Y-82950352D01*
X95008095Y-83071304D01*
X94887142Y-83131780D01*
X109567133Y-76291923D02*
X109143800Y-75687161D01*
X108841419Y-76291923D02*
X108841419Y-75021923D01*
X109325228Y-75021923D01*
X109446180Y-75082400D01*
X109506657Y-75142876D01*
X109567133Y-75263828D01*
X109567133Y-75445257D01*
X109506657Y-75566209D01*
X109446180Y-75626685D01*
X109325228Y-75687161D01*
X108841419Y-75687161D01*
X110776657Y-76291923D02*
X110050942Y-76291923D01*
X110413800Y-76291923D02*
X110413800Y-75021923D01*
X110292847Y-75203352D01*
X110171895Y-75324304D01*
X110050942Y-75384780D01*
X110405333Y-94452923D02*
X109982000Y-93848161D01*
X109679619Y-94452923D02*
X109679619Y-93182923D01*
X110163428Y-93182923D01*
X110284380Y-93243400D01*
X110344857Y-93303876D01*
X110405333Y-93424828D01*
X110405333Y-93606257D01*
X110344857Y-93727209D01*
X110284380Y-93787685D01*
X110163428Y-93848161D01*
X109679619Y-93848161D01*
X111493904Y-93606257D02*
X111493904Y-94452923D01*
X111191523Y-93122447D02*
X110889142Y-94029590D01*
X111675333Y-94029590D01*
X94327133Y-78831923D02*
X93903800Y-78227161D01*
X93601419Y-78831923D02*
X93601419Y-77561923D01*
X94085228Y-77561923D01*
X94206180Y-77622400D01*
X94266657Y-77682876D01*
X94327133Y-77803828D01*
X94327133Y-77985257D01*
X94266657Y-78106209D01*
X94206180Y-78166685D01*
X94085228Y-78227161D01*
X93601419Y-78227161D01*
X94810942Y-77682876D02*
X94871419Y-77622400D01*
X94992371Y-77561923D01*
X95294752Y-77561923D01*
X95415704Y-77622400D01*
X95476180Y-77682876D01*
X95536657Y-77803828D01*
X95536657Y-77924780D01*
X95476180Y-78106209D01*
X94750466Y-78831923D01*
X95536657Y-78831923D01*
X92752333Y-93182923D02*
X92329000Y-92578161D01*
X92026619Y-93182923D02*
X92026619Y-91912923D01*
X92510428Y-91912923D01*
X92631380Y-91973400D01*
X92691857Y-92033876D01*
X92752333Y-92154828D01*
X92752333Y-92336257D01*
X92691857Y-92457209D01*
X92631380Y-92517685D01*
X92510428Y-92578161D01*
X92026619Y-92578161D01*
X93840904Y-91912923D02*
X93599000Y-91912923D01*
X93478047Y-91973400D01*
X93417571Y-92033876D01*
X93296619Y-92215304D01*
X93236142Y-92457209D01*
X93236142Y-92941019D01*
X93296619Y-93061971D01*
X93357095Y-93122447D01*
X93478047Y-93182923D01*
X93719952Y-93182923D01*
X93840904Y-93122447D01*
X93901380Y-93061971D01*
X93961857Y-92941019D01*
X93961857Y-92638638D01*
X93901380Y-92517685D01*
X93840904Y-92457209D01*
X93719952Y-92396733D01*
X93478047Y-92396733D01*
X93357095Y-92457209D01*
X93296619Y-92517685D01*
X93236142Y-92638638D01*
X101191180Y-75910923D02*
X101191180Y-76939019D01*
X101251657Y-77059971D01*
X101312133Y-77120447D01*
X101433085Y-77180923D01*
X101674990Y-77180923D01*
X101795942Y-77120447D01*
X101856419Y-77059971D01*
X101916895Y-76939019D01*
X101916895Y-75910923D01*
X103186895Y-77180923D02*
X102461180Y-77180923D01*
X102824038Y-77180923D02*
X102824038Y-75910923D01*
X102703085Y-76092352D01*
X102582133Y-76213304D01*
X102461180Y-76273780D01*
X101140380Y-96611923D02*
X101140380Y-97640019D01*
X101200857Y-97760971D01*
X101261333Y-97821447D01*
X101382285Y-97881923D01*
X101624190Y-97881923D01*
X101745142Y-97821447D01*
X101805619Y-97760971D01*
X101866095Y-97640019D01*
X101866095Y-96611923D01*
X102410380Y-96732876D02*
X102470857Y-96672400D01*
X102591809Y-96611923D01*
X102894190Y-96611923D01*
X103015142Y-96672400D01*
X103075619Y-96732876D01*
X103136095Y-96853828D01*
X103136095Y-96974780D01*
X103075619Y-97156209D01*
X102349904Y-97881923D01*
X103136095Y-97881923D01*
X101947133Y-93315971D02*
X101886657Y-93376447D01*
X101705228Y-93436923D01*
X101584276Y-93436923D01*
X101402847Y-93376447D01*
X101281895Y-93255495D01*
X101221419Y-93134542D01*
X101160942Y-92892638D01*
X101160942Y-92711209D01*
X101221419Y-92469304D01*
X101281895Y-92348352D01*
X101402847Y-92227400D01*
X101584276Y-92166923D01*
X101705228Y-92166923D01*
X101886657Y-92227400D01*
X101947133Y-92287876D01*
X103096180Y-92166923D02*
X102491419Y-92166923D01*
X102430942Y-92771685D01*
X102491419Y-92711209D01*
X102612371Y-92650733D01*
X102914752Y-92650733D01*
X103035704Y-92711209D01*
X103096180Y-92771685D01*
X103156657Y-92892638D01*
X103156657Y-93195019D01*
X103096180Y-93315971D01*
X103035704Y-93376447D01*
X102914752Y-93436923D01*
X102612371Y-93436923D01*
X102491419Y-93376447D01*
X102430942Y-93315971D01*
X92752333Y-100040923D02*
X92329000Y-99436161D01*
X92026619Y-100040923D02*
X92026619Y-98770923D01*
X92510428Y-98770923D01*
X92631380Y-98831400D01*
X92691857Y-98891876D01*
X92752333Y-99012828D01*
X92752333Y-99194257D01*
X92691857Y-99315209D01*
X92631380Y-99375685D01*
X92510428Y-99436161D01*
X92026619Y-99436161D01*
X93901380Y-98770923D02*
X93296619Y-98770923D01*
X93236142Y-99375685D01*
X93296619Y-99315209D01*
X93417571Y-99254733D01*
X93719952Y-99254733D01*
X93840904Y-99315209D01*
X93901380Y-99375685D01*
X93961857Y-99496638D01*
X93961857Y-99799019D01*
X93901380Y-99919971D01*
X93840904Y-99980447D01*
X93719952Y-100040923D01*
X93417571Y-100040923D01*
X93296619Y-99980447D01*
X93236142Y-99919971D01*
X102023333Y-85435923D02*
X101600000Y-84831161D01*
X101297619Y-85435923D02*
X101297619Y-84165923D01*
X101781428Y-84165923D01*
X101902380Y-84226400D01*
X101962857Y-84286876D01*
X102023333Y-84407828D01*
X102023333Y-84589257D01*
X101962857Y-84710209D01*
X101902380Y-84770685D01*
X101781428Y-84831161D01*
X101297619Y-84831161D01*
X102446666Y-84165923D02*
X103232857Y-84165923D01*
X102809523Y-84649733D01*
X102990952Y-84649733D01*
X103111904Y-84710209D01*
X103172380Y-84770685D01*
X103232857Y-84891638D01*
X103232857Y-85194019D01*
X103172380Y-85314971D01*
X103111904Y-85375447D01*
X102990952Y-85435923D01*
X102628095Y-85435923D01*
X102507142Y-85375447D01*
X102446666Y-85314971D01*
X109592533Y-81631971D02*
X109532057Y-81692447D01*
X109350628Y-81752923D01*
X109229676Y-81752923D01*
X109048247Y-81692447D01*
X108927295Y-81571495D01*
X108866819Y-81450542D01*
X108806342Y-81208638D01*
X108806342Y-81027209D01*
X108866819Y-80785304D01*
X108927295Y-80664352D01*
X109048247Y-80543400D01*
X109229676Y-80482923D01*
X109350628Y-80482923D01*
X109532057Y-80543400D01*
X109592533Y-80603876D01*
X110076342Y-80603876D02*
X110136819Y-80543400D01*
X110257771Y-80482923D01*
X110560152Y-80482923D01*
X110681104Y-80543400D01*
X110741580Y-80603876D01*
X110802057Y-80724828D01*
X110802057Y-80845780D01*
X110741580Y-81027209D01*
X110015866Y-81752923D01*
X110802057Y-81752923D01*
X110278333Y-104872971D02*
X110217857Y-104933447D01*
X110036428Y-104993923D01*
X109915476Y-104993923D01*
X109734047Y-104933447D01*
X109613095Y-104812495D01*
X109552619Y-104691542D01*
X109492142Y-104449638D01*
X109492142Y-104268209D01*
X109552619Y-104026304D01*
X109613095Y-103905352D01*
X109734047Y-103784400D01*
X109915476Y-103723923D01*
X110036428Y-103723923D01*
X110217857Y-103784400D01*
X110278333Y-103844876D01*
X111366904Y-104147257D02*
X111366904Y-104993923D01*
X111064523Y-103663447D02*
X110762142Y-104570590D01*
X111548333Y-104570590D01*
X102023333Y-106009923D02*
X101600000Y-105405161D01*
X101297619Y-106009923D02*
X101297619Y-104739923D01*
X101781428Y-104739923D01*
X101902380Y-104800400D01*
X101962857Y-104860876D01*
X102023333Y-104981828D01*
X102023333Y-105163257D01*
X101962857Y-105284209D01*
X101902380Y-105344685D01*
X101781428Y-105405161D01*
X101297619Y-105405161D01*
X102446666Y-104739923D02*
X103293333Y-104739923D01*
X102749047Y-106009923D01*
X82507666Y-83851447D02*
X82689095Y-83911923D01*
X82991476Y-83911923D01*
X83112428Y-83851447D01*
X83172904Y-83790971D01*
X83233380Y-83670019D01*
X83233380Y-83549066D01*
X83172904Y-83428114D01*
X83112428Y-83367638D01*
X82991476Y-83307161D01*
X82749571Y-83246685D01*
X82628619Y-83186209D01*
X82568142Y-83125733D01*
X82507666Y-83004780D01*
X82507666Y-82883828D01*
X82568142Y-82762876D01*
X82628619Y-82702400D01*
X82749571Y-82641923D01*
X83051952Y-82641923D01*
X83233380Y-82702400D01*
X83656714Y-82641923D02*
X83959095Y-83911923D01*
X84201000Y-83004780D01*
X84442904Y-83911923D01*
X84745285Y-82641923D01*
X85894333Y-83911923D02*
X85168619Y-83911923D01*
X85531476Y-83911923D02*
X85531476Y-82641923D01*
X85410523Y-82823352D01*
X85289571Y-82944304D01*
X85168619Y-83004780D01*
M02*
