G04 #@! TF.GenerationSoftware,KiCad,Pcbnew,(5.1.5)-3*
G04 #@! TF.CreationDate,2020-06-16T01:41:36-04:00*
G04 #@! TF.ProjectId,SMT-Theremin-v1,534d542d-5468-4657-9265-6d696e2d7631,rev?*
G04 #@! TF.SameCoordinates,Original*
G04 #@! TF.FileFunction,Copper,L2,Bot*
G04 #@! TF.FilePolarity,Positive*
%FSLAX46Y46*%
G04 Gerber Fmt 4.6, Leading zero omitted, Abs format (unit mm)*
G04 Created by KiCad (PCBNEW (5.1.5)-3) date 2020-06-16 01:41:36*
%MOMM*%
%LPD*%
G04 APERTURE LIST*
%ADD10C,3.302000*%
%ADD11C,1.905000*%
%ADD12C,5.715000*%
%ADD13C,1.500000*%
%ADD14R,1.700000X1.700000*%
%ADD15O,1.700000X1.700000*%
%ADD16C,1.270000*%
%ADD17C,2.032000*%
%ADD18C,1.016000*%
%ADD19C,0.508000*%
%ADD20C,0.762000*%
%ADD21C,0.635000*%
%ADD22C,0.254000*%
G04 APERTURE END LIST*
D10*
X95250000Y-116840000D03*
X102870000Y-116840000D03*
X110490000Y-116840000D03*
X118110000Y-116840000D03*
D11*
X135890000Y-117151001D03*
X133350000Y-117151001D03*
D12*
X86360000Y-114300000D03*
X152400000Y-76200000D03*
X152400000Y-114300000D03*
X86360000Y-76200000D03*
D13*
X94640400Y-95885000D03*
X91240400Y-95885000D03*
D14*
X84074000Y-106680000D03*
D15*
X84074000Y-104140000D03*
D16*
X84074000Y-91821000D03*
X84074000Y-89789000D03*
X84074000Y-87757000D03*
D17*
X84074000Y-93980000D03*
X84074000Y-85598000D03*
D18*
X99658400Y-97282000D03*
X111988600Y-82829400D03*
X92938600Y-77724000D03*
X99683800Y-77012796D03*
X111540400Y-102479998D03*
X102997000Y-83769196D03*
X97918308Y-79629000D03*
X87884000Y-91490800D03*
X92938600Y-113690400D03*
X87884000Y-88747600D03*
X104648000Y-97282000D03*
X97840800Y-102844600D03*
X95935800Y-82296000D03*
X99568000Y-83515200D03*
X104648000Y-77012800D03*
X96266000Y-101523800D03*
X106400600Y-100330000D03*
D19*
X98856804Y-79629000D02*
X97918308Y-79629000D01*
X102997000Y-83769196D02*
X98856804Y-79629000D01*
D20*
X87884000Y-88747600D02*
X87884000Y-91490800D01*
X107340400Y-113690400D02*
X110490000Y-116840000D01*
X92938600Y-113690400D02*
X107340400Y-113690400D01*
D19*
X98298000Y-82245200D02*
X99568000Y-83515200D01*
X95935800Y-82296000D02*
X95986600Y-82245200D01*
X95986600Y-82245200D02*
X98298000Y-82245200D01*
D21*
X99085400Y-102844600D02*
X97840800Y-102844600D01*
X104571800Y-97296198D02*
X104571800Y-97358200D01*
X104571800Y-97358200D02*
X99085400Y-102844600D01*
X102158800Y-104571800D02*
X106400600Y-100330000D01*
X97434400Y-104571800D02*
X102158800Y-104571800D01*
X96266000Y-101523800D02*
X96266000Y-103403400D01*
X96266000Y-103403400D02*
X97434400Y-104571800D01*
D22*
G36*
X156999000Y-118899000D02*
G01*
X119114339Y-118899000D01*
X119355368Y-118770167D01*
X119529542Y-118439147D01*
X118110000Y-117019605D01*
X116690458Y-118439147D01*
X116864632Y-118770167D01*
X117115253Y-118899000D01*
X81761000Y-118899000D01*
X81761000Y-113981036D01*
X83121500Y-113981036D01*
X83121500Y-114618964D01*
X83245953Y-115244636D01*
X83490078Y-115834005D01*
X83844493Y-116364424D01*
X84295576Y-116815507D01*
X84825995Y-117169922D01*
X85415364Y-117414047D01*
X86041036Y-117538500D01*
X86678964Y-117538500D01*
X87304636Y-117414047D01*
X87894005Y-117169922D01*
X88424424Y-116815507D01*
X88600066Y-116639865D01*
X93218000Y-116639865D01*
X93218000Y-117040135D01*
X93296089Y-117432713D01*
X93449265Y-117802513D01*
X93671643Y-118135325D01*
X93954675Y-118418357D01*
X94287487Y-118640735D01*
X94657287Y-118793911D01*
X95049865Y-118872000D01*
X95450135Y-118872000D01*
X95842713Y-118793911D01*
X96212513Y-118640735D01*
X96545325Y-118418357D01*
X96828357Y-118135325D01*
X97050735Y-117802513D01*
X97203911Y-117432713D01*
X97282000Y-117040135D01*
X97282000Y-116639865D01*
X100838000Y-116639865D01*
X100838000Y-117040135D01*
X100916089Y-117432713D01*
X101069265Y-117802513D01*
X101291643Y-118135325D01*
X101574675Y-118418357D01*
X101907487Y-118640735D01*
X102277287Y-118793911D01*
X102669865Y-118872000D01*
X103070135Y-118872000D01*
X103462713Y-118793911D01*
X103832513Y-118640735D01*
X104165325Y-118418357D01*
X104448357Y-118135325D01*
X104670735Y-117802513D01*
X104823911Y-117432713D01*
X104902000Y-117040135D01*
X104902000Y-116639865D01*
X104823911Y-116247287D01*
X104670735Y-115877487D01*
X104448357Y-115544675D01*
X104165325Y-115261643D01*
X103832513Y-115039265D01*
X103462713Y-114886089D01*
X103070135Y-114808000D01*
X102669865Y-114808000D01*
X102277287Y-114886089D01*
X101907487Y-115039265D01*
X101574675Y-115261643D01*
X101291643Y-115544675D01*
X101069265Y-115877487D01*
X100916089Y-116247287D01*
X100838000Y-116639865D01*
X97282000Y-116639865D01*
X97203911Y-116247287D01*
X97050735Y-115877487D01*
X96828357Y-115544675D01*
X96545325Y-115261643D01*
X96212513Y-115039265D01*
X95842713Y-114886089D01*
X95450135Y-114808000D01*
X95049865Y-114808000D01*
X94657287Y-114886089D01*
X94287487Y-115039265D01*
X93954675Y-115261643D01*
X93671643Y-115544675D01*
X93449265Y-115877487D01*
X93296089Y-116247287D01*
X93218000Y-116639865D01*
X88600066Y-116639865D01*
X88875507Y-116364424D01*
X89229922Y-115834005D01*
X89474047Y-115244636D01*
X89598500Y-114618964D01*
X89598500Y-113981036D01*
X89523273Y-113602841D01*
X92049600Y-113602841D01*
X92049600Y-113777959D01*
X92083764Y-113949712D01*
X92150779Y-114111499D01*
X92248069Y-114257104D01*
X92371896Y-114380931D01*
X92517501Y-114478221D01*
X92679288Y-114545236D01*
X92851041Y-114579400D01*
X93026159Y-114579400D01*
X93197912Y-114545236D01*
X93359699Y-114478221D01*
X93398343Y-114452400D01*
X107024770Y-114452400D01*
X108619144Y-116046774D01*
X108536089Y-116247287D01*
X108458000Y-116639865D01*
X108458000Y-117040135D01*
X108536089Y-117432713D01*
X108689265Y-117802513D01*
X108911643Y-118135325D01*
X109194675Y-118418357D01*
X109527487Y-118640735D01*
X109897287Y-118793911D01*
X110289865Y-118872000D01*
X110690135Y-118872000D01*
X111082713Y-118793911D01*
X111452513Y-118640735D01*
X111785325Y-118418357D01*
X112068357Y-118135325D01*
X112290735Y-117802513D01*
X112443911Y-117432713D01*
X112522000Y-117040135D01*
X112522000Y-116876857D01*
X115813234Y-116876857D01*
X115864557Y-117324225D01*
X116002170Y-117752985D01*
X116179833Y-118085368D01*
X116510853Y-118259542D01*
X117930395Y-116840000D01*
X118289605Y-116840000D01*
X119709147Y-118259542D01*
X120040167Y-118085368D01*
X120246039Y-117684882D01*
X120369824Y-117251928D01*
X120388943Y-117019663D01*
X132016500Y-117019663D01*
X132016500Y-117282339D01*
X132067746Y-117539969D01*
X132168268Y-117782650D01*
X132314203Y-118001058D01*
X132499943Y-118186798D01*
X132718351Y-118332733D01*
X132961032Y-118433255D01*
X133218662Y-118484501D01*
X133481338Y-118484501D01*
X133738968Y-118433255D01*
X133981649Y-118332733D01*
X134101672Y-118252536D01*
X134968070Y-118252536D01*
X135058098Y-118512082D01*
X135339616Y-118648225D01*
X135642286Y-118726830D01*
X135954474Y-118744878D01*
X136264185Y-118701673D01*
X136559516Y-118598878D01*
X136721902Y-118512082D01*
X136811930Y-118252536D01*
X135890000Y-117330606D01*
X134968070Y-118252536D01*
X134101672Y-118252536D01*
X134200057Y-118186798D01*
X134385797Y-118001058D01*
X134470703Y-117873987D01*
X134528919Y-117982903D01*
X134788465Y-118072931D01*
X135710395Y-117151001D01*
X136069605Y-117151001D01*
X136991535Y-118072931D01*
X137251081Y-117982903D01*
X137387224Y-117701385D01*
X137465829Y-117398715D01*
X137483877Y-117086527D01*
X137440672Y-116776816D01*
X137337877Y-116481485D01*
X137251081Y-116319099D01*
X136991535Y-116229071D01*
X136069605Y-117151001D01*
X135710395Y-117151001D01*
X134788465Y-116229071D01*
X134528919Y-116319099D01*
X134473919Y-116432828D01*
X134385797Y-116300944D01*
X134200057Y-116115204D01*
X134101673Y-116049466D01*
X134968070Y-116049466D01*
X135890000Y-116971396D01*
X136811930Y-116049466D01*
X136721902Y-115789920D01*
X136440384Y-115653777D01*
X136137714Y-115575172D01*
X135825526Y-115557124D01*
X135515815Y-115600329D01*
X135220484Y-115703124D01*
X135058098Y-115789920D01*
X134968070Y-116049466D01*
X134101673Y-116049466D01*
X133981649Y-115969269D01*
X133738968Y-115868747D01*
X133481338Y-115817501D01*
X133218662Y-115817501D01*
X132961032Y-115868747D01*
X132718351Y-115969269D01*
X132499943Y-116115204D01*
X132314203Y-116300944D01*
X132168268Y-116519352D01*
X132067746Y-116762033D01*
X132016500Y-117019663D01*
X120388943Y-117019663D01*
X120406766Y-116803143D01*
X120355443Y-116355775D01*
X120217830Y-115927015D01*
X120040167Y-115594632D01*
X119709147Y-115420458D01*
X118289605Y-116840000D01*
X117930395Y-116840000D01*
X116510853Y-115420458D01*
X116179833Y-115594632D01*
X115973961Y-115995118D01*
X115850176Y-116428072D01*
X115813234Y-116876857D01*
X112522000Y-116876857D01*
X112522000Y-116639865D01*
X112443911Y-116247287D01*
X112290735Y-115877487D01*
X112068357Y-115544675D01*
X111785325Y-115261643D01*
X111754211Y-115240853D01*
X116690458Y-115240853D01*
X118110000Y-116660395D01*
X119529542Y-115240853D01*
X119355368Y-114909833D01*
X118954882Y-114703961D01*
X118521928Y-114580176D01*
X118073143Y-114543234D01*
X117625775Y-114594557D01*
X117197015Y-114732170D01*
X116864632Y-114909833D01*
X116690458Y-115240853D01*
X111754211Y-115240853D01*
X111452513Y-115039265D01*
X111082713Y-114886089D01*
X110690135Y-114808000D01*
X110289865Y-114808000D01*
X109897287Y-114886089D01*
X109696774Y-114969144D01*
X108708666Y-113981036D01*
X149161500Y-113981036D01*
X149161500Y-114618964D01*
X149285953Y-115244636D01*
X149530078Y-115834005D01*
X149884493Y-116364424D01*
X150335576Y-116815507D01*
X150865995Y-117169922D01*
X151455364Y-117414047D01*
X152081036Y-117538500D01*
X152718964Y-117538500D01*
X153344636Y-117414047D01*
X153934005Y-117169922D01*
X154464424Y-116815507D01*
X154915507Y-116364424D01*
X155269922Y-115834005D01*
X155514047Y-115244636D01*
X155638500Y-114618964D01*
X155638500Y-113981036D01*
X155514047Y-113355364D01*
X155269922Y-112765995D01*
X154915507Y-112235576D01*
X154464424Y-111784493D01*
X153934005Y-111430078D01*
X153344636Y-111185953D01*
X152718964Y-111061500D01*
X152081036Y-111061500D01*
X151455364Y-111185953D01*
X150865995Y-111430078D01*
X150335576Y-111784493D01*
X149884493Y-112235576D01*
X149530078Y-112765995D01*
X149285953Y-113355364D01*
X149161500Y-113981036D01*
X108708666Y-113981036D01*
X107905684Y-113178054D01*
X107881822Y-113148978D01*
X107765792Y-113053755D01*
X107633415Y-112982998D01*
X107489778Y-112939426D01*
X107377826Y-112928400D01*
X107377823Y-112928400D01*
X107340400Y-112924714D01*
X107302977Y-112928400D01*
X93398343Y-112928400D01*
X93359699Y-112902579D01*
X93197912Y-112835564D01*
X93026159Y-112801400D01*
X92851041Y-112801400D01*
X92679288Y-112835564D01*
X92517501Y-112902579D01*
X92371896Y-112999869D01*
X92248069Y-113123696D01*
X92150779Y-113269301D01*
X92083764Y-113431088D01*
X92049600Y-113602841D01*
X89523273Y-113602841D01*
X89474047Y-113355364D01*
X89229922Y-112765995D01*
X88875507Y-112235576D01*
X88424424Y-111784493D01*
X87894005Y-111430078D01*
X87304636Y-111185953D01*
X86678964Y-111061500D01*
X86041036Y-111061500D01*
X85415364Y-111185953D01*
X84825995Y-111430078D01*
X84295576Y-111784493D01*
X83844493Y-112235576D01*
X83490078Y-112765995D01*
X83245953Y-113355364D01*
X83121500Y-113981036D01*
X81761000Y-113981036D01*
X81761000Y-107530000D01*
X82585928Y-107530000D01*
X82598188Y-107654482D01*
X82634498Y-107774180D01*
X82693463Y-107884494D01*
X82772815Y-107981185D01*
X82869506Y-108060537D01*
X82979820Y-108119502D01*
X83099518Y-108155812D01*
X83224000Y-108168072D01*
X83788250Y-108165000D01*
X83947000Y-108006250D01*
X83947000Y-106807000D01*
X84201000Y-106807000D01*
X84201000Y-108006250D01*
X84359750Y-108165000D01*
X84924000Y-108168072D01*
X85048482Y-108155812D01*
X85168180Y-108119502D01*
X85278494Y-108060537D01*
X85375185Y-107981185D01*
X85454537Y-107884494D01*
X85513502Y-107774180D01*
X85549812Y-107654482D01*
X85562072Y-107530000D01*
X85559000Y-106965750D01*
X85400250Y-106807000D01*
X84201000Y-106807000D01*
X83947000Y-106807000D01*
X82747750Y-106807000D01*
X82589000Y-106965750D01*
X82585928Y-107530000D01*
X81761000Y-107530000D01*
X81761000Y-105830000D01*
X82585928Y-105830000D01*
X82589000Y-106394250D01*
X82747750Y-106553000D01*
X83947000Y-106553000D01*
X83947000Y-106533000D01*
X84201000Y-106533000D01*
X84201000Y-106553000D01*
X85400250Y-106553000D01*
X85559000Y-106394250D01*
X85562072Y-105830000D01*
X85549812Y-105705518D01*
X85513502Y-105585820D01*
X85465412Y-105495850D01*
X124714000Y-105495850D01*
X124714000Y-105946152D01*
X124801850Y-106387803D01*
X124974173Y-106803828D01*
X125224348Y-107178241D01*
X125542760Y-107496653D01*
X125917173Y-107746828D01*
X126333198Y-107919151D01*
X126774849Y-108007001D01*
X127225151Y-108007001D01*
X127666802Y-107919151D01*
X128082827Y-107746828D01*
X128457240Y-107496653D01*
X128775652Y-107178241D01*
X129025827Y-106803828D01*
X129198150Y-106387803D01*
X129286000Y-105946152D01*
X129286000Y-105495850D01*
X129794000Y-105495850D01*
X129794000Y-105946152D01*
X129881850Y-106387803D01*
X130054173Y-106803828D01*
X130304348Y-107178241D01*
X130622760Y-107496653D01*
X130997173Y-107746828D01*
X131413198Y-107919151D01*
X131854849Y-108007001D01*
X132305151Y-108007001D01*
X132746802Y-107919151D01*
X133162827Y-107746828D01*
X133537240Y-107496653D01*
X133855652Y-107178241D01*
X134105827Y-106803828D01*
X134278150Y-106387803D01*
X134366000Y-105946152D01*
X134366000Y-105495850D01*
X134874000Y-105495850D01*
X134874000Y-105946152D01*
X134961850Y-106387803D01*
X135134173Y-106803828D01*
X135384348Y-107178241D01*
X135702760Y-107496653D01*
X136077173Y-107746828D01*
X136493198Y-107919151D01*
X136934849Y-108007001D01*
X137385151Y-108007001D01*
X137826802Y-107919151D01*
X138242827Y-107746828D01*
X138617240Y-107496653D01*
X138935652Y-107178241D01*
X139185827Y-106803828D01*
X139358150Y-106387803D01*
X139446000Y-105946152D01*
X139446000Y-105495850D01*
X139954000Y-105495850D01*
X139954000Y-105946152D01*
X140041850Y-106387803D01*
X140214173Y-106803828D01*
X140464348Y-107178241D01*
X140782760Y-107496653D01*
X141157173Y-107746828D01*
X141573198Y-107919151D01*
X142014849Y-108007001D01*
X142465151Y-108007001D01*
X142906802Y-107919151D01*
X143322827Y-107746828D01*
X143697240Y-107496653D01*
X144015652Y-107178241D01*
X144265827Y-106803828D01*
X144438150Y-106387803D01*
X144526000Y-105946152D01*
X144526000Y-105495850D01*
X144438150Y-105054199D01*
X144265827Y-104638174D01*
X144015652Y-104263761D01*
X143697240Y-103945349D01*
X143322827Y-103695174D01*
X142906802Y-103522851D01*
X142465151Y-103435001D01*
X142014849Y-103435001D01*
X141573198Y-103522851D01*
X141157173Y-103695174D01*
X140782760Y-103945349D01*
X140464348Y-104263761D01*
X140214173Y-104638174D01*
X140041850Y-105054199D01*
X139954000Y-105495850D01*
X139446000Y-105495850D01*
X139358150Y-105054199D01*
X139185827Y-104638174D01*
X138935652Y-104263761D01*
X138617240Y-103945349D01*
X138242827Y-103695174D01*
X137826802Y-103522851D01*
X137385151Y-103435001D01*
X136934849Y-103435001D01*
X136493198Y-103522851D01*
X136077173Y-103695174D01*
X135702760Y-103945349D01*
X135384348Y-104263761D01*
X135134173Y-104638174D01*
X134961850Y-105054199D01*
X134874000Y-105495850D01*
X134366000Y-105495850D01*
X134278150Y-105054199D01*
X134105827Y-104638174D01*
X133855652Y-104263761D01*
X133537240Y-103945349D01*
X133162827Y-103695174D01*
X132746802Y-103522851D01*
X132305151Y-103435001D01*
X131854849Y-103435001D01*
X131413198Y-103522851D01*
X130997173Y-103695174D01*
X130622760Y-103945349D01*
X130304348Y-104263761D01*
X130054173Y-104638174D01*
X129881850Y-105054199D01*
X129794000Y-105495850D01*
X129286000Y-105495850D01*
X129198150Y-105054199D01*
X129025827Y-104638174D01*
X128775652Y-104263761D01*
X128457240Y-103945349D01*
X128082827Y-103695174D01*
X127666802Y-103522851D01*
X127225151Y-103435001D01*
X126774849Y-103435001D01*
X126333198Y-103522851D01*
X125917173Y-103695174D01*
X125542760Y-103945349D01*
X125224348Y-104263761D01*
X124974173Y-104638174D01*
X124801850Y-105054199D01*
X124714000Y-105495850D01*
X85465412Y-105495850D01*
X85454537Y-105475506D01*
X85375185Y-105378815D01*
X85278494Y-105299463D01*
X85168180Y-105240498D01*
X85048482Y-105204188D01*
X84924000Y-105191928D01*
X84713706Y-105193073D01*
X84858717Y-105096180D01*
X85030180Y-104924717D01*
X85164898Y-104723097D01*
X85257693Y-104499069D01*
X85305000Y-104261243D01*
X85305000Y-104018757D01*
X85257693Y-103780931D01*
X85164898Y-103556903D01*
X85030180Y-103355283D01*
X84858717Y-103183820D01*
X84657097Y-103049102D01*
X84433069Y-102956307D01*
X84195243Y-102909000D01*
X83952757Y-102909000D01*
X83714931Y-102956307D01*
X83490903Y-103049102D01*
X83289283Y-103183820D01*
X83117820Y-103355283D01*
X82983102Y-103556903D01*
X82890307Y-103780931D01*
X82843000Y-104018757D01*
X82843000Y-104261243D01*
X82890307Y-104499069D01*
X82983102Y-104723097D01*
X83117820Y-104924717D01*
X83289283Y-105096180D01*
X83434294Y-105193073D01*
X83224000Y-105191928D01*
X83099518Y-105204188D01*
X82979820Y-105240498D01*
X82869506Y-105299463D01*
X82772815Y-105378815D01*
X82693463Y-105475506D01*
X82634498Y-105585820D01*
X82598188Y-105705518D01*
X82585928Y-105830000D01*
X81761000Y-105830000D01*
X81761000Y-101436241D01*
X95377000Y-101436241D01*
X95377000Y-101611359D01*
X95411164Y-101783112D01*
X95478179Y-101944899D01*
X95567500Y-102078578D01*
X95567501Y-103369092D01*
X95564122Y-103403400D01*
X95567501Y-103437708D01*
X95567501Y-103437709D01*
X95577608Y-103540330D01*
X95597579Y-103606164D01*
X95617549Y-103671998D01*
X95682409Y-103793343D01*
X95747826Y-103873053D01*
X95747830Y-103873057D01*
X95769698Y-103899703D01*
X95796343Y-103921570D01*
X96916233Y-105041462D01*
X96938097Y-105068103D01*
X96964737Y-105089966D01*
X96964745Y-105089974D01*
X97044456Y-105155391D01*
X97118560Y-105195000D01*
X97165803Y-105220252D01*
X97297470Y-105260193D01*
X97400091Y-105270300D01*
X97400101Y-105270300D01*
X97434399Y-105273678D01*
X97468697Y-105270300D01*
X102124502Y-105270300D01*
X102158800Y-105273678D01*
X102193098Y-105270300D01*
X102193109Y-105270300D01*
X102295730Y-105260193D01*
X102427397Y-105220252D01*
X102548743Y-105155391D01*
X102655103Y-105068103D01*
X102676975Y-105041452D01*
X106502227Y-101216202D01*
X106659912Y-101184836D01*
X106821699Y-101117821D01*
X106967304Y-101020531D01*
X107091131Y-100896704D01*
X107188421Y-100751099D01*
X107255436Y-100589312D01*
X107289600Y-100417559D01*
X107289600Y-100415850D01*
X122174000Y-100415850D01*
X122174000Y-100866152D01*
X122261850Y-101307803D01*
X122434173Y-101723828D01*
X122684348Y-102098241D01*
X123002760Y-102416653D01*
X123377173Y-102666828D01*
X123793198Y-102839151D01*
X124234849Y-102927001D01*
X124685151Y-102927001D01*
X125126802Y-102839151D01*
X125542827Y-102666828D01*
X125917240Y-102416653D01*
X126235652Y-102098241D01*
X126485827Y-101723828D01*
X126658150Y-101307803D01*
X126746000Y-100866152D01*
X126746000Y-100415850D01*
X127254000Y-100415850D01*
X127254000Y-100866152D01*
X127341850Y-101307803D01*
X127514173Y-101723828D01*
X127764348Y-102098241D01*
X128082760Y-102416653D01*
X128457173Y-102666828D01*
X128873198Y-102839151D01*
X129314849Y-102927001D01*
X129765151Y-102927001D01*
X130206802Y-102839151D01*
X130622827Y-102666828D01*
X130997240Y-102416653D01*
X131315652Y-102098241D01*
X131565827Y-101723828D01*
X131738150Y-101307803D01*
X131826000Y-100866152D01*
X131826000Y-100415850D01*
X132334000Y-100415850D01*
X132334000Y-100866152D01*
X132421850Y-101307803D01*
X132594173Y-101723828D01*
X132844348Y-102098241D01*
X133162760Y-102416653D01*
X133537173Y-102666828D01*
X133953198Y-102839151D01*
X134394849Y-102927001D01*
X134845151Y-102927001D01*
X135286802Y-102839151D01*
X135702827Y-102666828D01*
X136077240Y-102416653D01*
X136395652Y-102098241D01*
X136645827Y-101723828D01*
X136818150Y-101307803D01*
X136906000Y-100866152D01*
X136906000Y-100415850D01*
X137414000Y-100415850D01*
X137414000Y-100866152D01*
X137501850Y-101307803D01*
X137674173Y-101723828D01*
X137924348Y-102098241D01*
X138242760Y-102416653D01*
X138617173Y-102666828D01*
X139033198Y-102839151D01*
X139474849Y-102927001D01*
X139925151Y-102927001D01*
X140366802Y-102839151D01*
X140782827Y-102666828D01*
X141157240Y-102416653D01*
X141475652Y-102098241D01*
X141725827Y-101723828D01*
X141898150Y-101307803D01*
X141986000Y-100866152D01*
X141986000Y-100415850D01*
X142494000Y-100415850D01*
X142494000Y-100866152D01*
X142581850Y-101307803D01*
X142754173Y-101723828D01*
X143004348Y-102098241D01*
X143322760Y-102416653D01*
X143697173Y-102666828D01*
X144113198Y-102839151D01*
X144554849Y-102927001D01*
X145005151Y-102927001D01*
X145446802Y-102839151D01*
X145862827Y-102666828D01*
X146237240Y-102416653D01*
X146555652Y-102098241D01*
X146805827Y-101723828D01*
X146978150Y-101307803D01*
X147066000Y-100866152D01*
X147066000Y-100415850D01*
X146978150Y-99974199D01*
X146805827Y-99558174D01*
X146555652Y-99183761D01*
X146237240Y-98865349D01*
X145862827Y-98615174D01*
X145446802Y-98442851D01*
X145005151Y-98355001D01*
X144554849Y-98355001D01*
X144113198Y-98442851D01*
X143697173Y-98615174D01*
X143322760Y-98865349D01*
X143004348Y-99183761D01*
X142754173Y-99558174D01*
X142581850Y-99974199D01*
X142494000Y-100415850D01*
X141986000Y-100415850D01*
X141898150Y-99974199D01*
X141725827Y-99558174D01*
X141475652Y-99183761D01*
X141157240Y-98865349D01*
X140782827Y-98615174D01*
X140366802Y-98442851D01*
X139925151Y-98355001D01*
X139474849Y-98355001D01*
X139033198Y-98442851D01*
X138617173Y-98615174D01*
X138242760Y-98865349D01*
X137924348Y-99183761D01*
X137674173Y-99558174D01*
X137501850Y-99974199D01*
X137414000Y-100415850D01*
X136906000Y-100415850D01*
X136818150Y-99974199D01*
X136645827Y-99558174D01*
X136395652Y-99183761D01*
X136077240Y-98865349D01*
X135702827Y-98615174D01*
X135286802Y-98442851D01*
X134845151Y-98355001D01*
X134394849Y-98355001D01*
X133953198Y-98442851D01*
X133537173Y-98615174D01*
X133162760Y-98865349D01*
X132844348Y-99183761D01*
X132594173Y-99558174D01*
X132421850Y-99974199D01*
X132334000Y-100415850D01*
X131826000Y-100415850D01*
X131738150Y-99974199D01*
X131565827Y-99558174D01*
X131315652Y-99183761D01*
X130997240Y-98865349D01*
X130622827Y-98615174D01*
X130206802Y-98442851D01*
X129765151Y-98355001D01*
X129314849Y-98355001D01*
X128873198Y-98442851D01*
X128457173Y-98615174D01*
X128082760Y-98865349D01*
X127764348Y-99183761D01*
X127514173Y-99558174D01*
X127341850Y-99974199D01*
X127254000Y-100415850D01*
X126746000Y-100415850D01*
X126658150Y-99974199D01*
X126485827Y-99558174D01*
X126235652Y-99183761D01*
X125917240Y-98865349D01*
X125542827Y-98615174D01*
X125126802Y-98442851D01*
X124685151Y-98355001D01*
X124234849Y-98355001D01*
X123793198Y-98442851D01*
X123377173Y-98615174D01*
X123002760Y-98865349D01*
X122684348Y-99183761D01*
X122434173Y-99558174D01*
X122261850Y-99974199D01*
X122174000Y-100415850D01*
X107289600Y-100415850D01*
X107289600Y-100242441D01*
X107255436Y-100070688D01*
X107188421Y-99908901D01*
X107091131Y-99763296D01*
X106967304Y-99639469D01*
X106821699Y-99542179D01*
X106659912Y-99475164D01*
X106488159Y-99441000D01*
X106313041Y-99441000D01*
X106141288Y-99475164D01*
X105979501Y-99542179D01*
X105833896Y-99639469D01*
X105710069Y-99763296D01*
X105612779Y-99908901D01*
X105545764Y-100070688D01*
X105514398Y-100228373D01*
X101869473Y-103873300D01*
X97723729Y-103873300D01*
X97527503Y-103677074D01*
X97581488Y-103699436D01*
X97753241Y-103733600D01*
X97928359Y-103733600D01*
X98100112Y-103699436D01*
X98261899Y-103632421D01*
X98395578Y-103543100D01*
X99051102Y-103543100D01*
X99085400Y-103546478D01*
X99119698Y-103543100D01*
X99119709Y-103543100D01*
X99222330Y-103532993D01*
X99353997Y-103493052D01*
X99475343Y-103428191D01*
X99581703Y-103340903D01*
X99603575Y-103314252D01*
X104749627Y-98168202D01*
X104907312Y-98136836D01*
X105069099Y-98069821D01*
X105214704Y-97972531D01*
X105338531Y-97848704D01*
X105435821Y-97703099D01*
X105502836Y-97541312D01*
X105537000Y-97369559D01*
X105537000Y-97194441D01*
X105502836Y-97022688D01*
X105435821Y-96860901D01*
X105338531Y-96715296D01*
X105214704Y-96591469D01*
X105069099Y-96494179D01*
X104907312Y-96427164D01*
X104735559Y-96393000D01*
X104560441Y-96393000D01*
X104388688Y-96427164D01*
X104226901Y-96494179D01*
X104081296Y-96591469D01*
X103957469Y-96715296D01*
X103860179Y-96860901D01*
X103793164Y-97022688D01*
X103761798Y-97180373D01*
X98796073Y-102146100D01*
X98395578Y-102146100D01*
X98261899Y-102056779D01*
X98100112Y-101989764D01*
X97928359Y-101955600D01*
X97753241Y-101955600D01*
X97581488Y-101989764D01*
X97419701Y-102056779D01*
X97274096Y-102154069D01*
X97150269Y-102277896D01*
X97052979Y-102423501D01*
X96985964Y-102585288D01*
X96964500Y-102693194D01*
X96964500Y-102078578D01*
X97053821Y-101944899D01*
X97120836Y-101783112D01*
X97155000Y-101611359D01*
X97155000Y-101436241D01*
X97120836Y-101264488D01*
X97053821Y-101102701D01*
X96956531Y-100957096D01*
X96832704Y-100833269D01*
X96687099Y-100735979D01*
X96525312Y-100668964D01*
X96353559Y-100634800D01*
X96178441Y-100634800D01*
X96006688Y-100668964D01*
X95844901Y-100735979D01*
X95699296Y-100833269D01*
X95575469Y-100957096D01*
X95478179Y-101102701D01*
X95411164Y-101264488D01*
X95377000Y-101436241D01*
X81761000Y-101436241D01*
X81761000Y-95773606D01*
X90109400Y-95773606D01*
X90109400Y-95996394D01*
X90152864Y-96214900D01*
X90238121Y-96420729D01*
X90361895Y-96605970D01*
X90519430Y-96763505D01*
X90704671Y-96887279D01*
X90910500Y-96972536D01*
X91129006Y-97016000D01*
X91351794Y-97016000D01*
X91570300Y-96972536D01*
X91776129Y-96887279D01*
X91961370Y-96763505D01*
X92118905Y-96605970D01*
X92242679Y-96420729D01*
X92327936Y-96214900D01*
X92371400Y-95996394D01*
X92371400Y-95773606D01*
X93509400Y-95773606D01*
X93509400Y-95996394D01*
X93552864Y-96214900D01*
X93638121Y-96420729D01*
X93761895Y-96605970D01*
X93919430Y-96763505D01*
X94104671Y-96887279D01*
X94310500Y-96972536D01*
X94529006Y-97016000D01*
X94751794Y-97016000D01*
X94970300Y-96972536D01*
X95176129Y-96887279D01*
X95361370Y-96763505D01*
X95518905Y-96605970D01*
X95642679Y-96420729D01*
X95727936Y-96214900D01*
X95771400Y-95996394D01*
X95771400Y-95773606D01*
X95727936Y-95555100D01*
X95642679Y-95349271D01*
X95633712Y-95335850D01*
X122174000Y-95335850D01*
X122174000Y-95786152D01*
X122261850Y-96227803D01*
X122434173Y-96643828D01*
X122684348Y-97018241D01*
X123002760Y-97336653D01*
X123377173Y-97586828D01*
X123793198Y-97759151D01*
X124234849Y-97847001D01*
X124685151Y-97847001D01*
X125126802Y-97759151D01*
X125542827Y-97586828D01*
X125917240Y-97336653D01*
X126235652Y-97018241D01*
X126485827Y-96643828D01*
X126658150Y-96227803D01*
X126746000Y-95786152D01*
X126746000Y-95335850D01*
X127254000Y-95335850D01*
X127254000Y-95786152D01*
X127341850Y-96227803D01*
X127514173Y-96643828D01*
X127764348Y-97018241D01*
X128082760Y-97336653D01*
X128457173Y-97586828D01*
X128873198Y-97759151D01*
X129314849Y-97847001D01*
X129765151Y-97847001D01*
X130206802Y-97759151D01*
X130622827Y-97586828D01*
X130997240Y-97336653D01*
X131315652Y-97018241D01*
X131565827Y-96643828D01*
X131738150Y-96227803D01*
X131826000Y-95786152D01*
X131826000Y-95335850D01*
X132334000Y-95335850D01*
X132334000Y-95786152D01*
X132421850Y-96227803D01*
X132594173Y-96643828D01*
X132844348Y-97018241D01*
X133162760Y-97336653D01*
X133537173Y-97586828D01*
X133953198Y-97759151D01*
X134394849Y-97847001D01*
X134845151Y-97847001D01*
X135286802Y-97759151D01*
X135702827Y-97586828D01*
X136077240Y-97336653D01*
X136395652Y-97018241D01*
X136645827Y-96643828D01*
X136818150Y-96227803D01*
X136906000Y-95786152D01*
X136906000Y-95335850D01*
X137414000Y-95335850D01*
X137414000Y-95786152D01*
X137501850Y-96227803D01*
X137674173Y-96643828D01*
X137924348Y-97018241D01*
X138242760Y-97336653D01*
X138617173Y-97586828D01*
X139033198Y-97759151D01*
X139474849Y-97847001D01*
X139925151Y-97847001D01*
X140366802Y-97759151D01*
X140782827Y-97586828D01*
X141157240Y-97336653D01*
X141475652Y-97018241D01*
X141725827Y-96643828D01*
X141898150Y-96227803D01*
X141986000Y-95786152D01*
X141986000Y-95335850D01*
X142494000Y-95335850D01*
X142494000Y-95786152D01*
X142581850Y-96227803D01*
X142754173Y-96643828D01*
X143004348Y-97018241D01*
X143322760Y-97336653D01*
X143697173Y-97586828D01*
X144113198Y-97759151D01*
X144554849Y-97847001D01*
X145005151Y-97847001D01*
X145446802Y-97759151D01*
X145862827Y-97586828D01*
X146237240Y-97336653D01*
X146555652Y-97018241D01*
X146805827Y-96643828D01*
X146978150Y-96227803D01*
X147066000Y-95786152D01*
X147066000Y-95335850D01*
X146978150Y-94894199D01*
X146805827Y-94478174D01*
X146555652Y-94103761D01*
X146237240Y-93785349D01*
X145862827Y-93535174D01*
X145446802Y-93362851D01*
X145005151Y-93275001D01*
X144554849Y-93275001D01*
X144113198Y-93362851D01*
X143697173Y-93535174D01*
X143322760Y-93785349D01*
X143004348Y-94103761D01*
X142754173Y-94478174D01*
X142581850Y-94894199D01*
X142494000Y-95335850D01*
X141986000Y-95335850D01*
X141898150Y-94894199D01*
X141725827Y-94478174D01*
X141475652Y-94103761D01*
X141157240Y-93785349D01*
X140782827Y-93535174D01*
X140366802Y-93362851D01*
X139925151Y-93275001D01*
X139474849Y-93275001D01*
X139033198Y-93362851D01*
X138617173Y-93535174D01*
X138242760Y-93785349D01*
X137924348Y-94103761D01*
X137674173Y-94478174D01*
X137501850Y-94894199D01*
X137414000Y-95335850D01*
X136906000Y-95335850D01*
X136818150Y-94894199D01*
X136645827Y-94478174D01*
X136395652Y-94103761D01*
X136077240Y-93785349D01*
X135702827Y-93535174D01*
X135286802Y-93362851D01*
X134845151Y-93275001D01*
X134394849Y-93275001D01*
X133953198Y-93362851D01*
X133537173Y-93535174D01*
X133162760Y-93785349D01*
X132844348Y-94103761D01*
X132594173Y-94478174D01*
X132421850Y-94894199D01*
X132334000Y-95335850D01*
X131826000Y-95335850D01*
X131738150Y-94894199D01*
X131565827Y-94478174D01*
X131315652Y-94103761D01*
X130997240Y-93785349D01*
X130622827Y-93535174D01*
X130206802Y-93362851D01*
X129765151Y-93275001D01*
X129314849Y-93275001D01*
X128873198Y-93362851D01*
X128457173Y-93535174D01*
X128082760Y-93785349D01*
X127764348Y-94103761D01*
X127514173Y-94478174D01*
X127341850Y-94894199D01*
X127254000Y-95335850D01*
X126746000Y-95335850D01*
X126658150Y-94894199D01*
X126485827Y-94478174D01*
X126235652Y-94103761D01*
X125917240Y-93785349D01*
X125542827Y-93535174D01*
X125126802Y-93362851D01*
X124685151Y-93275001D01*
X124234849Y-93275001D01*
X123793198Y-93362851D01*
X123377173Y-93535174D01*
X123002760Y-93785349D01*
X122684348Y-94103761D01*
X122434173Y-94478174D01*
X122261850Y-94894199D01*
X122174000Y-95335850D01*
X95633712Y-95335850D01*
X95518905Y-95164030D01*
X95361370Y-95006495D01*
X95176129Y-94882721D01*
X94970300Y-94797464D01*
X94751794Y-94754000D01*
X94529006Y-94754000D01*
X94310500Y-94797464D01*
X94104671Y-94882721D01*
X93919430Y-95006495D01*
X93761895Y-95164030D01*
X93638121Y-95349271D01*
X93552864Y-95555100D01*
X93509400Y-95773606D01*
X92371400Y-95773606D01*
X92327936Y-95555100D01*
X92242679Y-95349271D01*
X92118905Y-95164030D01*
X91961370Y-95006495D01*
X91776129Y-94882721D01*
X91570300Y-94797464D01*
X91351794Y-94754000D01*
X91129006Y-94754000D01*
X90910500Y-94797464D01*
X90704671Y-94882721D01*
X90519430Y-95006495D01*
X90361895Y-95164030D01*
X90238121Y-95349271D01*
X90152864Y-95555100D01*
X90109400Y-95773606D01*
X81761000Y-95773606D01*
X81761000Y-85460408D01*
X82677000Y-85460408D01*
X82677000Y-85735592D01*
X82730686Y-86005490D01*
X82835995Y-86259727D01*
X82988880Y-86488535D01*
X83183465Y-86683120D01*
X83412273Y-86836005D01*
X83542737Y-86890045D01*
X83426338Y-86967821D01*
X83284821Y-87109338D01*
X83173632Y-87275744D01*
X83097044Y-87460644D01*
X83058000Y-87656933D01*
X83058000Y-87857067D01*
X83097044Y-88053356D01*
X83173632Y-88238256D01*
X83284821Y-88404662D01*
X83426338Y-88546179D01*
X83592744Y-88657368D01*
X83777644Y-88733956D01*
X83973933Y-88773000D01*
X83777644Y-88812044D01*
X83592744Y-88888632D01*
X83426338Y-88999821D01*
X83284821Y-89141338D01*
X83173632Y-89307744D01*
X83097044Y-89492644D01*
X83058000Y-89688933D01*
X83058000Y-89889067D01*
X83097044Y-90085356D01*
X83173632Y-90270256D01*
X83284821Y-90436662D01*
X83426338Y-90578179D01*
X83592744Y-90689368D01*
X83777644Y-90765956D01*
X83973933Y-90805000D01*
X83777644Y-90844044D01*
X83592744Y-90920632D01*
X83426338Y-91031821D01*
X83284821Y-91173338D01*
X83173632Y-91339744D01*
X83097044Y-91524644D01*
X83058000Y-91720933D01*
X83058000Y-91921067D01*
X83097044Y-92117356D01*
X83173632Y-92302256D01*
X83284821Y-92468662D01*
X83426338Y-92610179D01*
X83542737Y-92687955D01*
X83412273Y-92741995D01*
X83183465Y-92894880D01*
X82988880Y-93089465D01*
X82835995Y-93318273D01*
X82730686Y-93572510D01*
X82677000Y-93842408D01*
X82677000Y-94117592D01*
X82730686Y-94387490D01*
X82835995Y-94641727D01*
X82988880Y-94870535D01*
X83183465Y-95065120D01*
X83412273Y-95218005D01*
X83666510Y-95323314D01*
X83936408Y-95377000D01*
X84211592Y-95377000D01*
X84481490Y-95323314D01*
X84735727Y-95218005D01*
X84964535Y-95065120D01*
X85159120Y-94870535D01*
X85312005Y-94641727D01*
X85417314Y-94387490D01*
X85471000Y-94117592D01*
X85471000Y-93842408D01*
X85417314Y-93572510D01*
X85312005Y-93318273D01*
X85159120Y-93089465D01*
X84964535Y-92894880D01*
X84735727Y-92741995D01*
X84605263Y-92687955D01*
X84721662Y-92610179D01*
X84863179Y-92468662D01*
X84974368Y-92302256D01*
X85050956Y-92117356D01*
X85090000Y-91921067D01*
X85090000Y-91720933D01*
X85050956Y-91524644D01*
X84974368Y-91339744D01*
X84863179Y-91173338D01*
X84721662Y-91031821D01*
X84555256Y-90920632D01*
X84370356Y-90844044D01*
X84174067Y-90805000D01*
X84370356Y-90765956D01*
X84555256Y-90689368D01*
X84721662Y-90578179D01*
X84863179Y-90436662D01*
X84974368Y-90270256D01*
X85050956Y-90085356D01*
X85090000Y-89889067D01*
X85090000Y-89688933D01*
X85050956Y-89492644D01*
X84974368Y-89307744D01*
X84863179Y-89141338D01*
X84721662Y-88999821D01*
X84555256Y-88888632D01*
X84370356Y-88812044D01*
X84174067Y-88773000D01*
X84370356Y-88733956D01*
X84548802Y-88660041D01*
X86995000Y-88660041D01*
X86995000Y-88835159D01*
X87029164Y-89006912D01*
X87096179Y-89168699D01*
X87122000Y-89207343D01*
X87122001Y-91031056D01*
X87096179Y-91069701D01*
X87029164Y-91231488D01*
X86995000Y-91403241D01*
X86995000Y-91578359D01*
X87029164Y-91750112D01*
X87096179Y-91911899D01*
X87193469Y-92057504D01*
X87317296Y-92181331D01*
X87462901Y-92278621D01*
X87624688Y-92345636D01*
X87796441Y-92379800D01*
X87971559Y-92379800D01*
X88143312Y-92345636D01*
X88305099Y-92278621D01*
X88450704Y-92181331D01*
X88574531Y-92057504D01*
X88671821Y-91911899D01*
X88738836Y-91750112D01*
X88773000Y-91578359D01*
X88773000Y-91403241D01*
X88738836Y-91231488D01*
X88671821Y-91069701D01*
X88646000Y-91031057D01*
X88646000Y-90255850D01*
X122174000Y-90255850D01*
X122174000Y-90706152D01*
X122261850Y-91147803D01*
X122434173Y-91563828D01*
X122684348Y-91938241D01*
X123002760Y-92256653D01*
X123377173Y-92506828D01*
X123793198Y-92679151D01*
X124234849Y-92767001D01*
X124685151Y-92767001D01*
X125126802Y-92679151D01*
X125542827Y-92506828D01*
X125917240Y-92256653D01*
X126235652Y-91938241D01*
X126485827Y-91563828D01*
X126658150Y-91147803D01*
X126746000Y-90706152D01*
X126746000Y-90255850D01*
X127254000Y-90255850D01*
X127254000Y-90706152D01*
X127341850Y-91147803D01*
X127514173Y-91563828D01*
X127764348Y-91938241D01*
X128082760Y-92256653D01*
X128457173Y-92506828D01*
X128873198Y-92679151D01*
X129314849Y-92767001D01*
X129765151Y-92767001D01*
X130206802Y-92679151D01*
X130622827Y-92506828D01*
X130997240Y-92256653D01*
X131315652Y-91938241D01*
X131565827Y-91563828D01*
X131738150Y-91147803D01*
X131826000Y-90706152D01*
X131826000Y-90255850D01*
X132334000Y-90255850D01*
X132334000Y-90706152D01*
X132421850Y-91147803D01*
X132594173Y-91563828D01*
X132844348Y-91938241D01*
X133162760Y-92256653D01*
X133537173Y-92506828D01*
X133953198Y-92679151D01*
X134394849Y-92767001D01*
X134845151Y-92767001D01*
X135286802Y-92679151D01*
X135702827Y-92506828D01*
X136077240Y-92256653D01*
X136395652Y-91938241D01*
X136645827Y-91563828D01*
X136818150Y-91147803D01*
X136906000Y-90706152D01*
X136906000Y-90255850D01*
X137414000Y-90255850D01*
X137414000Y-90706152D01*
X137501850Y-91147803D01*
X137674173Y-91563828D01*
X137924348Y-91938241D01*
X138242760Y-92256653D01*
X138617173Y-92506828D01*
X139033198Y-92679151D01*
X139474849Y-92767001D01*
X139925151Y-92767001D01*
X140366802Y-92679151D01*
X140782827Y-92506828D01*
X141157240Y-92256653D01*
X141475652Y-91938241D01*
X141725827Y-91563828D01*
X141898150Y-91147803D01*
X141986000Y-90706152D01*
X141986000Y-90255850D01*
X142494000Y-90255850D01*
X142494000Y-90706152D01*
X142581850Y-91147803D01*
X142754173Y-91563828D01*
X143004348Y-91938241D01*
X143322760Y-92256653D01*
X143697173Y-92506828D01*
X144113198Y-92679151D01*
X144554849Y-92767001D01*
X145005151Y-92767001D01*
X145446802Y-92679151D01*
X145862827Y-92506828D01*
X146237240Y-92256653D01*
X146555652Y-91938241D01*
X146805827Y-91563828D01*
X146978150Y-91147803D01*
X147066000Y-90706152D01*
X147066000Y-90255850D01*
X146978150Y-89814199D01*
X146805827Y-89398174D01*
X146555652Y-89023761D01*
X146237240Y-88705349D01*
X145862827Y-88455174D01*
X145446802Y-88282851D01*
X145005151Y-88195001D01*
X144554849Y-88195001D01*
X144113198Y-88282851D01*
X143697173Y-88455174D01*
X143322760Y-88705349D01*
X143004348Y-89023761D01*
X142754173Y-89398174D01*
X142581850Y-89814199D01*
X142494000Y-90255850D01*
X141986000Y-90255850D01*
X141898150Y-89814199D01*
X141725827Y-89398174D01*
X141475652Y-89023761D01*
X141157240Y-88705349D01*
X140782827Y-88455174D01*
X140366802Y-88282851D01*
X139925151Y-88195001D01*
X139474849Y-88195001D01*
X139033198Y-88282851D01*
X138617173Y-88455174D01*
X138242760Y-88705349D01*
X137924348Y-89023761D01*
X137674173Y-89398174D01*
X137501850Y-89814199D01*
X137414000Y-90255850D01*
X136906000Y-90255850D01*
X136818150Y-89814199D01*
X136645827Y-89398174D01*
X136395652Y-89023761D01*
X136077240Y-88705349D01*
X135702827Y-88455174D01*
X135286802Y-88282851D01*
X134845151Y-88195001D01*
X134394849Y-88195001D01*
X133953198Y-88282851D01*
X133537173Y-88455174D01*
X133162760Y-88705349D01*
X132844348Y-89023761D01*
X132594173Y-89398174D01*
X132421850Y-89814199D01*
X132334000Y-90255850D01*
X131826000Y-90255850D01*
X131738150Y-89814199D01*
X131565827Y-89398174D01*
X131315652Y-89023761D01*
X130997240Y-88705349D01*
X130622827Y-88455174D01*
X130206802Y-88282851D01*
X129765151Y-88195001D01*
X129314849Y-88195001D01*
X128873198Y-88282851D01*
X128457173Y-88455174D01*
X128082760Y-88705349D01*
X127764348Y-89023761D01*
X127514173Y-89398174D01*
X127341850Y-89814199D01*
X127254000Y-90255850D01*
X126746000Y-90255850D01*
X126658150Y-89814199D01*
X126485827Y-89398174D01*
X126235652Y-89023761D01*
X125917240Y-88705349D01*
X125542827Y-88455174D01*
X125126802Y-88282851D01*
X124685151Y-88195001D01*
X124234849Y-88195001D01*
X123793198Y-88282851D01*
X123377173Y-88455174D01*
X123002760Y-88705349D01*
X122684348Y-89023761D01*
X122434173Y-89398174D01*
X122261850Y-89814199D01*
X122174000Y-90255850D01*
X88646000Y-90255850D01*
X88646000Y-89207343D01*
X88671821Y-89168699D01*
X88738836Y-89006912D01*
X88773000Y-88835159D01*
X88773000Y-88660041D01*
X88738836Y-88488288D01*
X88671821Y-88326501D01*
X88574531Y-88180896D01*
X88450704Y-88057069D01*
X88305099Y-87959779D01*
X88143312Y-87892764D01*
X87971559Y-87858600D01*
X87796441Y-87858600D01*
X87624688Y-87892764D01*
X87462901Y-87959779D01*
X87317296Y-88057069D01*
X87193469Y-88180896D01*
X87096179Y-88326501D01*
X87029164Y-88488288D01*
X86995000Y-88660041D01*
X84548802Y-88660041D01*
X84555256Y-88657368D01*
X84721662Y-88546179D01*
X84863179Y-88404662D01*
X84974368Y-88238256D01*
X85050956Y-88053356D01*
X85090000Y-87857067D01*
X85090000Y-87656933D01*
X85050956Y-87460644D01*
X84974368Y-87275744D01*
X84863179Y-87109338D01*
X84721662Y-86967821D01*
X84605263Y-86890045D01*
X84735727Y-86836005D01*
X84964535Y-86683120D01*
X85159120Y-86488535D01*
X85312005Y-86259727D01*
X85417314Y-86005490D01*
X85471000Y-85735592D01*
X85471000Y-85460408D01*
X85417314Y-85190510D01*
X85411242Y-85175850D01*
X124714000Y-85175850D01*
X124714000Y-85626152D01*
X124801850Y-86067803D01*
X124974173Y-86483828D01*
X125224348Y-86858241D01*
X125542760Y-87176653D01*
X125917173Y-87426828D01*
X126333198Y-87599151D01*
X126774849Y-87687001D01*
X127225151Y-87687001D01*
X127666802Y-87599151D01*
X128082827Y-87426828D01*
X128457240Y-87176653D01*
X128775652Y-86858241D01*
X129025827Y-86483828D01*
X129198150Y-86067803D01*
X129286000Y-85626152D01*
X129286000Y-85175850D01*
X129794000Y-85175850D01*
X129794000Y-85626152D01*
X129881850Y-86067803D01*
X130054173Y-86483828D01*
X130304348Y-86858241D01*
X130622760Y-87176653D01*
X130997173Y-87426828D01*
X131413198Y-87599151D01*
X131854849Y-87687001D01*
X132305151Y-87687001D01*
X132746802Y-87599151D01*
X133162827Y-87426828D01*
X133537240Y-87176653D01*
X133855652Y-86858241D01*
X134105827Y-86483828D01*
X134278150Y-86067803D01*
X134366000Y-85626152D01*
X134366000Y-85175850D01*
X134874000Y-85175850D01*
X134874000Y-85626152D01*
X134961850Y-86067803D01*
X135134173Y-86483828D01*
X135384348Y-86858241D01*
X135702760Y-87176653D01*
X136077173Y-87426828D01*
X136493198Y-87599151D01*
X136934849Y-87687001D01*
X137385151Y-87687001D01*
X137826802Y-87599151D01*
X138242827Y-87426828D01*
X138617240Y-87176653D01*
X138935652Y-86858241D01*
X139185827Y-86483828D01*
X139358150Y-86067803D01*
X139446000Y-85626152D01*
X139446000Y-85175850D01*
X139954000Y-85175850D01*
X139954000Y-85626152D01*
X140041850Y-86067803D01*
X140214173Y-86483828D01*
X140464348Y-86858241D01*
X140782760Y-87176653D01*
X141157173Y-87426828D01*
X141573198Y-87599151D01*
X142014849Y-87687001D01*
X142465151Y-87687001D01*
X142906802Y-87599151D01*
X143322827Y-87426828D01*
X143697240Y-87176653D01*
X144015652Y-86858241D01*
X144265827Y-86483828D01*
X144438150Y-86067803D01*
X144526000Y-85626152D01*
X144526000Y-85175850D01*
X144438150Y-84734199D01*
X144265827Y-84318174D01*
X144015652Y-83943761D01*
X143697240Y-83625349D01*
X143322827Y-83375174D01*
X142906802Y-83202851D01*
X142465151Y-83115001D01*
X142014849Y-83115001D01*
X141573198Y-83202851D01*
X141157173Y-83375174D01*
X140782760Y-83625349D01*
X140464348Y-83943761D01*
X140214173Y-84318174D01*
X140041850Y-84734199D01*
X139954000Y-85175850D01*
X139446000Y-85175850D01*
X139358150Y-84734199D01*
X139185827Y-84318174D01*
X138935652Y-83943761D01*
X138617240Y-83625349D01*
X138242827Y-83375174D01*
X137826802Y-83202851D01*
X137385151Y-83115001D01*
X136934849Y-83115001D01*
X136493198Y-83202851D01*
X136077173Y-83375174D01*
X135702760Y-83625349D01*
X135384348Y-83943761D01*
X135134173Y-84318174D01*
X134961850Y-84734199D01*
X134874000Y-85175850D01*
X134366000Y-85175850D01*
X134278150Y-84734199D01*
X134105827Y-84318174D01*
X133855652Y-83943761D01*
X133537240Y-83625349D01*
X133162827Y-83375174D01*
X132746802Y-83202851D01*
X132305151Y-83115001D01*
X131854849Y-83115001D01*
X131413198Y-83202851D01*
X130997173Y-83375174D01*
X130622760Y-83625349D01*
X130304348Y-83943761D01*
X130054173Y-84318174D01*
X129881850Y-84734199D01*
X129794000Y-85175850D01*
X129286000Y-85175850D01*
X129198150Y-84734199D01*
X129025827Y-84318174D01*
X128775652Y-83943761D01*
X128457240Y-83625349D01*
X128082827Y-83375174D01*
X127666802Y-83202851D01*
X127225151Y-83115001D01*
X126774849Y-83115001D01*
X126333198Y-83202851D01*
X125917173Y-83375174D01*
X125542760Y-83625349D01*
X125224348Y-83943761D01*
X124974173Y-84318174D01*
X124801850Y-84734199D01*
X124714000Y-85175850D01*
X85411242Y-85175850D01*
X85312005Y-84936273D01*
X85159120Y-84707465D01*
X84964535Y-84512880D01*
X84735727Y-84359995D01*
X84481490Y-84254686D01*
X84211592Y-84201000D01*
X83936408Y-84201000D01*
X83666510Y-84254686D01*
X83412273Y-84359995D01*
X83183465Y-84512880D01*
X82988880Y-84707465D01*
X82835995Y-84936273D01*
X82730686Y-85190510D01*
X82677000Y-85460408D01*
X81761000Y-85460408D01*
X81761000Y-82208441D01*
X95046800Y-82208441D01*
X95046800Y-82383559D01*
X95080964Y-82555312D01*
X95147979Y-82717099D01*
X95245269Y-82862704D01*
X95369096Y-82986531D01*
X95514701Y-83083821D01*
X95676488Y-83150836D01*
X95848241Y-83185000D01*
X96023359Y-83185000D01*
X96195112Y-83150836D01*
X96356899Y-83083821D01*
X96502504Y-82986531D01*
X96608835Y-82880200D01*
X98034976Y-82880200D01*
X98679000Y-83524225D01*
X98679000Y-83602759D01*
X98713164Y-83774512D01*
X98780179Y-83936299D01*
X98877469Y-84081904D01*
X99001296Y-84205731D01*
X99146901Y-84303021D01*
X99308688Y-84370036D01*
X99480441Y-84404200D01*
X99655559Y-84404200D01*
X99827312Y-84370036D01*
X99989099Y-84303021D01*
X100134704Y-84205731D01*
X100258531Y-84081904D01*
X100355821Y-83936299D01*
X100422836Y-83774512D01*
X100457000Y-83602759D01*
X100457000Y-83427641D01*
X100422836Y-83255888D01*
X100355821Y-83094101D01*
X100258531Y-82948496D01*
X100134704Y-82824669D01*
X99989099Y-82727379D01*
X99827312Y-82660364D01*
X99655559Y-82626200D01*
X99577025Y-82626200D01*
X98769074Y-81818250D01*
X98749185Y-81794015D01*
X98652494Y-81714663D01*
X98542180Y-81655698D01*
X98422482Y-81619388D01*
X98329192Y-81610200D01*
X98329181Y-81610200D01*
X98298000Y-81607129D01*
X98266819Y-81610200D01*
X96507235Y-81610200D01*
X96502504Y-81605469D01*
X96356899Y-81508179D01*
X96195112Y-81441164D01*
X96023359Y-81407000D01*
X95848241Y-81407000D01*
X95676488Y-81441164D01*
X95514701Y-81508179D01*
X95369096Y-81605469D01*
X95245269Y-81729296D01*
X95147979Y-81874901D01*
X95080964Y-82036688D01*
X95046800Y-82208441D01*
X81761000Y-82208441D01*
X81761000Y-79541441D01*
X97029308Y-79541441D01*
X97029308Y-79716559D01*
X97063472Y-79888312D01*
X97130487Y-80050099D01*
X97227777Y-80195704D01*
X97351604Y-80319531D01*
X97497209Y-80416821D01*
X97658996Y-80483836D01*
X97830749Y-80518000D01*
X98005867Y-80518000D01*
X98177620Y-80483836D01*
X98339407Y-80416821D01*
X98485012Y-80319531D01*
X98540543Y-80264000D01*
X98593780Y-80264000D01*
X102108000Y-83778221D01*
X102108000Y-83856755D01*
X102142164Y-84028508D01*
X102209179Y-84190295D01*
X102306469Y-84335900D01*
X102430296Y-84459727D01*
X102575901Y-84557017D01*
X102737688Y-84624032D01*
X102909441Y-84658196D01*
X103084559Y-84658196D01*
X103256312Y-84624032D01*
X103418099Y-84557017D01*
X103563704Y-84459727D01*
X103687531Y-84335900D01*
X103784821Y-84190295D01*
X103851836Y-84028508D01*
X103886000Y-83856755D01*
X103886000Y-83681637D01*
X103851836Y-83509884D01*
X103784821Y-83348097D01*
X103687531Y-83202492D01*
X103563704Y-83078665D01*
X103418099Y-82981375D01*
X103256312Y-82914360D01*
X103084559Y-82880196D01*
X103006025Y-82880196D01*
X99327878Y-79202050D01*
X99307989Y-79177815D01*
X99211298Y-79098463D01*
X99100984Y-79039498D01*
X98981286Y-79003188D01*
X98887996Y-78994000D01*
X98887985Y-78994000D01*
X98856804Y-78990929D01*
X98825623Y-78994000D01*
X98540543Y-78994000D01*
X98485012Y-78938469D01*
X98339407Y-78841179D01*
X98177620Y-78774164D01*
X98005867Y-78740000D01*
X97830749Y-78740000D01*
X97658996Y-78774164D01*
X97497209Y-78841179D01*
X97351604Y-78938469D01*
X97227777Y-79062296D01*
X97130487Y-79207901D01*
X97063472Y-79369688D01*
X97029308Y-79541441D01*
X81761000Y-79541441D01*
X81761000Y-75881036D01*
X83121500Y-75881036D01*
X83121500Y-76518964D01*
X83245953Y-77144636D01*
X83490078Y-77734005D01*
X83844493Y-78264424D01*
X84295576Y-78715507D01*
X84825995Y-79069922D01*
X85415364Y-79314047D01*
X86041036Y-79438500D01*
X86678964Y-79438500D01*
X87304636Y-79314047D01*
X87894005Y-79069922D01*
X88424424Y-78715507D01*
X88875507Y-78264424D01*
X89229922Y-77734005D01*
X89474047Y-77144636D01*
X89517687Y-76925241D01*
X103759000Y-76925241D01*
X103759000Y-77100359D01*
X103793164Y-77272112D01*
X103860179Y-77433899D01*
X103957469Y-77579504D01*
X104081296Y-77703331D01*
X104226901Y-77800621D01*
X104388688Y-77867636D01*
X104560441Y-77901800D01*
X104735559Y-77901800D01*
X104907312Y-77867636D01*
X105069099Y-77800621D01*
X105214704Y-77703331D01*
X105338531Y-77579504D01*
X105435821Y-77433899D01*
X105502836Y-77272112D01*
X105537000Y-77100359D01*
X105537000Y-76925241D01*
X105502836Y-76753488D01*
X105435821Y-76591701D01*
X105338531Y-76446096D01*
X105214704Y-76322269D01*
X105069099Y-76224979D01*
X104907312Y-76157964D01*
X104735559Y-76123800D01*
X104560441Y-76123800D01*
X104388688Y-76157964D01*
X104226901Y-76224979D01*
X104081296Y-76322269D01*
X103957469Y-76446096D01*
X103860179Y-76591701D01*
X103793164Y-76753488D01*
X103759000Y-76925241D01*
X89517687Y-76925241D01*
X89598500Y-76518964D01*
X89598500Y-75881036D01*
X149161500Y-75881036D01*
X149161500Y-76518964D01*
X149285953Y-77144636D01*
X149530078Y-77734005D01*
X149884493Y-78264424D01*
X150335576Y-78715507D01*
X150865995Y-79069922D01*
X151455364Y-79314047D01*
X152081036Y-79438500D01*
X152718964Y-79438500D01*
X153344636Y-79314047D01*
X153934005Y-79069922D01*
X154464424Y-78715507D01*
X154915507Y-78264424D01*
X155269922Y-77734005D01*
X155514047Y-77144636D01*
X155638500Y-76518964D01*
X155638500Y-75881036D01*
X155514047Y-75255364D01*
X155269922Y-74665995D01*
X154915507Y-74135576D01*
X154464424Y-73684493D01*
X153934005Y-73330078D01*
X153344636Y-73085953D01*
X152718964Y-72961500D01*
X152081036Y-72961500D01*
X151455364Y-73085953D01*
X150865995Y-73330078D01*
X150335576Y-73684493D01*
X149884493Y-74135576D01*
X149530078Y-74665995D01*
X149285953Y-75255364D01*
X149161500Y-75881036D01*
X89598500Y-75881036D01*
X89474047Y-75255364D01*
X89229922Y-74665995D01*
X88875507Y-74135576D01*
X88424424Y-73684493D01*
X87894005Y-73330078D01*
X87304636Y-73085953D01*
X86678964Y-72961500D01*
X86041036Y-72961500D01*
X85415364Y-73085953D01*
X84825995Y-73330078D01*
X84295576Y-73684493D01*
X83844493Y-74135576D01*
X83490078Y-74665995D01*
X83245953Y-75255364D01*
X83121500Y-75881036D01*
X81761000Y-75881036D01*
X81761000Y-71601000D01*
X156999001Y-71601000D01*
X156999000Y-118899000D01*
G37*
X156999000Y-118899000D02*
X119114339Y-118899000D01*
X119355368Y-118770167D01*
X119529542Y-118439147D01*
X118110000Y-117019605D01*
X116690458Y-118439147D01*
X116864632Y-118770167D01*
X117115253Y-118899000D01*
X81761000Y-118899000D01*
X81761000Y-113981036D01*
X83121500Y-113981036D01*
X83121500Y-114618964D01*
X83245953Y-115244636D01*
X83490078Y-115834005D01*
X83844493Y-116364424D01*
X84295576Y-116815507D01*
X84825995Y-117169922D01*
X85415364Y-117414047D01*
X86041036Y-117538500D01*
X86678964Y-117538500D01*
X87304636Y-117414047D01*
X87894005Y-117169922D01*
X88424424Y-116815507D01*
X88600066Y-116639865D01*
X93218000Y-116639865D01*
X93218000Y-117040135D01*
X93296089Y-117432713D01*
X93449265Y-117802513D01*
X93671643Y-118135325D01*
X93954675Y-118418357D01*
X94287487Y-118640735D01*
X94657287Y-118793911D01*
X95049865Y-118872000D01*
X95450135Y-118872000D01*
X95842713Y-118793911D01*
X96212513Y-118640735D01*
X96545325Y-118418357D01*
X96828357Y-118135325D01*
X97050735Y-117802513D01*
X97203911Y-117432713D01*
X97282000Y-117040135D01*
X97282000Y-116639865D01*
X100838000Y-116639865D01*
X100838000Y-117040135D01*
X100916089Y-117432713D01*
X101069265Y-117802513D01*
X101291643Y-118135325D01*
X101574675Y-118418357D01*
X101907487Y-118640735D01*
X102277287Y-118793911D01*
X102669865Y-118872000D01*
X103070135Y-118872000D01*
X103462713Y-118793911D01*
X103832513Y-118640735D01*
X104165325Y-118418357D01*
X104448357Y-118135325D01*
X104670735Y-117802513D01*
X104823911Y-117432713D01*
X104902000Y-117040135D01*
X104902000Y-116639865D01*
X104823911Y-116247287D01*
X104670735Y-115877487D01*
X104448357Y-115544675D01*
X104165325Y-115261643D01*
X103832513Y-115039265D01*
X103462713Y-114886089D01*
X103070135Y-114808000D01*
X102669865Y-114808000D01*
X102277287Y-114886089D01*
X101907487Y-115039265D01*
X101574675Y-115261643D01*
X101291643Y-115544675D01*
X101069265Y-115877487D01*
X100916089Y-116247287D01*
X100838000Y-116639865D01*
X97282000Y-116639865D01*
X97203911Y-116247287D01*
X97050735Y-115877487D01*
X96828357Y-115544675D01*
X96545325Y-115261643D01*
X96212513Y-115039265D01*
X95842713Y-114886089D01*
X95450135Y-114808000D01*
X95049865Y-114808000D01*
X94657287Y-114886089D01*
X94287487Y-115039265D01*
X93954675Y-115261643D01*
X93671643Y-115544675D01*
X93449265Y-115877487D01*
X93296089Y-116247287D01*
X93218000Y-116639865D01*
X88600066Y-116639865D01*
X88875507Y-116364424D01*
X89229922Y-115834005D01*
X89474047Y-115244636D01*
X89598500Y-114618964D01*
X89598500Y-113981036D01*
X89523273Y-113602841D01*
X92049600Y-113602841D01*
X92049600Y-113777959D01*
X92083764Y-113949712D01*
X92150779Y-114111499D01*
X92248069Y-114257104D01*
X92371896Y-114380931D01*
X92517501Y-114478221D01*
X92679288Y-114545236D01*
X92851041Y-114579400D01*
X93026159Y-114579400D01*
X93197912Y-114545236D01*
X93359699Y-114478221D01*
X93398343Y-114452400D01*
X107024770Y-114452400D01*
X108619144Y-116046774D01*
X108536089Y-116247287D01*
X108458000Y-116639865D01*
X108458000Y-117040135D01*
X108536089Y-117432713D01*
X108689265Y-117802513D01*
X108911643Y-118135325D01*
X109194675Y-118418357D01*
X109527487Y-118640735D01*
X109897287Y-118793911D01*
X110289865Y-118872000D01*
X110690135Y-118872000D01*
X111082713Y-118793911D01*
X111452513Y-118640735D01*
X111785325Y-118418357D01*
X112068357Y-118135325D01*
X112290735Y-117802513D01*
X112443911Y-117432713D01*
X112522000Y-117040135D01*
X112522000Y-116876857D01*
X115813234Y-116876857D01*
X115864557Y-117324225D01*
X116002170Y-117752985D01*
X116179833Y-118085368D01*
X116510853Y-118259542D01*
X117930395Y-116840000D01*
X118289605Y-116840000D01*
X119709147Y-118259542D01*
X120040167Y-118085368D01*
X120246039Y-117684882D01*
X120369824Y-117251928D01*
X120388943Y-117019663D01*
X132016500Y-117019663D01*
X132016500Y-117282339D01*
X132067746Y-117539969D01*
X132168268Y-117782650D01*
X132314203Y-118001058D01*
X132499943Y-118186798D01*
X132718351Y-118332733D01*
X132961032Y-118433255D01*
X133218662Y-118484501D01*
X133481338Y-118484501D01*
X133738968Y-118433255D01*
X133981649Y-118332733D01*
X134101672Y-118252536D01*
X134968070Y-118252536D01*
X135058098Y-118512082D01*
X135339616Y-118648225D01*
X135642286Y-118726830D01*
X135954474Y-118744878D01*
X136264185Y-118701673D01*
X136559516Y-118598878D01*
X136721902Y-118512082D01*
X136811930Y-118252536D01*
X135890000Y-117330606D01*
X134968070Y-118252536D01*
X134101672Y-118252536D01*
X134200057Y-118186798D01*
X134385797Y-118001058D01*
X134470703Y-117873987D01*
X134528919Y-117982903D01*
X134788465Y-118072931D01*
X135710395Y-117151001D01*
X136069605Y-117151001D01*
X136991535Y-118072931D01*
X137251081Y-117982903D01*
X137387224Y-117701385D01*
X137465829Y-117398715D01*
X137483877Y-117086527D01*
X137440672Y-116776816D01*
X137337877Y-116481485D01*
X137251081Y-116319099D01*
X136991535Y-116229071D01*
X136069605Y-117151001D01*
X135710395Y-117151001D01*
X134788465Y-116229071D01*
X134528919Y-116319099D01*
X134473919Y-116432828D01*
X134385797Y-116300944D01*
X134200057Y-116115204D01*
X134101673Y-116049466D01*
X134968070Y-116049466D01*
X135890000Y-116971396D01*
X136811930Y-116049466D01*
X136721902Y-115789920D01*
X136440384Y-115653777D01*
X136137714Y-115575172D01*
X135825526Y-115557124D01*
X135515815Y-115600329D01*
X135220484Y-115703124D01*
X135058098Y-115789920D01*
X134968070Y-116049466D01*
X134101673Y-116049466D01*
X133981649Y-115969269D01*
X133738968Y-115868747D01*
X133481338Y-115817501D01*
X133218662Y-115817501D01*
X132961032Y-115868747D01*
X132718351Y-115969269D01*
X132499943Y-116115204D01*
X132314203Y-116300944D01*
X132168268Y-116519352D01*
X132067746Y-116762033D01*
X132016500Y-117019663D01*
X120388943Y-117019663D01*
X120406766Y-116803143D01*
X120355443Y-116355775D01*
X120217830Y-115927015D01*
X120040167Y-115594632D01*
X119709147Y-115420458D01*
X118289605Y-116840000D01*
X117930395Y-116840000D01*
X116510853Y-115420458D01*
X116179833Y-115594632D01*
X115973961Y-115995118D01*
X115850176Y-116428072D01*
X115813234Y-116876857D01*
X112522000Y-116876857D01*
X112522000Y-116639865D01*
X112443911Y-116247287D01*
X112290735Y-115877487D01*
X112068357Y-115544675D01*
X111785325Y-115261643D01*
X111754211Y-115240853D01*
X116690458Y-115240853D01*
X118110000Y-116660395D01*
X119529542Y-115240853D01*
X119355368Y-114909833D01*
X118954882Y-114703961D01*
X118521928Y-114580176D01*
X118073143Y-114543234D01*
X117625775Y-114594557D01*
X117197015Y-114732170D01*
X116864632Y-114909833D01*
X116690458Y-115240853D01*
X111754211Y-115240853D01*
X111452513Y-115039265D01*
X111082713Y-114886089D01*
X110690135Y-114808000D01*
X110289865Y-114808000D01*
X109897287Y-114886089D01*
X109696774Y-114969144D01*
X108708666Y-113981036D01*
X149161500Y-113981036D01*
X149161500Y-114618964D01*
X149285953Y-115244636D01*
X149530078Y-115834005D01*
X149884493Y-116364424D01*
X150335576Y-116815507D01*
X150865995Y-117169922D01*
X151455364Y-117414047D01*
X152081036Y-117538500D01*
X152718964Y-117538500D01*
X153344636Y-117414047D01*
X153934005Y-117169922D01*
X154464424Y-116815507D01*
X154915507Y-116364424D01*
X155269922Y-115834005D01*
X155514047Y-115244636D01*
X155638500Y-114618964D01*
X155638500Y-113981036D01*
X155514047Y-113355364D01*
X155269922Y-112765995D01*
X154915507Y-112235576D01*
X154464424Y-111784493D01*
X153934005Y-111430078D01*
X153344636Y-111185953D01*
X152718964Y-111061500D01*
X152081036Y-111061500D01*
X151455364Y-111185953D01*
X150865995Y-111430078D01*
X150335576Y-111784493D01*
X149884493Y-112235576D01*
X149530078Y-112765995D01*
X149285953Y-113355364D01*
X149161500Y-113981036D01*
X108708666Y-113981036D01*
X107905684Y-113178054D01*
X107881822Y-113148978D01*
X107765792Y-113053755D01*
X107633415Y-112982998D01*
X107489778Y-112939426D01*
X107377826Y-112928400D01*
X107377823Y-112928400D01*
X107340400Y-112924714D01*
X107302977Y-112928400D01*
X93398343Y-112928400D01*
X93359699Y-112902579D01*
X93197912Y-112835564D01*
X93026159Y-112801400D01*
X92851041Y-112801400D01*
X92679288Y-112835564D01*
X92517501Y-112902579D01*
X92371896Y-112999869D01*
X92248069Y-113123696D01*
X92150779Y-113269301D01*
X92083764Y-113431088D01*
X92049600Y-113602841D01*
X89523273Y-113602841D01*
X89474047Y-113355364D01*
X89229922Y-112765995D01*
X88875507Y-112235576D01*
X88424424Y-111784493D01*
X87894005Y-111430078D01*
X87304636Y-111185953D01*
X86678964Y-111061500D01*
X86041036Y-111061500D01*
X85415364Y-111185953D01*
X84825995Y-111430078D01*
X84295576Y-111784493D01*
X83844493Y-112235576D01*
X83490078Y-112765995D01*
X83245953Y-113355364D01*
X83121500Y-113981036D01*
X81761000Y-113981036D01*
X81761000Y-107530000D01*
X82585928Y-107530000D01*
X82598188Y-107654482D01*
X82634498Y-107774180D01*
X82693463Y-107884494D01*
X82772815Y-107981185D01*
X82869506Y-108060537D01*
X82979820Y-108119502D01*
X83099518Y-108155812D01*
X83224000Y-108168072D01*
X83788250Y-108165000D01*
X83947000Y-108006250D01*
X83947000Y-106807000D01*
X84201000Y-106807000D01*
X84201000Y-108006250D01*
X84359750Y-108165000D01*
X84924000Y-108168072D01*
X85048482Y-108155812D01*
X85168180Y-108119502D01*
X85278494Y-108060537D01*
X85375185Y-107981185D01*
X85454537Y-107884494D01*
X85513502Y-107774180D01*
X85549812Y-107654482D01*
X85562072Y-107530000D01*
X85559000Y-106965750D01*
X85400250Y-106807000D01*
X84201000Y-106807000D01*
X83947000Y-106807000D01*
X82747750Y-106807000D01*
X82589000Y-106965750D01*
X82585928Y-107530000D01*
X81761000Y-107530000D01*
X81761000Y-105830000D01*
X82585928Y-105830000D01*
X82589000Y-106394250D01*
X82747750Y-106553000D01*
X83947000Y-106553000D01*
X83947000Y-106533000D01*
X84201000Y-106533000D01*
X84201000Y-106553000D01*
X85400250Y-106553000D01*
X85559000Y-106394250D01*
X85562072Y-105830000D01*
X85549812Y-105705518D01*
X85513502Y-105585820D01*
X85465412Y-105495850D01*
X124714000Y-105495850D01*
X124714000Y-105946152D01*
X124801850Y-106387803D01*
X124974173Y-106803828D01*
X125224348Y-107178241D01*
X125542760Y-107496653D01*
X125917173Y-107746828D01*
X126333198Y-107919151D01*
X126774849Y-108007001D01*
X127225151Y-108007001D01*
X127666802Y-107919151D01*
X128082827Y-107746828D01*
X128457240Y-107496653D01*
X128775652Y-107178241D01*
X129025827Y-106803828D01*
X129198150Y-106387803D01*
X129286000Y-105946152D01*
X129286000Y-105495850D01*
X129794000Y-105495850D01*
X129794000Y-105946152D01*
X129881850Y-106387803D01*
X130054173Y-106803828D01*
X130304348Y-107178241D01*
X130622760Y-107496653D01*
X130997173Y-107746828D01*
X131413198Y-107919151D01*
X131854849Y-108007001D01*
X132305151Y-108007001D01*
X132746802Y-107919151D01*
X133162827Y-107746828D01*
X133537240Y-107496653D01*
X133855652Y-107178241D01*
X134105827Y-106803828D01*
X134278150Y-106387803D01*
X134366000Y-105946152D01*
X134366000Y-105495850D01*
X134874000Y-105495850D01*
X134874000Y-105946152D01*
X134961850Y-106387803D01*
X135134173Y-106803828D01*
X135384348Y-107178241D01*
X135702760Y-107496653D01*
X136077173Y-107746828D01*
X136493198Y-107919151D01*
X136934849Y-108007001D01*
X137385151Y-108007001D01*
X137826802Y-107919151D01*
X138242827Y-107746828D01*
X138617240Y-107496653D01*
X138935652Y-107178241D01*
X139185827Y-106803828D01*
X139358150Y-106387803D01*
X139446000Y-105946152D01*
X139446000Y-105495850D01*
X139954000Y-105495850D01*
X139954000Y-105946152D01*
X140041850Y-106387803D01*
X140214173Y-106803828D01*
X140464348Y-107178241D01*
X140782760Y-107496653D01*
X141157173Y-107746828D01*
X141573198Y-107919151D01*
X142014849Y-108007001D01*
X142465151Y-108007001D01*
X142906802Y-107919151D01*
X143322827Y-107746828D01*
X143697240Y-107496653D01*
X144015652Y-107178241D01*
X144265827Y-106803828D01*
X144438150Y-106387803D01*
X144526000Y-105946152D01*
X144526000Y-105495850D01*
X144438150Y-105054199D01*
X144265827Y-104638174D01*
X144015652Y-104263761D01*
X143697240Y-103945349D01*
X143322827Y-103695174D01*
X142906802Y-103522851D01*
X142465151Y-103435001D01*
X142014849Y-103435001D01*
X141573198Y-103522851D01*
X141157173Y-103695174D01*
X140782760Y-103945349D01*
X140464348Y-104263761D01*
X140214173Y-104638174D01*
X140041850Y-105054199D01*
X139954000Y-105495850D01*
X139446000Y-105495850D01*
X139358150Y-105054199D01*
X139185827Y-104638174D01*
X138935652Y-104263761D01*
X138617240Y-103945349D01*
X138242827Y-103695174D01*
X137826802Y-103522851D01*
X137385151Y-103435001D01*
X136934849Y-103435001D01*
X136493198Y-103522851D01*
X136077173Y-103695174D01*
X135702760Y-103945349D01*
X135384348Y-104263761D01*
X135134173Y-104638174D01*
X134961850Y-105054199D01*
X134874000Y-105495850D01*
X134366000Y-105495850D01*
X134278150Y-105054199D01*
X134105827Y-104638174D01*
X133855652Y-104263761D01*
X133537240Y-103945349D01*
X133162827Y-103695174D01*
X132746802Y-103522851D01*
X132305151Y-103435001D01*
X131854849Y-103435001D01*
X131413198Y-103522851D01*
X130997173Y-103695174D01*
X130622760Y-103945349D01*
X130304348Y-104263761D01*
X130054173Y-104638174D01*
X129881850Y-105054199D01*
X129794000Y-105495850D01*
X129286000Y-105495850D01*
X129198150Y-105054199D01*
X129025827Y-104638174D01*
X128775652Y-104263761D01*
X128457240Y-103945349D01*
X128082827Y-103695174D01*
X127666802Y-103522851D01*
X127225151Y-103435001D01*
X126774849Y-103435001D01*
X126333198Y-103522851D01*
X125917173Y-103695174D01*
X125542760Y-103945349D01*
X125224348Y-104263761D01*
X124974173Y-104638174D01*
X124801850Y-105054199D01*
X124714000Y-105495850D01*
X85465412Y-105495850D01*
X85454537Y-105475506D01*
X85375185Y-105378815D01*
X85278494Y-105299463D01*
X85168180Y-105240498D01*
X85048482Y-105204188D01*
X84924000Y-105191928D01*
X84713706Y-105193073D01*
X84858717Y-105096180D01*
X85030180Y-104924717D01*
X85164898Y-104723097D01*
X85257693Y-104499069D01*
X85305000Y-104261243D01*
X85305000Y-104018757D01*
X85257693Y-103780931D01*
X85164898Y-103556903D01*
X85030180Y-103355283D01*
X84858717Y-103183820D01*
X84657097Y-103049102D01*
X84433069Y-102956307D01*
X84195243Y-102909000D01*
X83952757Y-102909000D01*
X83714931Y-102956307D01*
X83490903Y-103049102D01*
X83289283Y-103183820D01*
X83117820Y-103355283D01*
X82983102Y-103556903D01*
X82890307Y-103780931D01*
X82843000Y-104018757D01*
X82843000Y-104261243D01*
X82890307Y-104499069D01*
X82983102Y-104723097D01*
X83117820Y-104924717D01*
X83289283Y-105096180D01*
X83434294Y-105193073D01*
X83224000Y-105191928D01*
X83099518Y-105204188D01*
X82979820Y-105240498D01*
X82869506Y-105299463D01*
X82772815Y-105378815D01*
X82693463Y-105475506D01*
X82634498Y-105585820D01*
X82598188Y-105705518D01*
X82585928Y-105830000D01*
X81761000Y-105830000D01*
X81761000Y-101436241D01*
X95377000Y-101436241D01*
X95377000Y-101611359D01*
X95411164Y-101783112D01*
X95478179Y-101944899D01*
X95567500Y-102078578D01*
X95567501Y-103369092D01*
X95564122Y-103403400D01*
X95567501Y-103437708D01*
X95567501Y-103437709D01*
X95577608Y-103540330D01*
X95597579Y-103606164D01*
X95617549Y-103671998D01*
X95682409Y-103793343D01*
X95747826Y-103873053D01*
X95747830Y-103873057D01*
X95769698Y-103899703D01*
X95796343Y-103921570D01*
X96916233Y-105041462D01*
X96938097Y-105068103D01*
X96964737Y-105089966D01*
X96964745Y-105089974D01*
X97044456Y-105155391D01*
X97118560Y-105195000D01*
X97165803Y-105220252D01*
X97297470Y-105260193D01*
X97400091Y-105270300D01*
X97400101Y-105270300D01*
X97434399Y-105273678D01*
X97468697Y-105270300D01*
X102124502Y-105270300D01*
X102158800Y-105273678D01*
X102193098Y-105270300D01*
X102193109Y-105270300D01*
X102295730Y-105260193D01*
X102427397Y-105220252D01*
X102548743Y-105155391D01*
X102655103Y-105068103D01*
X102676975Y-105041452D01*
X106502227Y-101216202D01*
X106659912Y-101184836D01*
X106821699Y-101117821D01*
X106967304Y-101020531D01*
X107091131Y-100896704D01*
X107188421Y-100751099D01*
X107255436Y-100589312D01*
X107289600Y-100417559D01*
X107289600Y-100415850D01*
X122174000Y-100415850D01*
X122174000Y-100866152D01*
X122261850Y-101307803D01*
X122434173Y-101723828D01*
X122684348Y-102098241D01*
X123002760Y-102416653D01*
X123377173Y-102666828D01*
X123793198Y-102839151D01*
X124234849Y-102927001D01*
X124685151Y-102927001D01*
X125126802Y-102839151D01*
X125542827Y-102666828D01*
X125917240Y-102416653D01*
X126235652Y-102098241D01*
X126485827Y-101723828D01*
X126658150Y-101307803D01*
X126746000Y-100866152D01*
X126746000Y-100415850D01*
X127254000Y-100415850D01*
X127254000Y-100866152D01*
X127341850Y-101307803D01*
X127514173Y-101723828D01*
X127764348Y-102098241D01*
X128082760Y-102416653D01*
X128457173Y-102666828D01*
X128873198Y-102839151D01*
X129314849Y-102927001D01*
X129765151Y-102927001D01*
X130206802Y-102839151D01*
X130622827Y-102666828D01*
X130997240Y-102416653D01*
X131315652Y-102098241D01*
X131565827Y-101723828D01*
X131738150Y-101307803D01*
X131826000Y-100866152D01*
X131826000Y-100415850D01*
X132334000Y-100415850D01*
X132334000Y-100866152D01*
X132421850Y-101307803D01*
X132594173Y-101723828D01*
X132844348Y-102098241D01*
X133162760Y-102416653D01*
X133537173Y-102666828D01*
X133953198Y-102839151D01*
X134394849Y-102927001D01*
X134845151Y-102927001D01*
X135286802Y-102839151D01*
X135702827Y-102666828D01*
X136077240Y-102416653D01*
X136395652Y-102098241D01*
X136645827Y-101723828D01*
X136818150Y-101307803D01*
X136906000Y-100866152D01*
X136906000Y-100415850D01*
X137414000Y-100415850D01*
X137414000Y-100866152D01*
X137501850Y-101307803D01*
X137674173Y-101723828D01*
X137924348Y-102098241D01*
X138242760Y-102416653D01*
X138617173Y-102666828D01*
X139033198Y-102839151D01*
X139474849Y-102927001D01*
X139925151Y-102927001D01*
X140366802Y-102839151D01*
X140782827Y-102666828D01*
X141157240Y-102416653D01*
X141475652Y-102098241D01*
X141725827Y-101723828D01*
X141898150Y-101307803D01*
X141986000Y-100866152D01*
X141986000Y-100415850D01*
X142494000Y-100415850D01*
X142494000Y-100866152D01*
X142581850Y-101307803D01*
X142754173Y-101723828D01*
X143004348Y-102098241D01*
X143322760Y-102416653D01*
X143697173Y-102666828D01*
X144113198Y-102839151D01*
X144554849Y-102927001D01*
X145005151Y-102927001D01*
X145446802Y-102839151D01*
X145862827Y-102666828D01*
X146237240Y-102416653D01*
X146555652Y-102098241D01*
X146805827Y-101723828D01*
X146978150Y-101307803D01*
X147066000Y-100866152D01*
X147066000Y-100415850D01*
X146978150Y-99974199D01*
X146805827Y-99558174D01*
X146555652Y-99183761D01*
X146237240Y-98865349D01*
X145862827Y-98615174D01*
X145446802Y-98442851D01*
X145005151Y-98355001D01*
X144554849Y-98355001D01*
X144113198Y-98442851D01*
X143697173Y-98615174D01*
X143322760Y-98865349D01*
X143004348Y-99183761D01*
X142754173Y-99558174D01*
X142581850Y-99974199D01*
X142494000Y-100415850D01*
X141986000Y-100415850D01*
X141898150Y-99974199D01*
X141725827Y-99558174D01*
X141475652Y-99183761D01*
X141157240Y-98865349D01*
X140782827Y-98615174D01*
X140366802Y-98442851D01*
X139925151Y-98355001D01*
X139474849Y-98355001D01*
X139033198Y-98442851D01*
X138617173Y-98615174D01*
X138242760Y-98865349D01*
X137924348Y-99183761D01*
X137674173Y-99558174D01*
X137501850Y-99974199D01*
X137414000Y-100415850D01*
X136906000Y-100415850D01*
X136818150Y-99974199D01*
X136645827Y-99558174D01*
X136395652Y-99183761D01*
X136077240Y-98865349D01*
X135702827Y-98615174D01*
X135286802Y-98442851D01*
X134845151Y-98355001D01*
X134394849Y-98355001D01*
X133953198Y-98442851D01*
X133537173Y-98615174D01*
X133162760Y-98865349D01*
X132844348Y-99183761D01*
X132594173Y-99558174D01*
X132421850Y-99974199D01*
X132334000Y-100415850D01*
X131826000Y-100415850D01*
X131738150Y-99974199D01*
X131565827Y-99558174D01*
X131315652Y-99183761D01*
X130997240Y-98865349D01*
X130622827Y-98615174D01*
X130206802Y-98442851D01*
X129765151Y-98355001D01*
X129314849Y-98355001D01*
X128873198Y-98442851D01*
X128457173Y-98615174D01*
X128082760Y-98865349D01*
X127764348Y-99183761D01*
X127514173Y-99558174D01*
X127341850Y-99974199D01*
X127254000Y-100415850D01*
X126746000Y-100415850D01*
X126658150Y-99974199D01*
X126485827Y-99558174D01*
X126235652Y-99183761D01*
X125917240Y-98865349D01*
X125542827Y-98615174D01*
X125126802Y-98442851D01*
X124685151Y-98355001D01*
X124234849Y-98355001D01*
X123793198Y-98442851D01*
X123377173Y-98615174D01*
X123002760Y-98865349D01*
X122684348Y-99183761D01*
X122434173Y-99558174D01*
X122261850Y-99974199D01*
X122174000Y-100415850D01*
X107289600Y-100415850D01*
X107289600Y-100242441D01*
X107255436Y-100070688D01*
X107188421Y-99908901D01*
X107091131Y-99763296D01*
X106967304Y-99639469D01*
X106821699Y-99542179D01*
X106659912Y-99475164D01*
X106488159Y-99441000D01*
X106313041Y-99441000D01*
X106141288Y-99475164D01*
X105979501Y-99542179D01*
X105833896Y-99639469D01*
X105710069Y-99763296D01*
X105612779Y-99908901D01*
X105545764Y-100070688D01*
X105514398Y-100228373D01*
X101869473Y-103873300D01*
X97723729Y-103873300D01*
X97527503Y-103677074D01*
X97581488Y-103699436D01*
X97753241Y-103733600D01*
X97928359Y-103733600D01*
X98100112Y-103699436D01*
X98261899Y-103632421D01*
X98395578Y-103543100D01*
X99051102Y-103543100D01*
X99085400Y-103546478D01*
X99119698Y-103543100D01*
X99119709Y-103543100D01*
X99222330Y-103532993D01*
X99353997Y-103493052D01*
X99475343Y-103428191D01*
X99581703Y-103340903D01*
X99603575Y-103314252D01*
X104749627Y-98168202D01*
X104907312Y-98136836D01*
X105069099Y-98069821D01*
X105214704Y-97972531D01*
X105338531Y-97848704D01*
X105435821Y-97703099D01*
X105502836Y-97541312D01*
X105537000Y-97369559D01*
X105537000Y-97194441D01*
X105502836Y-97022688D01*
X105435821Y-96860901D01*
X105338531Y-96715296D01*
X105214704Y-96591469D01*
X105069099Y-96494179D01*
X104907312Y-96427164D01*
X104735559Y-96393000D01*
X104560441Y-96393000D01*
X104388688Y-96427164D01*
X104226901Y-96494179D01*
X104081296Y-96591469D01*
X103957469Y-96715296D01*
X103860179Y-96860901D01*
X103793164Y-97022688D01*
X103761798Y-97180373D01*
X98796073Y-102146100D01*
X98395578Y-102146100D01*
X98261899Y-102056779D01*
X98100112Y-101989764D01*
X97928359Y-101955600D01*
X97753241Y-101955600D01*
X97581488Y-101989764D01*
X97419701Y-102056779D01*
X97274096Y-102154069D01*
X97150269Y-102277896D01*
X97052979Y-102423501D01*
X96985964Y-102585288D01*
X96964500Y-102693194D01*
X96964500Y-102078578D01*
X97053821Y-101944899D01*
X97120836Y-101783112D01*
X97155000Y-101611359D01*
X97155000Y-101436241D01*
X97120836Y-101264488D01*
X97053821Y-101102701D01*
X96956531Y-100957096D01*
X96832704Y-100833269D01*
X96687099Y-100735979D01*
X96525312Y-100668964D01*
X96353559Y-100634800D01*
X96178441Y-100634800D01*
X96006688Y-100668964D01*
X95844901Y-100735979D01*
X95699296Y-100833269D01*
X95575469Y-100957096D01*
X95478179Y-101102701D01*
X95411164Y-101264488D01*
X95377000Y-101436241D01*
X81761000Y-101436241D01*
X81761000Y-95773606D01*
X90109400Y-95773606D01*
X90109400Y-95996394D01*
X90152864Y-96214900D01*
X90238121Y-96420729D01*
X90361895Y-96605970D01*
X90519430Y-96763505D01*
X90704671Y-96887279D01*
X90910500Y-96972536D01*
X91129006Y-97016000D01*
X91351794Y-97016000D01*
X91570300Y-96972536D01*
X91776129Y-96887279D01*
X91961370Y-96763505D01*
X92118905Y-96605970D01*
X92242679Y-96420729D01*
X92327936Y-96214900D01*
X92371400Y-95996394D01*
X92371400Y-95773606D01*
X93509400Y-95773606D01*
X93509400Y-95996394D01*
X93552864Y-96214900D01*
X93638121Y-96420729D01*
X93761895Y-96605970D01*
X93919430Y-96763505D01*
X94104671Y-96887279D01*
X94310500Y-96972536D01*
X94529006Y-97016000D01*
X94751794Y-97016000D01*
X94970300Y-96972536D01*
X95176129Y-96887279D01*
X95361370Y-96763505D01*
X95518905Y-96605970D01*
X95642679Y-96420729D01*
X95727936Y-96214900D01*
X95771400Y-95996394D01*
X95771400Y-95773606D01*
X95727936Y-95555100D01*
X95642679Y-95349271D01*
X95633712Y-95335850D01*
X122174000Y-95335850D01*
X122174000Y-95786152D01*
X122261850Y-96227803D01*
X122434173Y-96643828D01*
X122684348Y-97018241D01*
X123002760Y-97336653D01*
X123377173Y-97586828D01*
X123793198Y-97759151D01*
X124234849Y-97847001D01*
X124685151Y-97847001D01*
X125126802Y-97759151D01*
X125542827Y-97586828D01*
X125917240Y-97336653D01*
X126235652Y-97018241D01*
X126485827Y-96643828D01*
X126658150Y-96227803D01*
X126746000Y-95786152D01*
X126746000Y-95335850D01*
X127254000Y-95335850D01*
X127254000Y-95786152D01*
X127341850Y-96227803D01*
X127514173Y-96643828D01*
X127764348Y-97018241D01*
X128082760Y-97336653D01*
X128457173Y-97586828D01*
X128873198Y-97759151D01*
X129314849Y-97847001D01*
X129765151Y-97847001D01*
X130206802Y-97759151D01*
X130622827Y-97586828D01*
X130997240Y-97336653D01*
X131315652Y-97018241D01*
X131565827Y-96643828D01*
X131738150Y-96227803D01*
X131826000Y-95786152D01*
X131826000Y-95335850D01*
X132334000Y-95335850D01*
X132334000Y-95786152D01*
X132421850Y-96227803D01*
X132594173Y-96643828D01*
X132844348Y-97018241D01*
X133162760Y-97336653D01*
X133537173Y-97586828D01*
X133953198Y-97759151D01*
X134394849Y-97847001D01*
X134845151Y-97847001D01*
X135286802Y-97759151D01*
X135702827Y-97586828D01*
X136077240Y-97336653D01*
X136395652Y-97018241D01*
X136645827Y-96643828D01*
X136818150Y-96227803D01*
X136906000Y-95786152D01*
X136906000Y-95335850D01*
X137414000Y-95335850D01*
X137414000Y-95786152D01*
X137501850Y-96227803D01*
X137674173Y-96643828D01*
X137924348Y-97018241D01*
X138242760Y-97336653D01*
X138617173Y-97586828D01*
X139033198Y-97759151D01*
X139474849Y-97847001D01*
X139925151Y-97847001D01*
X140366802Y-97759151D01*
X140782827Y-97586828D01*
X141157240Y-97336653D01*
X141475652Y-97018241D01*
X141725827Y-96643828D01*
X141898150Y-96227803D01*
X141986000Y-95786152D01*
X141986000Y-95335850D01*
X142494000Y-95335850D01*
X142494000Y-95786152D01*
X142581850Y-96227803D01*
X142754173Y-96643828D01*
X143004348Y-97018241D01*
X143322760Y-97336653D01*
X143697173Y-97586828D01*
X144113198Y-97759151D01*
X144554849Y-97847001D01*
X145005151Y-97847001D01*
X145446802Y-97759151D01*
X145862827Y-97586828D01*
X146237240Y-97336653D01*
X146555652Y-97018241D01*
X146805827Y-96643828D01*
X146978150Y-96227803D01*
X147066000Y-95786152D01*
X147066000Y-95335850D01*
X146978150Y-94894199D01*
X146805827Y-94478174D01*
X146555652Y-94103761D01*
X146237240Y-93785349D01*
X145862827Y-93535174D01*
X145446802Y-93362851D01*
X145005151Y-93275001D01*
X144554849Y-93275001D01*
X144113198Y-93362851D01*
X143697173Y-93535174D01*
X143322760Y-93785349D01*
X143004348Y-94103761D01*
X142754173Y-94478174D01*
X142581850Y-94894199D01*
X142494000Y-95335850D01*
X141986000Y-95335850D01*
X141898150Y-94894199D01*
X141725827Y-94478174D01*
X141475652Y-94103761D01*
X141157240Y-93785349D01*
X140782827Y-93535174D01*
X140366802Y-93362851D01*
X139925151Y-93275001D01*
X139474849Y-93275001D01*
X139033198Y-93362851D01*
X138617173Y-93535174D01*
X138242760Y-93785349D01*
X137924348Y-94103761D01*
X137674173Y-94478174D01*
X137501850Y-94894199D01*
X137414000Y-95335850D01*
X136906000Y-95335850D01*
X136818150Y-94894199D01*
X136645827Y-94478174D01*
X136395652Y-94103761D01*
X136077240Y-93785349D01*
X135702827Y-93535174D01*
X135286802Y-93362851D01*
X134845151Y-93275001D01*
X134394849Y-93275001D01*
X133953198Y-93362851D01*
X133537173Y-93535174D01*
X133162760Y-93785349D01*
X132844348Y-94103761D01*
X132594173Y-94478174D01*
X132421850Y-94894199D01*
X132334000Y-95335850D01*
X131826000Y-95335850D01*
X131738150Y-94894199D01*
X131565827Y-94478174D01*
X131315652Y-94103761D01*
X130997240Y-93785349D01*
X130622827Y-93535174D01*
X130206802Y-93362851D01*
X129765151Y-93275001D01*
X129314849Y-93275001D01*
X128873198Y-93362851D01*
X128457173Y-93535174D01*
X128082760Y-93785349D01*
X127764348Y-94103761D01*
X127514173Y-94478174D01*
X127341850Y-94894199D01*
X127254000Y-95335850D01*
X126746000Y-95335850D01*
X126658150Y-94894199D01*
X126485827Y-94478174D01*
X126235652Y-94103761D01*
X125917240Y-93785349D01*
X125542827Y-93535174D01*
X125126802Y-93362851D01*
X124685151Y-93275001D01*
X124234849Y-93275001D01*
X123793198Y-93362851D01*
X123377173Y-93535174D01*
X123002760Y-93785349D01*
X122684348Y-94103761D01*
X122434173Y-94478174D01*
X122261850Y-94894199D01*
X122174000Y-95335850D01*
X95633712Y-95335850D01*
X95518905Y-95164030D01*
X95361370Y-95006495D01*
X95176129Y-94882721D01*
X94970300Y-94797464D01*
X94751794Y-94754000D01*
X94529006Y-94754000D01*
X94310500Y-94797464D01*
X94104671Y-94882721D01*
X93919430Y-95006495D01*
X93761895Y-95164030D01*
X93638121Y-95349271D01*
X93552864Y-95555100D01*
X93509400Y-95773606D01*
X92371400Y-95773606D01*
X92327936Y-95555100D01*
X92242679Y-95349271D01*
X92118905Y-95164030D01*
X91961370Y-95006495D01*
X91776129Y-94882721D01*
X91570300Y-94797464D01*
X91351794Y-94754000D01*
X91129006Y-94754000D01*
X90910500Y-94797464D01*
X90704671Y-94882721D01*
X90519430Y-95006495D01*
X90361895Y-95164030D01*
X90238121Y-95349271D01*
X90152864Y-95555100D01*
X90109400Y-95773606D01*
X81761000Y-95773606D01*
X81761000Y-85460408D01*
X82677000Y-85460408D01*
X82677000Y-85735592D01*
X82730686Y-86005490D01*
X82835995Y-86259727D01*
X82988880Y-86488535D01*
X83183465Y-86683120D01*
X83412273Y-86836005D01*
X83542737Y-86890045D01*
X83426338Y-86967821D01*
X83284821Y-87109338D01*
X83173632Y-87275744D01*
X83097044Y-87460644D01*
X83058000Y-87656933D01*
X83058000Y-87857067D01*
X83097044Y-88053356D01*
X83173632Y-88238256D01*
X83284821Y-88404662D01*
X83426338Y-88546179D01*
X83592744Y-88657368D01*
X83777644Y-88733956D01*
X83973933Y-88773000D01*
X83777644Y-88812044D01*
X83592744Y-88888632D01*
X83426338Y-88999821D01*
X83284821Y-89141338D01*
X83173632Y-89307744D01*
X83097044Y-89492644D01*
X83058000Y-89688933D01*
X83058000Y-89889067D01*
X83097044Y-90085356D01*
X83173632Y-90270256D01*
X83284821Y-90436662D01*
X83426338Y-90578179D01*
X83592744Y-90689368D01*
X83777644Y-90765956D01*
X83973933Y-90805000D01*
X83777644Y-90844044D01*
X83592744Y-90920632D01*
X83426338Y-91031821D01*
X83284821Y-91173338D01*
X83173632Y-91339744D01*
X83097044Y-91524644D01*
X83058000Y-91720933D01*
X83058000Y-91921067D01*
X83097044Y-92117356D01*
X83173632Y-92302256D01*
X83284821Y-92468662D01*
X83426338Y-92610179D01*
X83542737Y-92687955D01*
X83412273Y-92741995D01*
X83183465Y-92894880D01*
X82988880Y-93089465D01*
X82835995Y-93318273D01*
X82730686Y-93572510D01*
X82677000Y-93842408D01*
X82677000Y-94117592D01*
X82730686Y-94387490D01*
X82835995Y-94641727D01*
X82988880Y-94870535D01*
X83183465Y-95065120D01*
X83412273Y-95218005D01*
X83666510Y-95323314D01*
X83936408Y-95377000D01*
X84211592Y-95377000D01*
X84481490Y-95323314D01*
X84735727Y-95218005D01*
X84964535Y-95065120D01*
X85159120Y-94870535D01*
X85312005Y-94641727D01*
X85417314Y-94387490D01*
X85471000Y-94117592D01*
X85471000Y-93842408D01*
X85417314Y-93572510D01*
X85312005Y-93318273D01*
X85159120Y-93089465D01*
X84964535Y-92894880D01*
X84735727Y-92741995D01*
X84605263Y-92687955D01*
X84721662Y-92610179D01*
X84863179Y-92468662D01*
X84974368Y-92302256D01*
X85050956Y-92117356D01*
X85090000Y-91921067D01*
X85090000Y-91720933D01*
X85050956Y-91524644D01*
X84974368Y-91339744D01*
X84863179Y-91173338D01*
X84721662Y-91031821D01*
X84555256Y-90920632D01*
X84370356Y-90844044D01*
X84174067Y-90805000D01*
X84370356Y-90765956D01*
X84555256Y-90689368D01*
X84721662Y-90578179D01*
X84863179Y-90436662D01*
X84974368Y-90270256D01*
X85050956Y-90085356D01*
X85090000Y-89889067D01*
X85090000Y-89688933D01*
X85050956Y-89492644D01*
X84974368Y-89307744D01*
X84863179Y-89141338D01*
X84721662Y-88999821D01*
X84555256Y-88888632D01*
X84370356Y-88812044D01*
X84174067Y-88773000D01*
X84370356Y-88733956D01*
X84548802Y-88660041D01*
X86995000Y-88660041D01*
X86995000Y-88835159D01*
X87029164Y-89006912D01*
X87096179Y-89168699D01*
X87122000Y-89207343D01*
X87122001Y-91031056D01*
X87096179Y-91069701D01*
X87029164Y-91231488D01*
X86995000Y-91403241D01*
X86995000Y-91578359D01*
X87029164Y-91750112D01*
X87096179Y-91911899D01*
X87193469Y-92057504D01*
X87317296Y-92181331D01*
X87462901Y-92278621D01*
X87624688Y-92345636D01*
X87796441Y-92379800D01*
X87971559Y-92379800D01*
X88143312Y-92345636D01*
X88305099Y-92278621D01*
X88450704Y-92181331D01*
X88574531Y-92057504D01*
X88671821Y-91911899D01*
X88738836Y-91750112D01*
X88773000Y-91578359D01*
X88773000Y-91403241D01*
X88738836Y-91231488D01*
X88671821Y-91069701D01*
X88646000Y-91031057D01*
X88646000Y-90255850D01*
X122174000Y-90255850D01*
X122174000Y-90706152D01*
X122261850Y-91147803D01*
X122434173Y-91563828D01*
X122684348Y-91938241D01*
X123002760Y-92256653D01*
X123377173Y-92506828D01*
X123793198Y-92679151D01*
X124234849Y-92767001D01*
X124685151Y-92767001D01*
X125126802Y-92679151D01*
X125542827Y-92506828D01*
X125917240Y-92256653D01*
X126235652Y-91938241D01*
X126485827Y-91563828D01*
X126658150Y-91147803D01*
X126746000Y-90706152D01*
X126746000Y-90255850D01*
X127254000Y-90255850D01*
X127254000Y-90706152D01*
X127341850Y-91147803D01*
X127514173Y-91563828D01*
X127764348Y-91938241D01*
X128082760Y-92256653D01*
X128457173Y-92506828D01*
X128873198Y-92679151D01*
X129314849Y-92767001D01*
X129765151Y-92767001D01*
X130206802Y-92679151D01*
X130622827Y-92506828D01*
X130997240Y-92256653D01*
X131315652Y-91938241D01*
X131565827Y-91563828D01*
X131738150Y-91147803D01*
X131826000Y-90706152D01*
X131826000Y-90255850D01*
X132334000Y-90255850D01*
X132334000Y-90706152D01*
X132421850Y-91147803D01*
X132594173Y-91563828D01*
X132844348Y-91938241D01*
X133162760Y-92256653D01*
X133537173Y-92506828D01*
X133953198Y-92679151D01*
X134394849Y-92767001D01*
X134845151Y-92767001D01*
X135286802Y-92679151D01*
X135702827Y-92506828D01*
X136077240Y-92256653D01*
X136395652Y-91938241D01*
X136645827Y-91563828D01*
X136818150Y-91147803D01*
X136906000Y-90706152D01*
X136906000Y-90255850D01*
X137414000Y-90255850D01*
X137414000Y-90706152D01*
X137501850Y-91147803D01*
X137674173Y-91563828D01*
X137924348Y-91938241D01*
X138242760Y-92256653D01*
X138617173Y-92506828D01*
X139033198Y-92679151D01*
X139474849Y-92767001D01*
X139925151Y-92767001D01*
X140366802Y-92679151D01*
X140782827Y-92506828D01*
X141157240Y-92256653D01*
X141475652Y-91938241D01*
X141725827Y-91563828D01*
X141898150Y-91147803D01*
X141986000Y-90706152D01*
X141986000Y-90255850D01*
X142494000Y-90255850D01*
X142494000Y-90706152D01*
X142581850Y-91147803D01*
X142754173Y-91563828D01*
X143004348Y-91938241D01*
X143322760Y-92256653D01*
X143697173Y-92506828D01*
X144113198Y-92679151D01*
X144554849Y-92767001D01*
X145005151Y-92767001D01*
X145446802Y-92679151D01*
X145862827Y-92506828D01*
X146237240Y-92256653D01*
X146555652Y-91938241D01*
X146805827Y-91563828D01*
X146978150Y-91147803D01*
X147066000Y-90706152D01*
X147066000Y-90255850D01*
X146978150Y-89814199D01*
X146805827Y-89398174D01*
X146555652Y-89023761D01*
X146237240Y-88705349D01*
X145862827Y-88455174D01*
X145446802Y-88282851D01*
X145005151Y-88195001D01*
X144554849Y-88195001D01*
X144113198Y-88282851D01*
X143697173Y-88455174D01*
X143322760Y-88705349D01*
X143004348Y-89023761D01*
X142754173Y-89398174D01*
X142581850Y-89814199D01*
X142494000Y-90255850D01*
X141986000Y-90255850D01*
X141898150Y-89814199D01*
X141725827Y-89398174D01*
X141475652Y-89023761D01*
X141157240Y-88705349D01*
X140782827Y-88455174D01*
X140366802Y-88282851D01*
X139925151Y-88195001D01*
X139474849Y-88195001D01*
X139033198Y-88282851D01*
X138617173Y-88455174D01*
X138242760Y-88705349D01*
X137924348Y-89023761D01*
X137674173Y-89398174D01*
X137501850Y-89814199D01*
X137414000Y-90255850D01*
X136906000Y-90255850D01*
X136818150Y-89814199D01*
X136645827Y-89398174D01*
X136395652Y-89023761D01*
X136077240Y-88705349D01*
X135702827Y-88455174D01*
X135286802Y-88282851D01*
X134845151Y-88195001D01*
X134394849Y-88195001D01*
X133953198Y-88282851D01*
X133537173Y-88455174D01*
X133162760Y-88705349D01*
X132844348Y-89023761D01*
X132594173Y-89398174D01*
X132421850Y-89814199D01*
X132334000Y-90255850D01*
X131826000Y-90255850D01*
X131738150Y-89814199D01*
X131565827Y-89398174D01*
X131315652Y-89023761D01*
X130997240Y-88705349D01*
X130622827Y-88455174D01*
X130206802Y-88282851D01*
X129765151Y-88195001D01*
X129314849Y-88195001D01*
X128873198Y-88282851D01*
X128457173Y-88455174D01*
X128082760Y-88705349D01*
X127764348Y-89023761D01*
X127514173Y-89398174D01*
X127341850Y-89814199D01*
X127254000Y-90255850D01*
X126746000Y-90255850D01*
X126658150Y-89814199D01*
X126485827Y-89398174D01*
X126235652Y-89023761D01*
X125917240Y-88705349D01*
X125542827Y-88455174D01*
X125126802Y-88282851D01*
X124685151Y-88195001D01*
X124234849Y-88195001D01*
X123793198Y-88282851D01*
X123377173Y-88455174D01*
X123002760Y-88705349D01*
X122684348Y-89023761D01*
X122434173Y-89398174D01*
X122261850Y-89814199D01*
X122174000Y-90255850D01*
X88646000Y-90255850D01*
X88646000Y-89207343D01*
X88671821Y-89168699D01*
X88738836Y-89006912D01*
X88773000Y-88835159D01*
X88773000Y-88660041D01*
X88738836Y-88488288D01*
X88671821Y-88326501D01*
X88574531Y-88180896D01*
X88450704Y-88057069D01*
X88305099Y-87959779D01*
X88143312Y-87892764D01*
X87971559Y-87858600D01*
X87796441Y-87858600D01*
X87624688Y-87892764D01*
X87462901Y-87959779D01*
X87317296Y-88057069D01*
X87193469Y-88180896D01*
X87096179Y-88326501D01*
X87029164Y-88488288D01*
X86995000Y-88660041D01*
X84548802Y-88660041D01*
X84555256Y-88657368D01*
X84721662Y-88546179D01*
X84863179Y-88404662D01*
X84974368Y-88238256D01*
X85050956Y-88053356D01*
X85090000Y-87857067D01*
X85090000Y-87656933D01*
X85050956Y-87460644D01*
X84974368Y-87275744D01*
X84863179Y-87109338D01*
X84721662Y-86967821D01*
X84605263Y-86890045D01*
X84735727Y-86836005D01*
X84964535Y-86683120D01*
X85159120Y-86488535D01*
X85312005Y-86259727D01*
X85417314Y-86005490D01*
X85471000Y-85735592D01*
X85471000Y-85460408D01*
X85417314Y-85190510D01*
X85411242Y-85175850D01*
X124714000Y-85175850D01*
X124714000Y-85626152D01*
X124801850Y-86067803D01*
X124974173Y-86483828D01*
X125224348Y-86858241D01*
X125542760Y-87176653D01*
X125917173Y-87426828D01*
X126333198Y-87599151D01*
X126774849Y-87687001D01*
X127225151Y-87687001D01*
X127666802Y-87599151D01*
X128082827Y-87426828D01*
X128457240Y-87176653D01*
X128775652Y-86858241D01*
X129025827Y-86483828D01*
X129198150Y-86067803D01*
X129286000Y-85626152D01*
X129286000Y-85175850D01*
X129794000Y-85175850D01*
X129794000Y-85626152D01*
X129881850Y-86067803D01*
X130054173Y-86483828D01*
X130304348Y-86858241D01*
X130622760Y-87176653D01*
X130997173Y-87426828D01*
X131413198Y-87599151D01*
X131854849Y-87687001D01*
X132305151Y-87687001D01*
X132746802Y-87599151D01*
X133162827Y-87426828D01*
X133537240Y-87176653D01*
X133855652Y-86858241D01*
X134105827Y-86483828D01*
X134278150Y-86067803D01*
X134366000Y-85626152D01*
X134366000Y-85175850D01*
X134874000Y-85175850D01*
X134874000Y-85626152D01*
X134961850Y-86067803D01*
X135134173Y-86483828D01*
X135384348Y-86858241D01*
X135702760Y-87176653D01*
X136077173Y-87426828D01*
X136493198Y-87599151D01*
X136934849Y-87687001D01*
X137385151Y-87687001D01*
X137826802Y-87599151D01*
X138242827Y-87426828D01*
X138617240Y-87176653D01*
X138935652Y-86858241D01*
X139185827Y-86483828D01*
X139358150Y-86067803D01*
X139446000Y-85626152D01*
X139446000Y-85175850D01*
X139954000Y-85175850D01*
X139954000Y-85626152D01*
X140041850Y-86067803D01*
X140214173Y-86483828D01*
X140464348Y-86858241D01*
X140782760Y-87176653D01*
X141157173Y-87426828D01*
X141573198Y-87599151D01*
X142014849Y-87687001D01*
X142465151Y-87687001D01*
X142906802Y-87599151D01*
X143322827Y-87426828D01*
X143697240Y-87176653D01*
X144015652Y-86858241D01*
X144265827Y-86483828D01*
X144438150Y-86067803D01*
X144526000Y-85626152D01*
X144526000Y-85175850D01*
X144438150Y-84734199D01*
X144265827Y-84318174D01*
X144015652Y-83943761D01*
X143697240Y-83625349D01*
X143322827Y-83375174D01*
X142906802Y-83202851D01*
X142465151Y-83115001D01*
X142014849Y-83115001D01*
X141573198Y-83202851D01*
X141157173Y-83375174D01*
X140782760Y-83625349D01*
X140464348Y-83943761D01*
X140214173Y-84318174D01*
X140041850Y-84734199D01*
X139954000Y-85175850D01*
X139446000Y-85175850D01*
X139358150Y-84734199D01*
X139185827Y-84318174D01*
X138935652Y-83943761D01*
X138617240Y-83625349D01*
X138242827Y-83375174D01*
X137826802Y-83202851D01*
X137385151Y-83115001D01*
X136934849Y-83115001D01*
X136493198Y-83202851D01*
X136077173Y-83375174D01*
X135702760Y-83625349D01*
X135384348Y-83943761D01*
X135134173Y-84318174D01*
X134961850Y-84734199D01*
X134874000Y-85175850D01*
X134366000Y-85175850D01*
X134278150Y-84734199D01*
X134105827Y-84318174D01*
X133855652Y-83943761D01*
X133537240Y-83625349D01*
X133162827Y-83375174D01*
X132746802Y-83202851D01*
X132305151Y-83115001D01*
X131854849Y-83115001D01*
X131413198Y-83202851D01*
X130997173Y-83375174D01*
X130622760Y-83625349D01*
X130304348Y-83943761D01*
X130054173Y-84318174D01*
X129881850Y-84734199D01*
X129794000Y-85175850D01*
X129286000Y-85175850D01*
X129198150Y-84734199D01*
X129025827Y-84318174D01*
X128775652Y-83943761D01*
X128457240Y-83625349D01*
X128082827Y-83375174D01*
X127666802Y-83202851D01*
X127225151Y-83115001D01*
X126774849Y-83115001D01*
X126333198Y-83202851D01*
X125917173Y-83375174D01*
X125542760Y-83625349D01*
X125224348Y-83943761D01*
X124974173Y-84318174D01*
X124801850Y-84734199D01*
X124714000Y-85175850D01*
X85411242Y-85175850D01*
X85312005Y-84936273D01*
X85159120Y-84707465D01*
X84964535Y-84512880D01*
X84735727Y-84359995D01*
X84481490Y-84254686D01*
X84211592Y-84201000D01*
X83936408Y-84201000D01*
X83666510Y-84254686D01*
X83412273Y-84359995D01*
X83183465Y-84512880D01*
X82988880Y-84707465D01*
X82835995Y-84936273D01*
X82730686Y-85190510D01*
X82677000Y-85460408D01*
X81761000Y-85460408D01*
X81761000Y-82208441D01*
X95046800Y-82208441D01*
X95046800Y-82383559D01*
X95080964Y-82555312D01*
X95147979Y-82717099D01*
X95245269Y-82862704D01*
X95369096Y-82986531D01*
X95514701Y-83083821D01*
X95676488Y-83150836D01*
X95848241Y-83185000D01*
X96023359Y-83185000D01*
X96195112Y-83150836D01*
X96356899Y-83083821D01*
X96502504Y-82986531D01*
X96608835Y-82880200D01*
X98034976Y-82880200D01*
X98679000Y-83524225D01*
X98679000Y-83602759D01*
X98713164Y-83774512D01*
X98780179Y-83936299D01*
X98877469Y-84081904D01*
X99001296Y-84205731D01*
X99146901Y-84303021D01*
X99308688Y-84370036D01*
X99480441Y-84404200D01*
X99655559Y-84404200D01*
X99827312Y-84370036D01*
X99989099Y-84303021D01*
X100134704Y-84205731D01*
X100258531Y-84081904D01*
X100355821Y-83936299D01*
X100422836Y-83774512D01*
X100457000Y-83602759D01*
X100457000Y-83427641D01*
X100422836Y-83255888D01*
X100355821Y-83094101D01*
X100258531Y-82948496D01*
X100134704Y-82824669D01*
X99989099Y-82727379D01*
X99827312Y-82660364D01*
X99655559Y-82626200D01*
X99577025Y-82626200D01*
X98769074Y-81818250D01*
X98749185Y-81794015D01*
X98652494Y-81714663D01*
X98542180Y-81655698D01*
X98422482Y-81619388D01*
X98329192Y-81610200D01*
X98329181Y-81610200D01*
X98298000Y-81607129D01*
X98266819Y-81610200D01*
X96507235Y-81610200D01*
X96502504Y-81605469D01*
X96356899Y-81508179D01*
X96195112Y-81441164D01*
X96023359Y-81407000D01*
X95848241Y-81407000D01*
X95676488Y-81441164D01*
X95514701Y-81508179D01*
X95369096Y-81605469D01*
X95245269Y-81729296D01*
X95147979Y-81874901D01*
X95080964Y-82036688D01*
X95046800Y-82208441D01*
X81761000Y-82208441D01*
X81761000Y-79541441D01*
X97029308Y-79541441D01*
X97029308Y-79716559D01*
X97063472Y-79888312D01*
X97130487Y-80050099D01*
X97227777Y-80195704D01*
X97351604Y-80319531D01*
X97497209Y-80416821D01*
X97658996Y-80483836D01*
X97830749Y-80518000D01*
X98005867Y-80518000D01*
X98177620Y-80483836D01*
X98339407Y-80416821D01*
X98485012Y-80319531D01*
X98540543Y-80264000D01*
X98593780Y-80264000D01*
X102108000Y-83778221D01*
X102108000Y-83856755D01*
X102142164Y-84028508D01*
X102209179Y-84190295D01*
X102306469Y-84335900D01*
X102430296Y-84459727D01*
X102575901Y-84557017D01*
X102737688Y-84624032D01*
X102909441Y-84658196D01*
X103084559Y-84658196D01*
X103256312Y-84624032D01*
X103418099Y-84557017D01*
X103563704Y-84459727D01*
X103687531Y-84335900D01*
X103784821Y-84190295D01*
X103851836Y-84028508D01*
X103886000Y-83856755D01*
X103886000Y-83681637D01*
X103851836Y-83509884D01*
X103784821Y-83348097D01*
X103687531Y-83202492D01*
X103563704Y-83078665D01*
X103418099Y-82981375D01*
X103256312Y-82914360D01*
X103084559Y-82880196D01*
X103006025Y-82880196D01*
X99327878Y-79202050D01*
X99307989Y-79177815D01*
X99211298Y-79098463D01*
X99100984Y-79039498D01*
X98981286Y-79003188D01*
X98887996Y-78994000D01*
X98887985Y-78994000D01*
X98856804Y-78990929D01*
X98825623Y-78994000D01*
X98540543Y-78994000D01*
X98485012Y-78938469D01*
X98339407Y-78841179D01*
X98177620Y-78774164D01*
X98005867Y-78740000D01*
X97830749Y-78740000D01*
X97658996Y-78774164D01*
X97497209Y-78841179D01*
X97351604Y-78938469D01*
X97227777Y-79062296D01*
X97130487Y-79207901D01*
X97063472Y-79369688D01*
X97029308Y-79541441D01*
X81761000Y-79541441D01*
X81761000Y-75881036D01*
X83121500Y-75881036D01*
X83121500Y-76518964D01*
X83245953Y-77144636D01*
X83490078Y-77734005D01*
X83844493Y-78264424D01*
X84295576Y-78715507D01*
X84825995Y-79069922D01*
X85415364Y-79314047D01*
X86041036Y-79438500D01*
X86678964Y-79438500D01*
X87304636Y-79314047D01*
X87894005Y-79069922D01*
X88424424Y-78715507D01*
X88875507Y-78264424D01*
X89229922Y-77734005D01*
X89474047Y-77144636D01*
X89517687Y-76925241D01*
X103759000Y-76925241D01*
X103759000Y-77100359D01*
X103793164Y-77272112D01*
X103860179Y-77433899D01*
X103957469Y-77579504D01*
X104081296Y-77703331D01*
X104226901Y-77800621D01*
X104388688Y-77867636D01*
X104560441Y-77901800D01*
X104735559Y-77901800D01*
X104907312Y-77867636D01*
X105069099Y-77800621D01*
X105214704Y-77703331D01*
X105338531Y-77579504D01*
X105435821Y-77433899D01*
X105502836Y-77272112D01*
X105537000Y-77100359D01*
X105537000Y-76925241D01*
X105502836Y-76753488D01*
X105435821Y-76591701D01*
X105338531Y-76446096D01*
X105214704Y-76322269D01*
X105069099Y-76224979D01*
X104907312Y-76157964D01*
X104735559Y-76123800D01*
X104560441Y-76123800D01*
X104388688Y-76157964D01*
X104226901Y-76224979D01*
X104081296Y-76322269D01*
X103957469Y-76446096D01*
X103860179Y-76591701D01*
X103793164Y-76753488D01*
X103759000Y-76925241D01*
X89517687Y-76925241D01*
X89598500Y-76518964D01*
X89598500Y-75881036D01*
X149161500Y-75881036D01*
X149161500Y-76518964D01*
X149285953Y-77144636D01*
X149530078Y-77734005D01*
X149884493Y-78264424D01*
X150335576Y-78715507D01*
X150865995Y-79069922D01*
X151455364Y-79314047D01*
X152081036Y-79438500D01*
X152718964Y-79438500D01*
X153344636Y-79314047D01*
X153934005Y-79069922D01*
X154464424Y-78715507D01*
X154915507Y-78264424D01*
X155269922Y-77734005D01*
X155514047Y-77144636D01*
X155638500Y-76518964D01*
X155638500Y-75881036D01*
X155514047Y-75255364D01*
X155269922Y-74665995D01*
X154915507Y-74135576D01*
X154464424Y-73684493D01*
X153934005Y-73330078D01*
X153344636Y-73085953D01*
X152718964Y-72961500D01*
X152081036Y-72961500D01*
X151455364Y-73085953D01*
X150865995Y-73330078D01*
X150335576Y-73684493D01*
X149884493Y-74135576D01*
X149530078Y-74665995D01*
X149285953Y-75255364D01*
X149161500Y-75881036D01*
X89598500Y-75881036D01*
X89474047Y-75255364D01*
X89229922Y-74665995D01*
X88875507Y-74135576D01*
X88424424Y-73684493D01*
X87894005Y-73330078D01*
X87304636Y-73085953D01*
X86678964Y-72961500D01*
X86041036Y-72961500D01*
X85415364Y-73085953D01*
X84825995Y-73330078D01*
X84295576Y-73684493D01*
X83844493Y-74135576D01*
X83490078Y-74665995D01*
X83245953Y-75255364D01*
X83121500Y-75881036D01*
X81761000Y-75881036D01*
X81761000Y-71601000D01*
X156999001Y-71601000D01*
X156999000Y-118899000D01*
M02*
