G04 #@! TF.GenerationSoftware,KiCad,Pcbnew,(5.1.5)-3*
G04 #@! TF.CreationDate,2020-06-16T01:41:36-04:00*
G04 #@! TF.ProjectId,SMT-Theremin-v1,534d542d-5468-4657-9265-6d696e2d7631,rev?*
G04 #@! TF.SameCoordinates,Original*
G04 #@! TF.FileFunction,Copper,L1,Top*
G04 #@! TF.FilePolarity,Positive*
%FSLAX46Y46*%
G04 Gerber Fmt 4.6, Leading zero omitted, Abs format (unit mm)*
G04 Created by KiCad (PCBNEW (5.1.5)-3) date 2020-06-16 01:41:36*
%MOMM*%
%LPD*%
G04 APERTURE LIST*
%ADD10C,3.302000*%
%ADD11C,1.905000*%
%ADD12C,5.715000*%
%ADD13C,0.100000*%
%ADD14R,1.300000X1.300000*%
%ADD15C,1.500000*%
%ADD16R,1.700000X1.700000*%
%ADD17O,1.700000X1.700000*%
%ADD18R,1.300000X2.000000*%
%ADD19R,2.000000X2.000000*%
%ADD20R,2.000000X1.300000*%
%ADD21C,1.270000*%
%ADD22C,2.032000*%
%ADD23C,1.016000*%
%ADD24C,0.558800*%
%ADD25C,0.508000*%
%ADD26C,0.635000*%
%ADD27C,0.381000*%
%ADD28C,0.762000*%
%ADD29C,0.203200*%
G04 APERTURE END LIST*
D10*
X95250000Y-116840000D03*
X102870000Y-116840000D03*
X110490000Y-116840000D03*
X118110000Y-116840000D03*
D11*
X135890000Y-117151001D03*
X133350000Y-117151001D03*
D12*
X86360000Y-114300000D03*
X152400000Y-76200000D03*
X152400000Y-114300000D03*
X86360000Y-76200000D03*
G04 #@! TA.AperFunction,SMDPad,CuDef*
D13*
G36*
X96682299Y-74310369D02*
G01*
X96709904Y-74314464D01*
X96736975Y-74321245D01*
X96763251Y-74330647D01*
X96788478Y-74342579D01*
X96812415Y-74356926D01*
X96834831Y-74373550D01*
X96855508Y-74392292D01*
X96874250Y-74412969D01*
X96890874Y-74435385D01*
X96905221Y-74459322D01*
X96917153Y-74484549D01*
X96926555Y-74510825D01*
X96933336Y-74537896D01*
X96937431Y-74565501D01*
X96938800Y-74593375D01*
X96938800Y-75774625D01*
X96937431Y-75802499D01*
X96933336Y-75830104D01*
X96926555Y-75857175D01*
X96917153Y-75883451D01*
X96905221Y-75908678D01*
X96890874Y-75932615D01*
X96874250Y-75955031D01*
X96855508Y-75975708D01*
X96834831Y-75994450D01*
X96812415Y-76011074D01*
X96788478Y-76025421D01*
X96763251Y-76037353D01*
X96736975Y-76046755D01*
X96709904Y-76053536D01*
X96682299Y-76057631D01*
X96654425Y-76059000D01*
X95598175Y-76059000D01*
X95570301Y-76057631D01*
X95542696Y-76053536D01*
X95515625Y-76046755D01*
X95489349Y-76037353D01*
X95464122Y-76025421D01*
X95440185Y-76011074D01*
X95417769Y-75994450D01*
X95397092Y-75975708D01*
X95378350Y-75955031D01*
X95361726Y-75932615D01*
X95347379Y-75908678D01*
X95335447Y-75883451D01*
X95326045Y-75857175D01*
X95319264Y-75830104D01*
X95315169Y-75802499D01*
X95313800Y-75774625D01*
X95313800Y-74593375D01*
X95315169Y-74565501D01*
X95319264Y-74537896D01*
X95326045Y-74510825D01*
X95335447Y-74484549D01*
X95347379Y-74459322D01*
X95361726Y-74435385D01*
X95378350Y-74412969D01*
X95397092Y-74392292D01*
X95417769Y-74373550D01*
X95440185Y-74356926D01*
X95464122Y-74342579D01*
X95489349Y-74330647D01*
X95515625Y-74321245D01*
X95542696Y-74314464D01*
X95570301Y-74310369D01*
X95598175Y-74309000D01*
X96654425Y-74309000D01*
X96682299Y-74310369D01*
G37*
G04 #@! TD.AperFunction*
G04 #@! TA.AperFunction,SMDPad,CuDef*
G36*
X93507299Y-74310369D02*
G01*
X93534904Y-74314464D01*
X93561975Y-74321245D01*
X93588251Y-74330647D01*
X93613478Y-74342579D01*
X93637415Y-74356926D01*
X93659831Y-74373550D01*
X93680508Y-74392292D01*
X93699250Y-74412969D01*
X93715874Y-74435385D01*
X93730221Y-74459322D01*
X93742153Y-74484549D01*
X93751555Y-74510825D01*
X93758336Y-74537896D01*
X93762431Y-74565501D01*
X93763800Y-74593375D01*
X93763800Y-75774625D01*
X93762431Y-75802499D01*
X93758336Y-75830104D01*
X93751555Y-75857175D01*
X93742153Y-75883451D01*
X93730221Y-75908678D01*
X93715874Y-75932615D01*
X93699250Y-75955031D01*
X93680508Y-75975708D01*
X93659831Y-75994450D01*
X93637415Y-76011074D01*
X93613478Y-76025421D01*
X93588251Y-76037353D01*
X93561975Y-76046755D01*
X93534904Y-76053536D01*
X93507299Y-76057631D01*
X93479425Y-76059000D01*
X92423175Y-76059000D01*
X92395301Y-76057631D01*
X92367696Y-76053536D01*
X92340625Y-76046755D01*
X92314349Y-76037353D01*
X92289122Y-76025421D01*
X92265185Y-76011074D01*
X92242769Y-75994450D01*
X92222092Y-75975708D01*
X92203350Y-75955031D01*
X92186726Y-75932615D01*
X92172379Y-75908678D01*
X92160447Y-75883451D01*
X92151045Y-75857175D01*
X92144264Y-75830104D01*
X92140169Y-75802499D01*
X92138800Y-75774625D01*
X92138800Y-74593375D01*
X92140169Y-74565501D01*
X92144264Y-74537896D01*
X92151045Y-74510825D01*
X92160447Y-74484549D01*
X92172379Y-74459322D01*
X92186726Y-74435385D01*
X92203350Y-74412969D01*
X92222092Y-74392292D01*
X92242769Y-74373550D01*
X92265185Y-74356926D01*
X92289122Y-74342579D01*
X92314349Y-74330647D01*
X92340625Y-74321245D01*
X92367696Y-74314464D01*
X92395301Y-74310369D01*
X92423175Y-74309000D01*
X93479425Y-74309000D01*
X93507299Y-74310369D01*
G37*
G04 #@! TD.AperFunction*
G04 #@! TA.AperFunction,SMDPad,CuDef*
G36*
X111890310Y-100266202D02*
G01*
X111914535Y-100269795D01*
X111938291Y-100275746D01*
X111961349Y-100283996D01*
X111983487Y-100294467D01*
X112004493Y-100307057D01*
X112024163Y-100321645D01*
X112042308Y-100338092D01*
X112058755Y-100356237D01*
X112073343Y-100375907D01*
X112085933Y-100396913D01*
X112096404Y-100419051D01*
X112104654Y-100442109D01*
X112110605Y-100465865D01*
X112114198Y-100490090D01*
X112115400Y-100514550D01*
X112115400Y-101415450D01*
X112114198Y-101439910D01*
X112110605Y-101464135D01*
X112104654Y-101487891D01*
X112096404Y-101510949D01*
X112085933Y-101533087D01*
X112073343Y-101554093D01*
X112058755Y-101573763D01*
X112042308Y-101591908D01*
X112024163Y-101608355D01*
X112004493Y-101622943D01*
X111983487Y-101635533D01*
X111961349Y-101646004D01*
X111938291Y-101654254D01*
X111914535Y-101660205D01*
X111890310Y-101663798D01*
X111865850Y-101665000D01*
X111214950Y-101665000D01*
X111190490Y-101663798D01*
X111166265Y-101660205D01*
X111142509Y-101654254D01*
X111119451Y-101646004D01*
X111097313Y-101635533D01*
X111076307Y-101622943D01*
X111056637Y-101608355D01*
X111038492Y-101591908D01*
X111022045Y-101573763D01*
X111007457Y-101554093D01*
X110994867Y-101533087D01*
X110984396Y-101510949D01*
X110976146Y-101487891D01*
X110970195Y-101464135D01*
X110966602Y-101439910D01*
X110965400Y-101415450D01*
X110965400Y-100514550D01*
X110966602Y-100490090D01*
X110970195Y-100465865D01*
X110976146Y-100442109D01*
X110984396Y-100419051D01*
X110994867Y-100396913D01*
X111007457Y-100375907D01*
X111022045Y-100356237D01*
X111038492Y-100338092D01*
X111056637Y-100321645D01*
X111076307Y-100307057D01*
X111097313Y-100294467D01*
X111119451Y-100283996D01*
X111142509Y-100275746D01*
X111166265Y-100269795D01*
X111190490Y-100266202D01*
X111214950Y-100265000D01*
X111865850Y-100265000D01*
X111890310Y-100266202D01*
G37*
G04 #@! TD.AperFunction*
G04 #@! TA.AperFunction,SMDPad,CuDef*
G36*
X109840310Y-100266202D02*
G01*
X109864535Y-100269795D01*
X109888291Y-100275746D01*
X109911349Y-100283996D01*
X109933487Y-100294467D01*
X109954493Y-100307057D01*
X109974163Y-100321645D01*
X109992308Y-100338092D01*
X110008755Y-100356237D01*
X110023343Y-100375907D01*
X110035933Y-100396913D01*
X110046404Y-100419051D01*
X110054654Y-100442109D01*
X110060605Y-100465865D01*
X110064198Y-100490090D01*
X110065400Y-100514550D01*
X110065400Y-101415450D01*
X110064198Y-101439910D01*
X110060605Y-101464135D01*
X110054654Y-101487891D01*
X110046404Y-101510949D01*
X110035933Y-101533087D01*
X110023343Y-101554093D01*
X110008755Y-101573763D01*
X109992308Y-101591908D01*
X109974163Y-101608355D01*
X109954493Y-101622943D01*
X109933487Y-101635533D01*
X109911349Y-101646004D01*
X109888291Y-101654254D01*
X109864535Y-101660205D01*
X109840310Y-101663798D01*
X109815850Y-101665000D01*
X109164950Y-101665000D01*
X109140490Y-101663798D01*
X109116265Y-101660205D01*
X109092509Y-101654254D01*
X109069451Y-101646004D01*
X109047313Y-101635533D01*
X109026307Y-101622943D01*
X109006637Y-101608355D01*
X108988492Y-101591908D01*
X108972045Y-101573763D01*
X108957457Y-101554093D01*
X108944867Y-101533087D01*
X108934396Y-101510949D01*
X108926146Y-101487891D01*
X108920195Y-101464135D01*
X108916602Y-101439910D01*
X108915400Y-101415450D01*
X108915400Y-100514550D01*
X108916602Y-100490090D01*
X108920195Y-100465865D01*
X108926146Y-100442109D01*
X108934396Y-100419051D01*
X108944867Y-100396913D01*
X108957457Y-100375907D01*
X108972045Y-100356237D01*
X108988492Y-100338092D01*
X109006637Y-100321645D01*
X109026307Y-100307057D01*
X109047313Y-100294467D01*
X109069451Y-100283996D01*
X109092509Y-100275746D01*
X109116265Y-100269795D01*
X109140490Y-100266202D01*
X109164950Y-100265000D01*
X109815850Y-100265000D01*
X109840310Y-100266202D01*
G37*
G04 #@! TD.AperFunction*
D14*
X95688800Y-85344000D03*
X93388800Y-85344000D03*
G04 #@! TA.AperFunction,SMDPad,CuDef*
D13*
G36*
X111578304Y-76850204D02*
G01*
X111602573Y-76853804D01*
X111626371Y-76859765D01*
X111649471Y-76868030D01*
X111671649Y-76878520D01*
X111692693Y-76891133D01*
X111712398Y-76905747D01*
X111730577Y-76922223D01*
X111747053Y-76940402D01*
X111761667Y-76960107D01*
X111774280Y-76981151D01*
X111784770Y-77003329D01*
X111793035Y-77026429D01*
X111798996Y-77050227D01*
X111802596Y-77074496D01*
X111803800Y-77099000D01*
X111803800Y-78349000D01*
X111802596Y-78373504D01*
X111798996Y-78397773D01*
X111793035Y-78421571D01*
X111784770Y-78444671D01*
X111774280Y-78466849D01*
X111761667Y-78487893D01*
X111747053Y-78507598D01*
X111730577Y-78525777D01*
X111712398Y-78542253D01*
X111692693Y-78556867D01*
X111671649Y-78569480D01*
X111649471Y-78579970D01*
X111626371Y-78588235D01*
X111602573Y-78594196D01*
X111578304Y-78597796D01*
X111553800Y-78599000D01*
X110803800Y-78599000D01*
X110779296Y-78597796D01*
X110755027Y-78594196D01*
X110731229Y-78588235D01*
X110708129Y-78579970D01*
X110685951Y-78569480D01*
X110664907Y-78556867D01*
X110645202Y-78542253D01*
X110627023Y-78525777D01*
X110610547Y-78507598D01*
X110595933Y-78487893D01*
X110583320Y-78466849D01*
X110572830Y-78444671D01*
X110564565Y-78421571D01*
X110558604Y-78397773D01*
X110555004Y-78373504D01*
X110553800Y-78349000D01*
X110553800Y-77099000D01*
X110555004Y-77074496D01*
X110558604Y-77050227D01*
X110564565Y-77026429D01*
X110572830Y-77003329D01*
X110583320Y-76981151D01*
X110595933Y-76960107D01*
X110610547Y-76940402D01*
X110627023Y-76922223D01*
X110645202Y-76905747D01*
X110664907Y-76891133D01*
X110685951Y-76878520D01*
X110708129Y-76868030D01*
X110731229Y-76859765D01*
X110755027Y-76853804D01*
X110779296Y-76850204D01*
X110803800Y-76849000D01*
X111553800Y-76849000D01*
X111578304Y-76850204D01*
G37*
G04 #@! TD.AperFunction*
G04 #@! TA.AperFunction,SMDPad,CuDef*
G36*
X108778304Y-76850204D02*
G01*
X108802573Y-76853804D01*
X108826371Y-76859765D01*
X108849471Y-76868030D01*
X108871649Y-76878520D01*
X108892693Y-76891133D01*
X108912398Y-76905747D01*
X108930577Y-76922223D01*
X108947053Y-76940402D01*
X108961667Y-76960107D01*
X108974280Y-76981151D01*
X108984770Y-77003329D01*
X108993035Y-77026429D01*
X108998996Y-77050227D01*
X109002596Y-77074496D01*
X109003800Y-77099000D01*
X109003800Y-78349000D01*
X109002596Y-78373504D01*
X108998996Y-78397773D01*
X108993035Y-78421571D01*
X108984770Y-78444671D01*
X108974280Y-78466849D01*
X108961667Y-78487893D01*
X108947053Y-78507598D01*
X108930577Y-78525777D01*
X108912398Y-78542253D01*
X108892693Y-78556867D01*
X108871649Y-78569480D01*
X108849471Y-78579970D01*
X108826371Y-78588235D01*
X108802573Y-78594196D01*
X108778304Y-78597796D01*
X108753800Y-78599000D01*
X108003800Y-78599000D01*
X107979296Y-78597796D01*
X107955027Y-78594196D01*
X107931229Y-78588235D01*
X107908129Y-78579970D01*
X107885951Y-78569480D01*
X107864907Y-78556867D01*
X107845202Y-78542253D01*
X107827023Y-78525777D01*
X107810547Y-78507598D01*
X107795933Y-78487893D01*
X107783320Y-78466849D01*
X107772830Y-78444671D01*
X107764565Y-78421571D01*
X107758604Y-78397773D01*
X107755004Y-78373504D01*
X107753800Y-78349000D01*
X107753800Y-77099000D01*
X107755004Y-77074496D01*
X107758604Y-77050227D01*
X107764565Y-77026429D01*
X107772830Y-77003329D01*
X107783320Y-76981151D01*
X107795933Y-76960107D01*
X107810547Y-76940402D01*
X107827023Y-76922223D01*
X107845202Y-76905747D01*
X107864907Y-76891133D01*
X107885951Y-76878520D01*
X107908129Y-76868030D01*
X107931229Y-76859765D01*
X107955027Y-76853804D01*
X107979296Y-76850204D01*
X108003800Y-76849000D01*
X108753800Y-76849000D01*
X108778304Y-76850204D01*
G37*
G04 #@! TD.AperFunction*
G04 #@! TA.AperFunction,SMDPad,CuDef*
G36*
X109641904Y-95011204D02*
G01*
X109666173Y-95014804D01*
X109689971Y-95020765D01*
X109713071Y-95029030D01*
X109735249Y-95039520D01*
X109756293Y-95052133D01*
X109775998Y-95066747D01*
X109794177Y-95083223D01*
X109810653Y-95101402D01*
X109825267Y-95121107D01*
X109837880Y-95142151D01*
X109848370Y-95164329D01*
X109856635Y-95187429D01*
X109862596Y-95211227D01*
X109866196Y-95235496D01*
X109867400Y-95260000D01*
X109867400Y-96510000D01*
X109866196Y-96534504D01*
X109862596Y-96558773D01*
X109856635Y-96582571D01*
X109848370Y-96605671D01*
X109837880Y-96627849D01*
X109825267Y-96648893D01*
X109810653Y-96668598D01*
X109794177Y-96686777D01*
X109775998Y-96703253D01*
X109756293Y-96717867D01*
X109735249Y-96730480D01*
X109713071Y-96740970D01*
X109689971Y-96749235D01*
X109666173Y-96755196D01*
X109641904Y-96758796D01*
X109617400Y-96760000D01*
X108867400Y-96760000D01*
X108842896Y-96758796D01*
X108818627Y-96755196D01*
X108794829Y-96749235D01*
X108771729Y-96740970D01*
X108749551Y-96730480D01*
X108728507Y-96717867D01*
X108708802Y-96703253D01*
X108690623Y-96686777D01*
X108674147Y-96668598D01*
X108659533Y-96648893D01*
X108646920Y-96627849D01*
X108636430Y-96605671D01*
X108628165Y-96582571D01*
X108622204Y-96558773D01*
X108618604Y-96534504D01*
X108617400Y-96510000D01*
X108617400Y-95260000D01*
X108618604Y-95235496D01*
X108622204Y-95211227D01*
X108628165Y-95187429D01*
X108636430Y-95164329D01*
X108646920Y-95142151D01*
X108659533Y-95121107D01*
X108674147Y-95101402D01*
X108690623Y-95083223D01*
X108708802Y-95066747D01*
X108728507Y-95052133D01*
X108749551Y-95039520D01*
X108771729Y-95029030D01*
X108794829Y-95020765D01*
X108818627Y-95014804D01*
X108842896Y-95011204D01*
X108867400Y-95010000D01*
X109617400Y-95010000D01*
X109641904Y-95011204D01*
G37*
G04 #@! TD.AperFunction*
G04 #@! TA.AperFunction,SMDPad,CuDef*
G36*
X112441904Y-95011204D02*
G01*
X112466173Y-95014804D01*
X112489971Y-95020765D01*
X112513071Y-95029030D01*
X112535249Y-95039520D01*
X112556293Y-95052133D01*
X112575998Y-95066747D01*
X112594177Y-95083223D01*
X112610653Y-95101402D01*
X112625267Y-95121107D01*
X112637880Y-95142151D01*
X112648370Y-95164329D01*
X112656635Y-95187429D01*
X112662596Y-95211227D01*
X112666196Y-95235496D01*
X112667400Y-95260000D01*
X112667400Y-96510000D01*
X112666196Y-96534504D01*
X112662596Y-96558773D01*
X112656635Y-96582571D01*
X112648370Y-96605671D01*
X112637880Y-96627849D01*
X112625267Y-96648893D01*
X112610653Y-96668598D01*
X112594177Y-96686777D01*
X112575998Y-96703253D01*
X112556293Y-96717867D01*
X112535249Y-96730480D01*
X112513071Y-96740970D01*
X112489971Y-96749235D01*
X112466173Y-96755196D01*
X112441904Y-96758796D01*
X112417400Y-96760000D01*
X111667400Y-96760000D01*
X111642896Y-96758796D01*
X111618627Y-96755196D01*
X111594829Y-96749235D01*
X111571729Y-96740970D01*
X111549551Y-96730480D01*
X111528507Y-96717867D01*
X111508802Y-96703253D01*
X111490623Y-96686777D01*
X111474147Y-96668598D01*
X111459533Y-96648893D01*
X111446920Y-96627849D01*
X111436430Y-96605671D01*
X111428165Y-96582571D01*
X111422204Y-96558773D01*
X111418604Y-96534504D01*
X111417400Y-96510000D01*
X111417400Y-95260000D01*
X111418604Y-95235496D01*
X111422204Y-95211227D01*
X111428165Y-95187429D01*
X111436430Y-95164329D01*
X111446920Y-95142151D01*
X111459533Y-95121107D01*
X111474147Y-95101402D01*
X111490623Y-95083223D01*
X111508802Y-95066747D01*
X111528507Y-95052133D01*
X111549551Y-95039520D01*
X111571729Y-95029030D01*
X111594829Y-95020765D01*
X111618627Y-95014804D01*
X111642896Y-95011204D01*
X111667400Y-95010000D01*
X112417400Y-95010000D01*
X112441904Y-95011204D01*
G37*
G04 #@! TD.AperFunction*
G04 #@! TA.AperFunction,SMDPad,CuDef*
G36*
X93538304Y-79390204D02*
G01*
X93562573Y-79393804D01*
X93586371Y-79399765D01*
X93609471Y-79408030D01*
X93631649Y-79418520D01*
X93652693Y-79431133D01*
X93672398Y-79445747D01*
X93690577Y-79462223D01*
X93707053Y-79480402D01*
X93721667Y-79500107D01*
X93734280Y-79521151D01*
X93744770Y-79543329D01*
X93753035Y-79566429D01*
X93758996Y-79590227D01*
X93762596Y-79614496D01*
X93763800Y-79639000D01*
X93763800Y-80889000D01*
X93762596Y-80913504D01*
X93758996Y-80937773D01*
X93753035Y-80961571D01*
X93744770Y-80984671D01*
X93734280Y-81006849D01*
X93721667Y-81027893D01*
X93707053Y-81047598D01*
X93690577Y-81065777D01*
X93672398Y-81082253D01*
X93652693Y-81096867D01*
X93631649Y-81109480D01*
X93609471Y-81119970D01*
X93586371Y-81128235D01*
X93562573Y-81134196D01*
X93538304Y-81137796D01*
X93513800Y-81139000D01*
X92763800Y-81139000D01*
X92739296Y-81137796D01*
X92715027Y-81134196D01*
X92691229Y-81128235D01*
X92668129Y-81119970D01*
X92645951Y-81109480D01*
X92624907Y-81096867D01*
X92605202Y-81082253D01*
X92587023Y-81065777D01*
X92570547Y-81047598D01*
X92555933Y-81027893D01*
X92543320Y-81006849D01*
X92532830Y-80984671D01*
X92524565Y-80961571D01*
X92518604Y-80937773D01*
X92515004Y-80913504D01*
X92513800Y-80889000D01*
X92513800Y-79639000D01*
X92515004Y-79614496D01*
X92518604Y-79590227D01*
X92524565Y-79566429D01*
X92532830Y-79543329D01*
X92543320Y-79521151D01*
X92555933Y-79500107D01*
X92570547Y-79480402D01*
X92587023Y-79462223D01*
X92605202Y-79445747D01*
X92624907Y-79431133D01*
X92645951Y-79418520D01*
X92668129Y-79408030D01*
X92691229Y-79399765D01*
X92715027Y-79393804D01*
X92739296Y-79390204D01*
X92763800Y-79389000D01*
X93513800Y-79389000D01*
X93538304Y-79390204D01*
G37*
G04 #@! TD.AperFunction*
G04 #@! TA.AperFunction,SMDPad,CuDef*
G36*
X96338304Y-79390204D02*
G01*
X96362573Y-79393804D01*
X96386371Y-79399765D01*
X96409471Y-79408030D01*
X96431649Y-79418520D01*
X96452693Y-79431133D01*
X96472398Y-79445747D01*
X96490577Y-79462223D01*
X96507053Y-79480402D01*
X96521667Y-79500107D01*
X96534280Y-79521151D01*
X96544770Y-79543329D01*
X96553035Y-79566429D01*
X96558996Y-79590227D01*
X96562596Y-79614496D01*
X96563800Y-79639000D01*
X96563800Y-80889000D01*
X96562596Y-80913504D01*
X96558996Y-80937773D01*
X96553035Y-80961571D01*
X96544770Y-80984671D01*
X96534280Y-81006849D01*
X96521667Y-81027893D01*
X96507053Y-81047598D01*
X96490577Y-81065777D01*
X96472398Y-81082253D01*
X96452693Y-81096867D01*
X96431649Y-81109480D01*
X96409471Y-81119970D01*
X96386371Y-81128235D01*
X96362573Y-81134196D01*
X96338304Y-81137796D01*
X96313800Y-81139000D01*
X95563800Y-81139000D01*
X95539296Y-81137796D01*
X95515027Y-81134196D01*
X95491229Y-81128235D01*
X95468129Y-81119970D01*
X95445951Y-81109480D01*
X95424907Y-81096867D01*
X95405202Y-81082253D01*
X95387023Y-81065777D01*
X95370547Y-81047598D01*
X95355933Y-81027893D01*
X95343320Y-81006849D01*
X95332830Y-80984671D01*
X95324565Y-80961571D01*
X95318604Y-80937773D01*
X95315004Y-80913504D01*
X95313800Y-80889000D01*
X95313800Y-79639000D01*
X95315004Y-79614496D01*
X95318604Y-79590227D01*
X95324565Y-79566429D01*
X95332830Y-79543329D01*
X95343320Y-79521151D01*
X95355933Y-79500107D01*
X95370547Y-79480402D01*
X95387023Y-79462223D01*
X95405202Y-79445747D01*
X95424907Y-79431133D01*
X95445951Y-79418520D01*
X95468129Y-79408030D01*
X95491229Y-79399765D01*
X95515027Y-79393804D01*
X95539296Y-79390204D01*
X95563800Y-79389000D01*
X96313800Y-79389000D01*
X96338304Y-79390204D01*
G37*
G04 #@! TD.AperFunction*
D15*
X94640400Y-95885000D03*
X91240400Y-95885000D03*
G04 #@! TA.AperFunction,SMDPad,CuDef*
D13*
G36*
X105473503Y-78059722D02*
G01*
X105488064Y-78061882D01*
X105502343Y-78065459D01*
X105516203Y-78070418D01*
X105529510Y-78076712D01*
X105542136Y-78084280D01*
X105553959Y-78093048D01*
X105564866Y-78102934D01*
X105574752Y-78113841D01*
X105583520Y-78125664D01*
X105591088Y-78138290D01*
X105597382Y-78151597D01*
X105602341Y-78165457D01*
X105605918Y-78179736D01*
X105608078Y-78194297D01*
X105608800Y-78209000D01*
X105608800Y-78509000D01*
X105608078Y-78523703D01*
X105605918Y-78538264D01*
X105602341Y-78552543D01*
X105597382Y-78566403D01*
X105591088Y-78579710D01*
X105583520Y-78592336D01*
X105574752Y-78604159D01*
X105564866Y-78615066D01*
X105553959Y-78624952D01*
X105542136Y-78633720D01*
X105529510Y-78641288D01*
X105516203Y-78647582D01*
X105502343Y-78652541D01*
X105488064Y-78656118D01*
X105473503Y-78658278D01*
X105458800Y-78659000D01*
X103808800Y-78659000D01*
X103794097Y-78658278D01*
X103779536Y-78656118D01*
X103765257Y-78652541D01*
X103751397Y-78647582D01*
X103738090Y-78641288D01*
X103725464Y-78633720D01*
X103713641Y-78624952D01*
X103702734Y-78615066D01*
X103692848Y-78604159D01*
X103684080Y-78592336D01*
X103676512Y-78579710D01*
X103670218Y-78566403D01*
X103665259Y-78552543D01*
X103661682Y-78538264D01*
X103659522Y-78523703D01*
X103658800Y-78509000D01*
X103658800Y-78209000D01*
X103659522Y-78194297D01*
X103661682Y-78179736D01*
X103665259Y-78165457D01*
X103670218Y-78151597D01*
X103676512Y-78138290D01*
X103684080Y-78125664D01*
X103692848Y-78113841D01*
X103702734Y-78102934D01*
X103713641Y-78093048D01*
X103725464Y-78084280D01*
X103738090Y-78076712D01*
X103751397Y-78070418D01*
X103765257Y-78065459D01*
X103779536Y-78061882D01*
X103794097Y-78059722D01*
X103808800Y-78059000D01*
X105458800Y-78059000D01*
X105473503Y-78059722D01*
G37*
G04 #@! TD.AperFunction*
G04 #@! TA.AperFunction,SMDPad,CuDef*
G36*
X105473503Y-79329722D02*
G01*
X105488064Y-79331882D01*
X105502343Y-79335459D01*
X105516203Y-79340418D01*
X105529510Y-79346712D01*
X105542136Y-79354280D01*
X105553959Y-79363048D01*
X105564866Y-79372934D01*
X105574752Y-79383841D01*
X105583520Y-79395664D01*
X105591088Y-79408290D01*
X105597382Y-79421597D01*
X105602341Y-79435457D01*
X105605918Y-79449736D01*
X105608078Y-79464297D01*
X105608800Y-79479000D01*
X105608800Y-79779000D01*
X105608078Y-79793703D01*
X105605918Y-79808264D01*
X105602341Y-79822543D01*
X105597382Y-79836403D01*
X105591088Y-79849710D01*
X105583520Y-79862336D01*
X105574752Y-79874159D01*
X105564866Y-79885066D01*
X105553959Y-79894952D01*
X105542136Y-79903720D01*
X105529510Y-79911288D01*
X105516203Y-79917582D01*
X105502343Y-79922541D01*
X105488064Y-79926118D01*
X105473503Y-79928278D01*
X105458800Y-79929000D01*
X103808800Y-79929000D01*
X103794097Y-79928278D01*
X103779536Y-79926118D01*
X103765257Y-79922541D01*
X103751397Y-79917582D01*
X103738090Y-79911288D01*
X103725464Y-79903720D01*
X103713641Y-79894952D01*
X103702734Y-79885066D01*
X103692848Y-79874159D01*
X103684080Y-79862336D01*
X103676512Y-79849710D01*
X103670218Y-79836403D01*
X103665259Y-79822543D01*
X103661682Y-79808264D01*
X103659522Y-79793703D01*
X103658800Y-79779000D01*
X103658800Y-79479000D01*
X103659522Y-79464297D01*
X103661682Y-79449736D01*
X103665259Y-79435457D01*
X103670218Y-79421597D01*
X103676512Y-79408290D01*
X103684080Y-79395664D01*
X103692848Y-79383841D01*
X103702734Y-79372934D01*
X103713641Y-79363048D01*
X103725464Y-79354280D01*
X103738090Y-79346712D01*
X103751397Y-79340418D01*
X103765257Y-79335459D01*
X103779536Y-79331882D01*
X103794097Y-79329722D01*
X103808800Y-79329000D01*
X105458800Y-79329000D01*
X105473503Y-79329722D01*
G37*
G04 #@! TD.AperFunction*
G04 #@! TA.AperFunction,SMDPad,CuDef*
G36*
X105473503Y-80599722D02*
G01*
X105488064Y-80601882D01*
X105502343Y-80605459D01*
X105516203Y-80610418D01*
X105529510Y-80616712D01*
X105542136Y-80624280D01*
X105553959Y-80633048D01*
X105564866Y-80642934D01*
X105574752Y-80653841D01*
X105583520Y-80665664D01*
X105591088Y-80678290D01*
X105597382Y-80691597D01*
X105602341Y-80705457D01*
X105605918Y-80719736D01*
X105608078Y-80734297D01*
X105608800Y-80749000D01*
X105608800Y-81049000D01*
X105608078Y-81063703D01*
X105605918Y-81078264D01*
X105602341Y-81092543D01*
X105597382Y-81106403D01*
X105591088Y-81119710D01*
X105583520Y-81132336D01*
X105574752Y-81144159D01*
X105564866Y-81155066D01*
X105553959Y-81164952D01*
X105542136Y-81173720D01*
X105529510Y-81181288D01*
X105516203Y-81187582D01*
X105502343Y-81192541D01*
X105488064Y-81196118D01*
X105473503Y-81198278D01*
X105458800Y-81199000D01*
X103808800Y-81199000D01*
X103794097Y-81198278D01*
X103779536Y-81196118D01*
X103765257Y-81192541D01*
X103751397Y-81187582D01*
X103738090Y-81181288D01*
X103725464Y-81173720D01*
X103713641Y-81164952D01*
X103702734Y-81155066D01*
X103692848Y-81144159D01*
X103684080Y-81132336D01*
X103676512Y-81119710D01*
X103670218Y-81106403D01*
X103665259Y-81092543D01*
X103661682Y-81078264D01*
X103659522Y-81063703D01*
X103658800Y-81049000D01*
X103658800Y-80749000D01*
X103659522Y-80734297D01*
X103661682Y-80719736D01*
X103665259Y-80705457D01*
X103670218Y-80691597D01*
X103676512Y-80678290D01*
X103684080Y-80665664D01*
X103692848Y-80653841D01*
X103702734Y-80642934D01*
X103713641Y-80633048D01*
X103725464Y-80624280D01*
X103738090Y-80616712D01*
X103751397Y-80610418D01*
X103765257Y-80605459D01*
X103779536Y-80601882D01*
X103794097Y-80599722D01*
X103808800Y-80599000D01*
X105458800Y-80599000D01*
X105473503Y-80599722D01*
G37*
G04 #@! TD.AperFunction*
G04 #@! TA.AperFunction,SMDPad,CuDef*
G36*
X105473503Y-81869722D02*
G01*
X105488064Y-81871882D01*
X105502343Y-81875459D01*
X105516203Y-81880418D01*
X105529510Y-81886712D01*
X105542136Y-81894280D01*
X105553959Y-81903048D01*
X105564866Y-81912934D01*
X105574752Y-81923841D01*
X105583520Y-81935664D01*
X105591088Y-81948290D01*
X105597382Y-81961597D01*
X105602341Y-81975457D01*
X105605918Y-81989736D01*
X105608078Y-82004297D01*
X105608800Y-82019000D01*
X105608800Y-82319000D01*
X105608078Y-82333703D01*
X105605918Y-82348264D01*
X105602341Y-82362543D01*
X105597382Y-82376403D01*
X105591088Y-82389710D01*
X105583520Y-82402336D01*
X105574752Y-82414159D01*
X105564866Y-82425066D01*
X105553959Y-82434952D01*
X105542136Y-82443720D01*
X105529510Y-82451288D01*
X105516203Y-82457582D01*
X105502343Y-82462541D01*
X105488064Y-82466118D01*
X105473503Y-82468278D01*
X105458800Y-82469000D01*
X103808800Y-82469000D01*
X103794097Y-82468278D01*
X103779536Y-82466118D01*
X103765257Y-82462541D01*
X103751397Y-82457582D01*
X103738090Y-82451288D01*
X103725464Y-82443720D01*
X103713641Y-82434952D01*
X103702734Y-82425066D01*
X103692848Y-82414159D01*
X103684080Y-82402336D01*
X103676512Y-82389710D01*
X103670218Y-82376403D01*
X103665259Y-82362543D01*
X103661682Y-82348264D01*
X103659522Y-82333703D01*
X103658800Y-82319000D01*
X103658800Y-82019000D01*
X103659522Y-82004297D01*
X103661682Y-81989736D01*
X103665259Y-81975457D01*
X103670218Y-81961597D01*
X103676512Y-81948290D01*
X103684080Y-81935664D01*
X103692848Y-81923841D01*
X103702734Y-81912934D01*
X103713641Y-81903048D01*
X103725464Y-81894280D01*
X103738090Y-81886712D01*
X103751397Y-81880418D01*
X103765257Y-81875459D01*
X103779536Y-81871882D01*
X103794097Y-81869722D01*
X103808800Y-81869000D01*
X105458800Y-81869000D01*
X105473503Y-81869722D01*
G37*
G04 #@! TD.AperFunction*
G04 #@! TA.AperFunction,SMDPad,CuDef*
G36*
X100523503Y-81869722D02*
G01*
X100538064Y-81871882D01*
X100552343Y-81875459D01*
X100566203Y-81880418D01*
X100579510Y-81886712D01*
X100592136Y-81894280D01*
X100603959Y-81903048D01*
X100614866Y-81912934D01*
X100624752Y-81923841D01*
X100633520Y-81935664D01*
X100641088Y-81948290D01*
X100647382Y-81961597D01*
X100652341Y-81975457D01*
X100655918Y-81989736D01*
X100658078Y-82004297D01*
X100658800Y-82019000D01*
X100658800Y-82319000D01*
X100658078Y-82333703D01*
X100655918Y-82348264D01*
X100652341Y-82362543D01*
X100647382Y-82376403D01*
X100641088Y-82389710D01*
X100633520Y-82402336D01*
X100624752Y-82414159D01*
X100614866Y-82425066D01*
X100603959Y-82434952D01*
X100592136Y-82443720D01*
X100579510Y-82451288D01*
X100566203Y-82457582D01*
X100552343Y-82462541D01*
X100538064Y-82466118D01*
X100523503Y-82468278D01*
X100508800Y-82469000D01*
X98858800Y-82469000D01*
X98844097Y-82468278D01*
X98829536Y-82466118D01*
X98815257Y-82462541D01*
X98801397Y-82457582D01*
X98788090Y-82451288D01*
X98775464Y-82443720D01*
X98763641Y-82434952D01*
X98752734Y-82425066D01*
X98742848Y-82414159D01*
X98734080Y-82402336D01*
X98726512Y-82389710D01*
X98720218Y-82376403D01*
X98715259Y-82362543D01*
X98711682Y-82348264D01*
X98709522Y-82333703D01*
X98708800Y-82319000D01*
X98708800Y-82019000D01*
X98709522Y-82004297D01*
X98711682Y-81989736D01*
X98715259Y-81975457D01*
X98720218Y-81961597D01*
X98726512Y-81948290D01*
X98734080Y-81935664D01*
X98742848Y-81923841D01*
X98752734Y-81912934D01*
X98763641Y-81903048D01*
X98775464Y-81894280D01*
X98788090Y-81886712D01*
X98801397Y-81880418D01*
X98815257Y-81875459D01*
X98829536Y-81871882D01*
X98844097Y-81869722D01*
X98858800Y-81869000D01*
X100508800Y-81869000D01*
X100523503Y-81869722D01*
G37*
G04 #@! TD.AperFunction*
G04 #@! TA.AperFunction,SMDPad,CuDef*
G36*
X100523503Y-80599722D02*
G01*
X100538064Y-80601882D01*
X100552343Y-80605459D01*
X100566203Y-80610418D01*
X100579510Y-80616712D01*
X100592136Y-80624280D01*
X100603959Y-80633048D01*
X100614866Y-80642934D01*
X100624752Y-80653841D01*
X100633520Y-80665664D01*
X100641088Y-80678290D01*
X100647382Y-80691597D01*
X100652341Y-80705457D01*
X100655918Y-80719736D01*
X100658078Y-80734297D01*
X100658800Y-80749000D01*
X100658800Y-81049000D01*
X100658078Y-81063703D01*
X100655918Y-81078264D01*
X100652341Y-81092543D01*
X100647382Y-81106403D01*
X100641088Y-81119710D01*
X100633520Y-81132336D01*
X100624752Y-81144159D01*
X100614866Y-81155066D01*
X100603959Y-81164952D01*
X100592136Y-81173720D01*
X100579510Y-81181288D01*
X100566203Y-81187582D01*
X100552343Y-81192541D01*
X100538064Y-81196118D01*
X100523503Y-81198278D01*
X100508800Y-81199000D01*
X98858800Y-81199000D01*
X98844097Y-81198278D01*
X98829536Y-81196118D01*
X98815257Y-81192541D01*
X98801397Y-81187582D01*
X98788090Y-81181288D01*
X98775464Y-81173720D01*
X98763641Y-81164952D01*
X98752734Y-81155066D01*
X98742848Y-81144159D01*
X98734080Y-81132336D01*
X98726512Y-81119710D01*
X98720218Y-81106403D01*
X98715259Y-81092543D01*
X98711682Y-81078264D01*
X98709522Y-81063703D01*
X98708800Y-81049000D01*
X98708800Y-80749000D01*
X98709522Y-80734297D01*
X98711682Y-80719736D01*
X98715259Y-80705457D01*
X98720218Y-80691597D01*
X98726512Y-80678290D01*
X98734080Y-80665664D01*
X98742848Y-80653841D01*
X98752734Y-80642934D01*
X98763641Y-80633048D01*
X98775464Y-80624280D01*
X98788090Y-80616712D01*
X98801397Y-80610418D01*
X98815257Y-80605459D01*
X98829536Y-80601882D01*
X98844097Y-80599722D01*
X98858800Y-80599000D01*
X100508800Y-80599000D01*
X100523503Y-80599722D01*
G37*
G04 #@! TD.AperFunction*
G04 #@! TA.AperFunction,SMDPad,CuDef*
G36*
X100523503Y-79329722D02*
G01*
X100538064Y-79331882D01*
X100552343Y-79335459D01*
X100566203Y-79340418D01*
X100579510Y-79346712D01*
X100592136Y-79354280D01*
X100603959Y-79363048D01*
X100614866Y-79372934D01*
X100624752Y-79383841D01*
X100633520Y-79395664D01*
X100641088Y-79408290D01*
X100647382Y-79421597D01*
X100652341Y-79435457D01*
X100655918Y-79449736D01*
X100658078Y-79464297D01*
X100658800Y-79479000D01*
X100658800Y-79779000D01*
X100658078Y-79793703D01*
X100655918Y-79808264D01*
X100652341Y-79822543D01*
X100647382Y-79836403D01*
X100641088Y-79849710D01*
X100633520Y-79862336D01*
X100624752Y-79874159D01*
X100614866Y-79885066D01*
X100603959Y-79894952D01*
X100592136Y-79903720D01*
X100579510Y-79911288D01*
X100566203Y-79917582D01*
X100552343Y-79922541D01*
X100538064Y-79926118D01*
X100523503Y-79928278D01*
X100508800Y-79929000D01*
X98858800Y-79929000D01*
X98844097Y-79928278D01*
X98829536Y-79926118D01*
X98815257Y-79922541D01*
X98801397Y-79917582D01*
X98788090Y-79911288D01*
X98775464Y-79903720D01*
X98763641Y-79894952D01*
X98752734Y-79885066D01*
X98742848Y-79874159D01*
X98734080Y-79862336D01*
X98726512Y-79849710D01*
X98720218Y-79836403D01*
X98715259Y-79822543D01*
X98711682Y-79808264D01*
X98709522Y-79793703D01*
X98708800Y-79779000D01*
X98708800Y-79479000D01*
X98709522Y-79464297D01*
X98711682Y-79449736D01*
X98715259Y-79435457D01*
X98720218Y-79421597D01*
X98726512Y-79408290D01*
X98734080Y-79395664D01*
X98742848Y-79383841D01*
X98752734Y-79372934D01*
X98763641Y-79363048D01*
X98775464Y-79354280D01*
X98788090Y-79346712D01*
X98801397Y-79340418D01*
X98815257Y-79335459D01*
X98829536Y-79331882D01*
X98844097Y-79329722D01*
X98858800Y-79329000D01*
X100508800Y-79329000D01*
X100523503Y-79329722D01*
G37*
G04 #@! TD.AperFunction*
G04 #@! TA.AperFunction,SMDPad,CuDef*
G36*
X100523503Y-78059722D02*
G01*
X100538064Y-78061882D01*
X100552343Y-78065459D01*
X100566203Y-78070418D01*
X100579510Y-78076712D01*
X100592136Y-78084280D01*
X100603959Y-78093048D01*
X100614866Y-78102934D01*
X100624752Y-78113841D01*
X100633520Y-78125664D01*
X100641088Y-78138290D01*
X100647382Y-78151597D01*
X100652341Y-78165457D01*
X100655918Y-78179736D01*
X100658078Y-78194297D01*
X100658800Y-78209000D01*
X100658800Y-78509000D01*
X100658078Y-78523703D01*
X100655918Y-78538264D01*
X100652341Y-78552543D01*
X100647382Y-78566403D01*
X100641088Y-78579710D01*
X100633520Y-78592336D01*
X100624752Y-78604159D01*
X100614866Y-78615066D01*
X100603959Y-78624952D01*
X100592136Y-78633720D01*
X100579510Y-78641288D01*
X100566203Y-78647582D01*
X100552343Y-78652541D01*
X100538064Y-78656118D01*
X100523503Y-78658278D01*
X100508800Y-78659000D01*
X98858800Y-78659000D01*
X98844097Y-78658278D01*
X98829536Y-78656118D01*
X98815257Y-78652541D01*
X98801397Y-78647582D01*
X98788090Y-78641288D01*
X98775464Y-78633720D01*
X98763641Y-78624952D01*
X98752734Y-78615066D01*
X98742848Y-78604159D01*
X98734080Y-78592336D01*
X98726512Y-78579710D01*
X98720218Y-78566403D01*
X98715259Y-78552543D01*
X98711682Y-78538264D01*
X98709522Y-78523703D01*
X98708800Y-78509000D01*
X98708800Y-78209000D01*
X98709522Y-78194297D01*
X98711682Y-78179736D01*
X98715259Y-78165457D01*
X98720218Y-78151597D01*
X98726512Y-78138290D01*
X98734080Y-78125664D01*
X98742848Y-78113841D01*
X98752734Y-78102934D01*
X98763641Y-78093048D01*
X98775464Y-78084280D01*
X98788090Y-78076712D01*
X98801397Y-78070418D01*
X98815257Y-78065459D01*
X98829536Y-78061882D01*
X98844097Y-78059722D01*
X98858800Y-78059000D01*
X100508800Y-78059000D01*
X100523503Y-78059722D01*
G37*
G04 #@! TD.AperFunction*
G04 #@! TA.AperFunction,SMDPad,CuDef*
G36*
X100548903Y-98760722D02*
G01*
X100563464Y-98762882D01*
X100577743Y-98766459D01*
X100591603Y-98771418D01*
X100604910Y-98777712D01*
X100617536Y-98785280D01*
X100629359Y-98794048D01*
X100640266Y-98803934D01*
X100650152Y-98814841D01*
X100658920Y-98826664D01*
X100666488Y-98839290D01*
X100672782Y-98852597D01*
X100677741Y-98866457D01*
X100681318Y-98880736D01*
X100683478Y-98895297D01*
X100684200Y-98910000D01*
X100684200Y-99210000D01*
X100683478Y-99224703D01*
X100681318Y-99239264D01*
X100677741Y-99253543D01*
X100672782Y-99267403D01*
X100666488Y-99280710D01*
X100658920Y-99293336D01*
X100650152Y-99305159D01*
X100640266Y-99316066D01*
X100629359Y-99325952D01*
X100617536Y-99334720D01*
X100604910Y-99342288D01*
X100591603Y-99348582D01*
X100577743Y-99353541D01*
X100563464Y-99357118D01*
X100548903Y-99359278D01*
X100534200Y-99360000D01*
X98884200Y-99360000D01*
X98869497Y-99359278D01*
X98854936Y-99357118D01*
X98840657Y-99353541D01*
X98826797Y-99348582D01*
X98813490Y-99342288D01*
X98800864Y-99334720D01*
X98789041Y-99325952D01*
X98778134Y-99316066D01*
X98768248Y-99305159D01*
X98759480Y-99293336D01*
X98751912Y-99280710D01*
X98745618Y-99267403D01*
X98740659Y-99253543D01*
X98737082Y-99239264D01*
X98734922Y-99224703D01*
X98734200Y-99210000D01*
X98734200Y-98910000D01*
X98734922Y-98895297D01*
X98737082Y-98880736D01*
X98740659Y-98866457D01*
X98745618Y-98852597D01*
X98751912Y-98839290D01*
X98759480Y-98826664D01*
X98768248Y-98814841D01*
X98778134Y-98803934D01*
X98789041Y-98794048D01*
X98800864Y-98785280D01*
X98813490Y-98777712D01*
X98826797Y-98771418D01*
X98840657Y-98766459D01*
X98854936Y-98762882D01*
X98869497Y-98760722D01*
X98884200Y-98760000D01*
X100534200Y-98760000D01*
X100548903Y-98760722D01*
G37*
G04 #@! TD.AperFunction*
G04 #@! TA.AperFunction,SMDPad,CuDef*
G36*
X100548903Y-100030722D02*
G01*
X100563464Y-100032882D01*
X100577743Y-100036459D01*
X100591603Y-100041418D01*
X100604910Y-100047712D01*
X100617536Y-100055280D01*
X100629359Y-100064048D01*
X100640266Y-100073934D01*
X100650152Y-100084841D01*
X100658920Y-100096664D01*
X100666488Y-100109290D01*
X100672782Y-100122597D01*
X100677741Y-100136457D01*
X100681318Y-100150736D01*
X100683478Y-100165297D01*
X100684200Y-100180000D01*
X100684200Y-100480000D01*
X100683478Y-100494703D01*
X100681318Y-100509264D01*
X100677741Y-100523543D01*
X100672782Y-100537403D01*
X100666488Y-100550710D01*
X100658920Y-100563336D01*
X100650152Y-100575159D01*
X100640266Y-100586066D01*
X100629359Y-100595952D01*
X100617536Y-100604720D01*
X100604910Y-100612288D01*
X100591603Y-100618582D01*
X100577743Y-100623541D01*
X100563464Y-100627118D01*
X100548903Y-100629278D01*
X100534200Y-100630000D01*
X98884200Y-100630000D01*
X98869497Y-100629278D01*
X98854936Y-100627118D01*
X98840657Y-100623541D01*
X98826797Y-100618582D01*
X98813490Y-100612288D01*
X98800864Y-100604720D01*
X98789041Y-100595952D01*
X98778134Y-100586066D01*
X98768248Y-100575159D01*
X98759480Y-100563336D01*
X98751912Y-100550710D01*
X98745618Y-100537403D01*
X98740659Y-100523543D01*
X98737082Y-100509264D01*
X98734922Y-100494703D01*
X98734200Y-100480000D01*
X98734200Y-100180000D01*
X98734922Y-100165297D01*
X98737082Y-100150736D01*
X98740659Y-100136457D01*
X98745618Y-100122597D01*
X98751912Y-100109290D01*
X98759480Y-100096664D01*
X98768248Y-100084841D01*
X98778134Y-100073934D01*
X98789041Y-100064048D01*
X98800864Y-100055280D01*
X98813490Y-100047712D01*
X98826797Y-100041418D01*
X98840657Y-100036459D01*
X98854936Y-100032882D01*
X98869497Y-100030722D01*
X98884200Y-100030000D01*
X100534200Y-100030000D01*
X100548903Y-100030722D01*
G37*
G04 #@! TD.AperFunction*
G04 #@! TA.AperFunction,SMDPad,CuDef*
G36*
X100548903Y-101300722D02*
G01*
X100563464Y-101302882D01*
X100577743Y-101306459D01*
X100591603Y-101311418D01*
X100604910Y-101317712D01*
X100617536Y-101325280D01*
X100629359Y-101334048D01*
X100640266Y-101343934D01*
X100650152Y-101354841D01*
X100658920Y-101366664D01*
X100666488Y-101379290D01*
X100672782Y-101392597D01*
X100677741Y-101406457D01*
X100681318Y-101420736D01*
X100683478Y-101435297D01*
X100684200Y-101450000D01*
X100684200Y-101750000D01*
X100683478Y-101764703D01*
X100681318Y-101779264D01*
X100677741Y-101793543D01*
X100672782Y-101807403D01*
X100666488Y-101820710D01*
X100658920Y-101833336D01*
X100650152Y-101845159D01*
X100640266Y-101856066D01*
X100629359Y-101865952D01*
X100617536Y-101874720D01*
X100604910Y-101882288D01*
X100591603Y-101888582D01*
X100577743Y-101893541D01*
X100563464Y-101897118D01*
X100548903Y-101899278D01*
X100534200Y-101900000D01*
X98884200Y-101900000D01*
X98869497Y-101899278D01*
X98854936Y-101897118D01*
X98840657Y-101893541D01*
X98826797Y-101888582D01*
X98813490Y-101882288D01*
X98800864Y-101874720D01*
X98789041Y-101865952D01*
X98778134Y-101856066D01*
X98768248Y-101845159D01*
X98759480Y-101833336D01*
X98751912Y-101820710D01*
X98745618Y-101807403D01*
X98740659Y-101793543D01*
X98737082Y-101779264D01*
X98734922Y-101764703D01*
X98734200Y-101750000D01*
X98734200Y-101450000D01*
X98734922Y-101435297D01*
X98737082Y-101420736D01*
X98740659Y-101406457D01*
X98745618Y-101392597D01*
X98751912Y-101379290D01*
X98759480Y-101366664D01*
X98768248Y-101354841D01*
X98778134Y-101343934D01*
X98789041Y-101334048D01*
X98800864Y-101325280D01*
X98813490Y-101317712D01*
X98826797Y-101311418D01*
X98840657Y-101306459D01*
X98854936Y-101302882D01*
X98869497Y-101300722D01*
X98884200Y-101300000D01*
X100534200Y-101300000D01*
X100548903Y-101300722D01*
G37*
G04 #@! TD.AperFunction*
G04 #@! TA.AperFunction,SMDPad,CuDef*
G36*
X100548903Y-102570722D02*
G01*
X100563464Y-102572882D01*
X100577743Y-102576459D01*
X100591603Y-102581418D01*
X100604910Y-102587712D01*
X100617536Y-102595280D01*
X100629359Y-102604048D01*
X100640266Y-102613934D01*
X100650152Y-102624841D01*
X100658920Y-102636664D01*
X100666488Y-102649290D01*
X100672782Y-102662597D01*
X100677741Y-102676457D01*
X100681318Y-102690736D01*
X100683478Y-102705297D01*
X100684200Y-102720000D01*
X100684200Y-103020000D01*
X100683478Y-103034703D01*
X100681318Y-103049264D01*
X100677741Y-103063543D01*
X100672782Y-103077403D01*
X100666488Y-103090710D01*
X100658920Y-103103336D01*
X100650152Y-103115159D01*
X100640266Y-103126066D01*
X100629359Y-103135952D01*
X100617536Y-103144720D01*
X100604910Y-103152288D01*
X100591603Y-103158582D01*
X100577743Y-103163541D01*
X100563464Y-103167118D01*
X100548903Y-103169278D01*
X100534200Y-103170000D01*
X98884200Y-103170000D01*
X98869497Y-103169278D01*
X98854936Y-103167118D01*
X98840657Y-103163541D01*
X98826797Y-103158582D01*
X98813490Y-103152288D01*
X98800864Y-103144720D01*
X98789041Y-103135952D01*
X98778134Y-103126066D01*
X98768248Y-103115159D01*
X98759480Y-103103336D01*
X98751912Y-103090710D01*
X98745618Y-103077403D01*
X98740659Y-103063543D01*
X98737082Y-103049264D01*
X98734922Y-103034703D01*
X98734200Y-103020000D01*
X98734200Y-102720000D01*
X98734922Y-102705297D01*
X98737082Y-102690736D01*
X98740659Y-102676457D01*
X98745618Y-102662597D01*
X98751912Y-102649290D01*
X98759480Y-102636664D01*
X98768248Y-102624841D01*
X98778134Y-102613934D01*
X98789041Y-102604048D01*
X98800864Y-102595280D01*
X98813490Y-102587712D01*
X98826797Y-102581418D01*
X98840657Y-102576459D01*
X98854936Y-102572882D01*
X98869497Y-102570722D01*
X98884200Y-102570000D01*
X100534200Y-102570000D01*
X100548903Y-102570722D01*
G37*
G04 #@! TD.AperFunction*
G04 #@! TA.AperFunction,SMDPad,CuDef*
G36*
X105498903Y-102570722D02*
G01*
X105513464Y-102572882D01*
X105527743Y-102576459D01*
X105541603Y-102581418D01*
X105554910Y-102587712D01*
X105567536Y-102595280D01*
X105579359Y-102604048D01*
X105590266Y-102613934D01*
X105600152Y-102624841D01*
X105608920Y-102636664D01*
X105616488Y-102649290D01*
X105622782Y-102662597D01*
X105627741Y-102676457D01*
X105631318Y-102690736D01*
X105633478Y-102705297D01*
X105634200Y-102720000D01*
X105634200Y-103020000D01*
X105633478Y-103034703D01*
X105631318Y-103049264D01*
X105627741Y-103063543D01*
X105622782Y-103077403D01*
X105616488Y-103090710D01*
X105608920Y-103103336D01*
X105600152Y-103115159D01*
X105590266Y-103126066D01*
X105579359Y-103135952D01*
X105567536Y-103144720D01*
X105554910Y-103152288D01*
X105541603Y-103158582D01*
X105527743Y-103163541D01*
X105513464Y-103167118D01*
X105498903Y-103169278D01*
X105484200Y-103170000D01*
X103834200Y-103170000D01*
X103819497Y-103169278D01*
X103804936Y-103167118D01*
X103790657Y-103163541D01*
X103776797Y-103158582D01*
X103763490Y-103152288D01*
X103750864Y-103144720D01*
X103739041Y-103135952D01*
X103728134Y-103126066D01*
X103718248Y-103115159D01*
X103709480Y-103103336D01*
X103701912Y-103090710D01*
X103695618Y-103077403D01*
X103690659Y-103063543D01*
X103687082Y-103049264D01*
X103684922Y-103034703D01*
X103684200Y-103020000D01*
X103684200Y-102720000D01*
X103684922Y-102705297D01*
X103687082Y-102690736D01*
X103690659Y-102676457D01*
X103695618Y-102662597D01*
X103701912Y-102649290D01*
X103709480Y-102636664D01*
X103718248Y-102624841D01*
X103728134Y-102613934D01*
X103739041Y-102604048D01*
X103750864Y-102595280D01*
X103763490Y-102587712D01*
X103776797Y-102581418D01*
X103790657Y-102576459D01*
X103804936Y-102572882D01*
X103819497Y-102570722D01*
X103834200Y-102570000D01*
X105484200Y-102570000D01*
X105498903Y-102570722D01*
G37*
G04 #@! TD.AperFunction*
G04 #@! TA.AperFunction,SMDPad,CuDef*
G36*
X105498903Y-101300722D02*
G01*
X105513464Y-101302882D01*
X105527743Y-101306459D01*
X105541603Y-101311418D01*
X105554910Y-101317712D01*
X105567536Y-101325280D01*
X105579359Y-101334048D01*
X105590266Y-101343934D01*
X105600152Y-101354841D01*
X105608920Y-101366664D01*
X105616488Y-101379290D01*
X105622782Y-101392597D01*
X105627741Y-101406457D01*
X105631318Y-101420736D01*
X105633478Y-101435297D01*
X105634200Y-101450000D01*
X105634200Y-101750000D01*
X105633478Y-101764703D01*
X105631318Y-101779264D01*
X105627741Y-101793543D01*
X105622782Y-101807403D01*
X105616488Y-101820710D01*
X105608920Y-101833336D01*
X105600152Y-101845159D01*
X105590266Y-101856066D01*
X105579359Y-101865952D01*
X105567536Y-101874720D01*
X105554910Y-101882288D01*
X105541603Y-101888582D01*
X105527743Y-101893541D01*
X105513464Y-101897118D01*
X105498903Y-101899278D01*
X105484200Y-101900000D01*
X103834200Y-101900000D01*
X103819497Y-101899278D01*
X103804936Y-101897118D01*
X103790657Y-101893541D01*
X103776797Y-101888582D01*
X103763490Y-101882288D01*
X103750864Y-101874720D01*
X103739041Y-101865952D01*
X103728134Y-101856066D01*
X103718248Y-101845159D01*
X103709480Y-101833336D01*
X103701912Y-101820710D01*
X103695618Y-101807403D01*
X103690659Y-101793543D01*
X103687082Y-101779264D01*
X103684922Y-101764703D01*
X103684200Y-101750000D01*
X103684200Y-101450000D01*
X103684922Y-101435297D01*
X103687082Y-101420736D01*
X103690659Y-101406457D01*
X103695618Y-101392597D01*
X103701912Y-101379290D01*
X103709480Y-101366664D01*
X103718248Y-101354841D01*
X103728134Y-101343934D01*
X103739041Y-101334048D01*
X103750864Y-101325280D01*
X103763490Y-101317712D01*
X103776797Y-101311418D01*
X103790657Y-101306459D01*
X103804936Y-101302882D01*
X103819497Y-101300722D01*
X103834200Y-101300000D01*
X105484200Y-101300000D01*
X105498903Y-101300722D01*
G37*
G04 #@! TD.AperFunction*
G04 #@! TA.AperFunction,SMDPad,CuDef*
G36*
X105498903Y-100030722D02*
G01*
X105513464Y-100032882D01*
X105527743Y-100036459D01*
X105541603Y-100041418D01*
X105554910Y-100047712D01*
X105567536Y-100055280D01*
X105579359Y-100064048D01*
X105590266Y-100073934D01*
X105600152Y-100084841D01*
X105608920Y-100096664D01*
X105616488Y-100109290D01*
X105622782Y-100122597D01*
X105627741Y-100136457D01*
X105631318Y-100150736D01*
X105633478Y-100165297D01*
X105634200Y-100180000D01*
X105634200Y-100480000D01*
X105633478Y-100494703D01*
X105631318Y-100509264D01*
X105627741Y-100523543D01*
X105622782Y-100537403D01*
X105616488Y-100550710D01*
X105608920Y-100563336D01*
X105600152Y-100575159D01*
X105590266Y-100586066D01*
X105579359Y-100595952D01*
X105567536Y-100604720D01*
X105554910Y-100612288D01*
X105541603Y-100618582D01*
X105527743Y-100623541D01*
X105513464Y-100627118D01*
X105498903Y-100629278D01*
X105484200Y-100630000D01*
X103834200Y-100630000D01*
X103819497Y-100629278D01*
X103804936Y-100627118D01*
X103790657Y-100623541D01*
X103776797Y-100618582D01*
X103763490Y-100612288D01*
X103750864Y-100604720D01*
X103739041Y-100595952D01*
X103728134Y-100586066D01*
X103718248Y-100575159D01*
X103709480Y-100563336D01*
X103701912Y-100550710D01*
X103695618Y-100537403D01*
X103690659Y-100523543D01*
X103687082Y-100509264D01*
X103684922Y-100494703D01*
X103684200Y-100480000D01*
X103684200Y-100180000D01*
X103684922Y-100165297D01*
X103687082Y-100150736D01*
X103690659Y-100136457D01*
X103695618Y-100122597D01*
X103701912Y-100109290D01*
X103709480Y-100096664D01*
X103718248Y-100084841D01*
X103728134Y-100073934D01*
X103739041Y-100064048D01*
X103750864Y-100055280D01*
X103763490Y-100047712D01*
X103776797Y-100041418D01*
X103790657Y-100036459D01*
X103804936Y-100032882D01*
X103819497Y-100030722D01*
X103834200Y-100030000D01*
X105484200Y-100030000D01*
X105498903Y-100030722D01*
G37*
G04 #@! TD.AperFunction*
G04 #@! TA.AperFunction,SMDPad,CuDef*
G36*
X105498903Y-98760722D02*
G01*
X105513464Y-98762882D01*
X105527743Y-98766459D01*
X105541603Y-98771418D01*
X105554910Y-98777712D01*
X105567536Y-98785280D01*
X105579359Y-98794048D01*
X105590266Y-98803934D01*
X105600152Y-98814841D01*
X105608920Y-98826664D01*
X105616488Y-98839290D01*
X105622782Y-98852597D01*
X105627741Y-98866457D01*
X105631318Y-98880736D01*
X105633478Y-98895297D01*
X105634200Y-98910000D01*
X105634200Y-99210000D01*
X105633478Y-99224703D01*
X105631318Y-99239264D01*
X105627741Y-99253543D01*
X105622782Y-99267403D01*
X105616488Y-99280710D01*
X105608920Y-99293336D01*
X105600152Y-99305159D01*
X105590266Y-99316066D01*
X105579359Y-99325952D01*
X105567536Y-99334720D01*
X105554910Y-99342288D01*
X105541603Y-99348582D01*
X105527743Y-99353541D01*
X105513464Y-99357118D01*
X105498903Y-99359278D01*
X105484200Y-99360000D01*
X103834200Y-99360000D01*
X103819497Y-99359278D01*
X103804936Y-99357118D01*
X103790657Y-99353541D01*
X103776797Y-99348582D01*
X103763490Y-99342288D01*
X103750864Y-99334720D01*
X103739041Y-99325952D01*
X103728134Y-99316066D01*
X103718248Y-99305159D01*
X103709480Y-99293336D01*
X103701912Y-99280710D01*
X103695618Y-99267403D01*
X103690659Y-99253543D01*
X103687082Y-99239264D01*
X103684922Y-99224703D01*
X103684200Y-99210000D01*
X103684200Y-98910000D01*
X103684922Y-98895297D01*
X103687082Y-98880736D01*
X103690659Y-98866457D01*
X103695618Y-98852597D01*
X103701912Y-98839290D01*
X103709480Y-98826664D01*
X103718248Y-98814841D01*
X103728134Y-98803934D01*
X103739041Y-98794048D01*
X103750864Y-98785280D01*
X103763490Y-98777712D01*
X103776797Y-98771418D01*
X103790657Y-98766459D01*
X103804936Y-98762882D01*
X103819497Y-98760722D01*
X103834200Y-98760000D01*
X105484200Y-98760000D01*
X105498903Y-98760722D01*
G37*
G04 #@! TD.AperFunction*
G04 #@! TA.AperFunction,SMDPad,CuDef*
G36*
X101483710Y-94043202D02*
G01*
X101507935Y-94046795D01*
X101531691Y-94052746D01*
X101554749Y-94060996D01*
X101576887Y-94071467D01*
X101597893Y-94084057D01*
X101617563Y-94098645D01*
X101635708Y-94115092D01*
X101652155Y-94133237D01*
X101666743Y-94152907D01*
X101679333Y-94173913D01*
X101689804Y-94196051D01*
X101698054Y-94219109D01*
X101704005Y-94242865D01*
X101707598Y-94267090D01*
X101708800Y-94291550D01*
X101708800Y-95192450D01*
X101707598Y-95216910D01*
X101704005Y-95241135D01*
X101698054Y-95264891D01*
X101689804Y-95287949D01*
X101679333Y-95310087D01*
X101666743Y-95331093D01*
X101652155Y-95350763D01*
X101635708Y-95368908D01*
X101617563Y-95385355D01*
X101597893Y-95399943D01*
X101576887Y-95412533D01*
X101554749Y-95423004D01*
X101531691Y-95431254D01*
X101507935Y-95437205D01*
X101483710Y-95440798D01*
X101459250Y-95442000D01*
X100808350Y-95442000D01*
X100783890Y-95440798D01*
X100759665Y-95437205D01*
X100735909Y-95431254D01*
X100712851Y-95423004D01*
X100690713Y-95412533D01*
X100669707Y-95399943D01*
X100650037Y-95385355D01*
X100631892Y-95368908D01*
X100615445Y-95350763D01*
X100600857Y-95331093D01*
X100588267Y-95310087D01*
X100577796Y-95287949D01*
X100569546Y-95264891D01*
X100563595Y-95241135D01*
X100560002Y-95216910D01*
X100558800Y-95192450D01*
X100558800Y-94291550D01*
X100560002Y-94267090D01*
X100563595Y-94242865D01*
X100569546Y-94219109D01*
X100577796Y-94196051D01*
X100588267Y-94173913D01*
X100600857Y-94152907D01*
X100615445Y-94133237D01*
X100631892Y-94115092D01*
X100650037Y-94098645D01*
X100669707Y-94084057D01*
X100690713Y-94071467D01*
X100712851Y-94060996D01*
X100735909Y-94052746D01*
X100759665Y-94046795D01*
X100783890Y-94043202D01*
X100808350Y-94042000D01*
X101459250Y-94042000D01*
X101483710Y-94043202D01*
G37*
G04 #@! TD.AperFunction*
G04 #@! TA.AperFunction,SMDPad,CuDef*
G36*
X103533710Y-94043202D02*
G01*
X103557935Y-94046795D01*
X103581691Y-94052746D01*
X103604749Y-94060996D01*
X103626887Y-94071467D01*
X103647893Y-94084057D01*
X103667563Y-94098645D01*
X103685708Y-94115092D01*
X103702155Y-94133237D01*
X103716743Y-94152907D01*
X103729333Y-94173913D01*
X103739804Y-94196051D01*
X103748054Y-94219109D01*
X103754005Y-94242865D01*
X103757598Y-94267090D01*
X103758800Y-94291550D01*
X103758800Y-95192450D01*
X103757598Y-95216910D01*
X103754005Y-95241135D01*
X103748054Y-95264891D01*
X103739804Y-95287949D01*
X103729333Y-95310087D01*
X103716743Y-95331093D01*
X103702155Y-95350763D01*
X103685708Y-95368908D01*
X103667563Y-95385355D01*
X103647893Y-95399943D01*
X103626887Y-95412533D01*
X103604749Y-95423004D01*
X103581691Y-95431254D01*
X103557935Y-95437205D01*
X103533710Y-95440798D01*
X103509250Y-95442000D01*
X102858350Y-95442000D01*
X102833890Y-95440798D01*
X102809665Y-95437205D01*
X102785909Y-95431254D01*
X102762851Y-95423004D01*
X102740713Y-95412533D01*
X102719707Y-95399943D01*
X102700037Y-95385355D01*
X102681892Y-95368908D01*
X102665445Y-95350763D01*
X102650857Y-95331093D01*
X102638267Y-95310087D01*
X102627796Y-95287949D01*
X102619546Y-95264891D01*
X102613595Y-95241135D01*
X102610002Y-95216910D01*
X102608800Y-95192450D01*
X102608800Y-94291550D01*
X102610002Y-94267090D01*
X102613595Y-94242865D01*
X102619546Y-94219109D01*
X102627796Y-94196051D01*
X102638267Y-94173913D01*
X102650857Y-94152907D01*
X102665445Y-94133237D01*
X102681892Y-94115092D01*
X102700037Y-94098645D01*
X102719707Y-94084057D01*
X102740713Y-94071467D01*
X102762851Y-94060996D01*
X102785909Y-94052746D01*
X102809665Y-94046795D01*
X102833890Y-94043202D01*
X102858350Y-94042000D01*
X103509250Y-94042000D01*
X103533710Y-94043202D01*
G37*
G04 #@! TD.AperFunction*
D16*
X84074000Y-106680000D03*
D17*
X84074000Y-104140000D03*
D18*
X91839400Y-101505000D03*
D19*
X92989400Y-105505000D03*
D18*
X94139400Y-101505000D03*
D20*
X100158800Y-87343600D03*
D19*
X104158800Y-88493600D03*
D20*
X100158800Y-89643600D03*
G04 #@! TA.AperFunction,SMDPad,CuDef*
D13*
G36*
X110964579Y-82330144D02*
G01*
X110987634Y-82333563D01*
X111010243Y-82339227D01*
X111032187Y-82347079D01*
X111053257Y-82357044D01*
X111073248Y-82369026D01*
X111091968Y-82382910D01*
X111109238Y-82398562D01*
X111124890Y-82415832D01*
X111138774Y-82434552D01*
X111150756Y-82454543D01*
X111160721Y-82475613D01*
X111168573Y-82497557D01*
X111174237Y-82520166D01*
X111177656Y-82543221D01*
X111178800Y-82566500D01*
X111178800Y-83041500D01*
X111177656Y-83064779D01*
X111174237Y-83087834D01*
X111168573Y-83110443D01*
X111160721Y-83132387D01*
X111150756Y-83153457D01*
X111138774Y-83173448D01*
X111124890Y-83192168D01*
X111109238Y-83209438D01*
X111091968Y-83225090D01*
X111073248Y-83238974D01*
X111053257Y-83250956D01*
X111032187Y-83260921D01*
X111010243Y-83268773D01*
X110987634Y-83274437D01*
X110964579Y-83277856D01*
X110941300Y-83279000D01*
X110366300Y-83279000D01*
X110343021Y-83277856D01*
X110319966Y-83274437D01*
X110297357Y-83268773D01*
X110275413Y-83260921D01*
X110254343Y-83250956D01*
X110234352Y-83238974D01*
X110215632Y-83225090D01*
X110198362Y-83209438D01*
X110182710Y-83192168D01*
X110168826Y-83173448D01*
X110156844Y-83153457D01*
X110146879Y-83132387D01*
X110139027Y-83110443D01*
X110133363Y-83087834D01*
X110129944Y-83064779D01*
X110128800Y-83041500D01*
X110128800Y-82566500D01*
X110129944Y-82543221D01*
X110133363Y-82520166D01*
X110139027Y-82497557D01*
X110146879Y-82475613D01*
X110156844Y-82454543D01*
X110168826Y-82434552D01*
X110182710Y-82415832D01*
X110198362Y-82398562D01*
X110215632Y-82382910D01*
X110234352Y-82369026D01*
X110254343Y-82357044D01*
X110275413Y-82347079D01*
X110297357Y-82339227D01*
X110319966Y-82333563D01*
X110343021Y-82330144D01*
X110366300Y-82329000D01*
X110941300Y-82329000D01*
X110964579Y-82330144D01*
G37*
G04 #@! TD.AperFunction*
G04 #@! TA.AperFunction,SMDPad,CuDef*
G36*
X109214579Y-82330144D02*
G01*
X109237634Y-82333563D01*
X109260243Y-82339227D01*
X109282187Y-82347079D01*
X109303257Y-82357044D01*
X109323248Y-82369026D01*
X109341968Y-82382910D01*
X109359238Y-82398562D01*
X109374890Y-82415832D01*
X109388774Y-82434552D01*
X109400756Y-82454543D01*
X109410721Y-82475613D01*
X109418573Y-82497557D01*
X109424237Y-82520166D01*
X109427656Y-82543221D01*
X109428800Y-82566500D01*
X109428800Y-83041500D01*
X109427656Y-83064779D01*
X109424237Y-83087834D01*
X109418573Y-83110443D01*
X109410721Y-83132387D01*
X109400756Y-83153457D01*
X109388774Y-83173448D01*
X109374890Y-83192168D01*
X109359238Y-83209438D01*
X109341968Y-83225090D01*
X109323248Y-83238974D01*
X109303257Y-83250956D01*
X109282187Y-83260921D01*
X109260243Y-83268773D01*
X109237634Y-83274437D01*
X109214579Y-83277856D01*
X109191300Y-83279000D01*
X108616300Y-83279000D01*
X108593021Y-83277856D01*
X108569966Y-83274437D01*
X108547357Y-83268773D01*
X108525413Y-83260921D01*
X108504343Y-83250956D01*
X108484352Y-83238974D01*
X108465632Y-83225090D01*
X108448362Y-83209438D01*
X108432710Y-83192168D01*
X108418826Y-83173448D01*
X108406844Y-83153457D01*
X108396879Y-83132387D01*
X108389027Y-83110443D01*
X108383363Y-83087834D01*
X108379944Y-83064779D01*
X108378800Y-83041500D01*
X108378800Y-82566500D01*
X108379944Y-82543221D01*
X108383363Y-82520166D01*
X108389027Y-82497557D01*
X108396879Y-82475613D01*
X108406844Y-82454543D01*
X108418826Y-82434552D01*
X108432710Y-82415832D01*
X108448362Y-82398562D01*
X108465632Y-82382910D01*
X108484352Y-82369026D01*
X108504343Y-82357044D01*
X108525413Y-82347079D01*
X108547357Y-82339227D01*
X108569966Y-82333563D01*
X108593021Y-82330144D01*
X108616300Y-82329000D01*
X109191300Y-82329000D01*
X109214579Y-82330144D01*
G37*
G04 #@! TD.AperFunction*
G04 #@! TA.AperFunction,SMDPad,CuDef*
G36*
X109951179Y-105571144D02*
G01*
X109974234Y-105574563D01*
X109996843Y-105580227D01*
X110018787Y-105588079D01*
X110039857Y-105598044D01*
X110059848Y-105610026D01*
X110078568Y-105623910D01*
X110095838Y-105639562D01*
X110111490Y-105656832D01*
X110125374Y-105675552D01*
X110137356Y-105695543D01*
X110147321Y-105716613D01*
X110155173Y-105738557D01*
X110160837Y-105761166D01*
X110164256Y-105784221D01*
X110165400Y-105807500D01*
X110165400Y-106282500D01*
X110164256Y-106305779D01*
X110160837Y-106328834D01*
X110155173Y-106351443D01*
X110147321Y-106373387D01*
X110137356Y-106394457D01*
X110125374Y-106414448D01*
X110111490Y-106433168D01*
X110095838Y-106450438D01*
X110078568Y-106466090D01*
X110059848Y-106479974D01*
X110039857Y-106491956D01*
X110018787Y-106501921D01*
X109996843Y-106509773D01*
X109974234Y-106515437D01*
X109951179Y-106518856D01*
X109927900Y-106520000D01*
X109352900Y-106520000D01*
X109329621Y-106518856D01*
X109306566Y-106515437D01*
X109283957Y-106509773D01*
X109262013Y-106501921D01*
X109240943Y-106491956D01*
X109220952Y-106479974D01*
X109202232Y-106466090D01*
X109184962Y-106450438D01*
X109169310Y-106433168D01*
X109155426Y-106414448D01*
X109143444Y-106394457D01*
X109133479Y-106373387D01*
X109125627Y-106351443D01*
X109119963Y-106328834D01*
X109116544Y-106305779D01*
X109115400Y-106282500D01*
X109115400Y-105807500D01*
X109116544Y-105784221D01*
X109119963Y-105761166D01*
X109125627Y-105738557D01*
X109133479Y-105716613D01*
X109143444Y-105695543D01*
X109155426Y-105675552D01*
X109169310Y-105656832D01*
X109184962Y-105639562D01*
X109202232Y-105623910D01*
X109220952Y-105610026D01*
X109240943Y-105598044D01*
X109262013Y-105588079D01*
X109283957Y-105580227D01*
X109306566Y-105574563D01*
X109329621Y-105571144D01*
X109352900Y-105570000D01*
X109927900Y-105570000D01*
X109951179Y-105571144D01*
G37*
G04 #@! TD.AperFunction*
G04 #@! TA.AperFunction,SMDPad,CuDef*
G36*
X111701179Y-105571144D02*
G01*
X111724234Y-105574563D01*
X111746843Y-105580227D01*
X111768787Y-105588079D01*
X111789857Y-105598044D01*
X111809848Y-105610026D01*
X111828568Y-105623910D01*
X111845838Y-105639562D01*
X111861490Y-105656832D01*
X111875374Y-105675552D01*
X111887356Y-105695543D01*
X111897321Y-105716613D01*
X111905173Y-105738557D01*
X111910837Y-105761166D01*
X111914256Y-105784221D01*
X111915400Y-105807500D01*
X111915400Y-106282500D01*
X111914256Y-106305779D01*
X111910837Y-106328834D01*
X111905173Y-106351443D01*
X111897321Y-106373387D01*
X111887356Y-106394457D01*
X111875374Y-106414448D01*
X111861490Y-106433168D01*
X111845838Y-106450438D01*
X111828568Y-106466090D01*
X111809848Y-106479974D01*
X111789857Y-106491956D01*
X111768787Y-106501921D01*
X111746843Y-106509773D01*
X111724234Y-106515437D01*
X111701179Y-106518856D01*
X111677900Y-106520000D01*
X111102900Y-106520000D01*
X111079621Y-106518856D01*
X111056566Y-106515437D01*
X111033957Y-106509773D01*
X111012013Y-106501921D01*
X110990943Y-106491956D01*
X110970952Y-106479974D01*
X110952232Y-106466090D01*
X110934962Y-106450438D01*
X110919310Y-106433168D01*
X110905426Y-106414448D01*
X110893444Y-106394457D01*
X110883479Y-106373387D01*
X110875627Y-106351443D01*
X110869963Y-106328834D01*
X110866544Y-106305779D01*
X110865400Y-106282500D01*
X110865400Y-105807500D01*
X110866544Y-105784221D01*
X110869963Y-105761166D01*
X110875627Y-105738557D01*
X110883479Y-105716613D01*
X110893444Y-105695543D01*
X110905426Y-105675552D01*
X110919310Y-105656832D01*
X110934962Y-105639562D01*
X110952232Y-105623910D01*
X110970952Y-105610026D01*
X110990943Y-105598044D01*
X111012013Y-105588079D01*
X111033957Y-105580227D01*
X111056566Y-105574563D01*
X111079621Y-105571144D01*
X111102900Y-105570000D01*
X111677900Y-105570000D01*
X111701179Y-105571144D01*
G37*
G04 #@! TD.AperFunction*
G04 #@! TA.AperFunction,SMDPad,CuDef*
G36*
X103983704Y-106441204D02*
G01*
X104007973Y-106444804D01*
X104031771Y-106450765D01*
X104054871Y-106459030D01*
X104077049Y-106469520D01*
X104098093Y-106482133D01*
X104117798Y-106496747D01*
X104135977Y-106513223D01*
X104152453Y-106531402D01*
X104167067Y-106551107D01*
X104179680Y-106572151D01*
X104190170Y-106594329D01*
X104198435Y-106617429D01*
X104204396Y-106641227D01*
X104207996Y-106665496D01*
X104209200Y-106690000D01*
X104209200Y-107940000D01*
X104207996Y-107964504D01*
X104204396Y-107988773D01*
X104198435Y-108012571D01*
X104190170Y-108035671D01*
X104179680Y-108057849D01*
X104167067Y-108078893D01*
X104152453Y-108098598D01*
X104135977Y-108116777D01*
X104117798Y-108133253D01*
X104098093Y-108147867D01*
X104077049Y-108160480D01*
X104054871Y-108170970D01*
X104031771Y-108179235D01*
X104007973Y-108185196D01*
X103983704Y-108188796D01*
X103959200Y-108190000D01*
X103209200Y-108190000D01*
X103184696Y-108188796D01*
X103160427Y-108185196D01*
X103136629Y-108179235D01*
X103113529Y-108170970D01*
X103091351Y-108160480D01*
X103070307Y-108147867D01*
X103050602Y-108133253D01*
X103032423Y-108116777D01*
X103015947Y-108098598D01*
X103001333Y-108078893D01*
X102988720Y-108057849D01*
X102978230Y-108035671D01*
X102969965Y-108012571D01*
X102964004Y-107988773D01*
X102960404Y-107964504D01*
X102959200Y-107940000D01*
X102959200Y-106690000D01*
X102960404Y-106665496D01*
X102964004Y-106641227D01*
X102969965Y-106617429D01*
X102978230Y-106594329D01*
X102988720Y-106572151D01*
X103001333Y-106551107D01*
X103015947Y-106531402D01*
X103032423Y-106513223D01*
X103050602Y-106496747D01*
X103070307Y-106482133D01*
X103091351Y-106469520D01*
X103113529Y-106459030D01*
X103136629Y-106450765D01*
X103160427Y-106444804D01*
X103184696Y-106441204D01*
X103209200Y-106440000D01*
X103959200Y-106440000D01*
X103983704Y-106441204D01*
G37*
G04 #@! TD.AperFunction*
G04 #@! TA.AperFunction,SMDPad,CuDef*
G36*
X101183704Y-106441204D02*
G01*
X101207973Y-106444804D01*
X101231771Y-106450765D01*
X101254871Y-106459030D01*
X101277049Y-106469520D01*
X101298093Y-106482133D01*
X101317798Y-106496747D01*
X101335977Y-106513223D01*
X101352453Y-106531402D01*
X101367067Y-106551107D01*
X101379680Y-106572151D01*
X101390170Y-106594329D01*
X101398435Y-106617429D01*
X101404396Y-106641227D01*
X101407996Y-106665496D01*
X101409200Y-106690000D01*
X101409200Y-107940000D01*
X101407996Y-107964504D01*
X101404396Y-107988773D01*
X101398435Y-108012571D01*
X101390170Y-108035671D01*
X101379680Y-108057849D01*
X101367067Y-108078893D01*
X101352453Y-108098598D01*
X101335977Y-108116777D01*
X101317798Y-108133253D01*
X101298093Y-108147867D01*
X101277049Y-108160480D01*
X101254871Y-108170970D01*
X101231771Y-108179235D01*
X101207973Y-108185196D01*
X101183704Y-108188796D01*
X101159200Y-108190000D01*
X100409200Y-108190000D01*
X100384696Y-108188796D01*
X100360427Y-108185196D01*
X100336629Y-108179235D01*
X100313529Y-108170970D01*
X100291351Y-108160480D01*
X100270307Y-108147867D01*
X100250602Y-108133253D01*
X100232423Y-108116777D01*
X100215947Y-108098598D01*
X100201333Y-108078893D01*
X100188720Y-108057849D01*
X100178230Y-108035671D01*
X100169965Y-108012571D01*
X100164004Y-107988773D01*
X100160404Y-107964504D01*
X100159200Y-107940000D01*
X100159200Y-106690000D01*
X100160404Y-106665496D01*
X100164004Y-106641227D01*
X100169965Y-106617429D01*
X100178230Y-106594329D01*
X100188720Y-106572151D01*
X100201333Y-106551107D01*
X100215947Y-106531402D01*
X100232423Y-106513223D01*
X100250602Y-106496747D01*
X100270307Y-106482133D01*
X100291351Y-106469520D01*
X100313529Y-106459030D01*
X100336629Y-106450765D01*
X100360427Y-106444804D01*
X100384696Y-106441204D01*
X100409200Y-106440000D01*
X101159200Y-106440000D01*
X101183704Y-106441204D01*
G37*
G04 #@! TD.AperFunction*
D21*
X84074000Y-91821000D03*
X84074000Y-89789000D03*
X84074000Y-87757000D03*
D22*
X84074000Y-93980000D03*
X84074000Y-85598000D03*
D23*
X99658400Y-97282000D03*
X111988600Y-82829400D03*
X92938600Y-77724000D03*
X99683800Y-77012796D03*
X111540400Y-102479998D03*
X102997000Y-83769196D03*
X97918308Y-79629000D03*
X87884000Y-91490800D03*
X92938600Y-113690400D03*
X87884000Y-88747600D03*
X104648000Y-97282000D03*
X97840800Y-102844600D03*
X95935800Y-82296000D03*
X99568000Y-83515200D03*
X104648000Y-77012800D03*
X96266000Y-101523800D03*
X106400600Y-100330000D03*
D24*
X99658400Y-99034600D02*
X99658400Y-97016800D01*
D25*
X99658400Y-97016800D02*
X99658400Y-97270798D01*
X111963200Y-82854800D02*
X111988600Y-82829400D01*
X110653800Y-82854800D02*
X111963200Y-82854800D01*
X92951300Y-77711300D02*
X92938600Y-77724000D01*
X92951300Y-75184000D02*
X92951300Y-77711300D01*
D24*
X99658400Y-96217400D02*
X101133800Y-94742000D01*
X99658400Y-97270798D02*
X99658400Y-96217400D01*
D25*
X99683800Y-78359000D02*
X99683800Y-77012796D01*
D26*
X111540400Y-102479998D02*
X111540400Y-100939600D01*
X111540400Y-105895000D02*
X111540400Y-102479998D01*
X111390400Y-106045000D02*
X111540400Y-105895000D01*
D25*
X96126300Y-75184000D02*
X96126300Y-77836992D01*
X99582200Y-79629000D02*
X97918308Y-79629000D01*
X96126300Y-77836992D02*
X97918308Y-79629000D01*
D27*
X102997000Y-83050776D02*
X102997000Y-83769196D01*
X102997000Y-81662400D02*
X102997000Y-83050776D01*
X103760400Y-80899000D02*
X102997000Y-81662400D01*
X104633800Y-81000600D02*
X104532200Y-80899000D01*
X104532200Y-80899000D02*
X103760400Y-80899000D01*
D26*
X103008800Y-89643600D02*
X104158800Y-88493600D01*
X100158800Y-89643600D02*
X103008800Y-89643600D01*
D27*
X104158800Y-84930996D02*
X102997000Y-83769196D01*
X104158800Y-88493600D02*
X104158800Y-84930996D01*
D25*
X105583400Y-101574600D02*
X104608400Y-101574600D01*
D24*
X104583000Y-101600000D02*
X104608400Y-101574600D01*
X94640400Y-97307400D02*
X97663000Y-100330000D01*
X97663000Y-100330000D02*
X101854000Y-100330000D01*
X94640400Y-95885000D02*
X94640400Y-97307400D01*
X101854000Y-100330000D02*
X103124000Y-101600000D01*
X103124000Y-101600000D02*
X104583000Y-101600000D01*
D25*
X108903800Y-82804000D02*
X108903800Y-82854800D01*
X104735400Y-82169000D02*
X108268800Y-82169000D01*
X108268800Y-82169000D02*
X108903800Y-82804000D01*
D24*
X108830000Y-101600000D02*
X104659200Y-101600000D01*
X109490400Y-100939600D02*
X108830000Y-101600000D01*
D25*
X104633800Y-102844600D02*
X104608400Y-102844600D01*
X104659200Y-102870000D02*
X104633800Y-102844600D01*
D24*
X108254800Y-102844600D02*
X105583400Y-102844600D01*
X109640400Y-106045000D02*
X109640400Y-104230200D01*
X109640400Y-104230200D02*
X108254800Y-102844600D01*
D25*
X95688800Y-84168600D02*
X95688800Y-85344000D01*
X98425000Y-80899000D02*
X97383600Y-81940400D01*
X97383600Y-81940400D02*
X97383600Y-82473800D01*
X99582200Y-80899000D02*
X98425000Y-80899000D01*
X97383600Y-82473800D02*
X95688800Y-84168600D01*
D28*
X87884000Y-108635800D02*
X92938600Y-113690400D01*
X87884000Y-91490800D02*
X87884000Y-108635800D01*
D26*
X93610000Y-88747600D02*
X87884000Y-88747600D01*
X95688800Y-85344000D02*
X95688800Y-86668800D01*
X95688800Y-86668800D02*
X93610000Y-88747600D01*
D25*
X93138800Y-82579400D02*
X93138800Y-80619600D01*
X93388800Y-85217000D02*
X93388800Y-82829400D01*
X93388800Y-82829400D02*
X93138800Y-82579400D01*
D28*
X108791200Y-111175800D02*
X127374799Y-111175800D01*
X127374799Y-111175800D02*
X133350000Y-117151001D01*
X103584200Y-107315000D02*
X104930400Y-107315000D01*
X104930400Y-107315000D02*
X108791200Y-111175800D01*
D27*
X101955600Y-85546800D02*
X100158800Y-87343600D01*
X101955600Y-81356200D02*
X101955600Y-85546800D01*
X104633800Y-79629000D02*
X103682800Y-79629000D01*
X103682800Y-79629000D02*
X101955600Y-81356200D01*
D25*
X111178800Y-78965600D02*
X111178800Y-77724000D01*
X104735400Y-79629000D02*
X110515400Y-79629000D01*
X110515400Y-79629000D02*
X111178800Y-78965600D01*
X99658400Y-102844600D02*
X97840800Y-102844600D01*
X95938800Y-82293000D02*
X95935800Y-82296000D01*
X95938800Y-80619600D02*
X95938800Y-82293000D01*
D27*
X103403400Y-78359000D02*
X101168200Y-80594200D01*
X104633800Y-78359000D02*
X103403400Y-78359000D01*
X101168200Y-80594200D02*
X101168200Y-81864200D01*
X101168200Y-81864200D02*
X100863400Y-82169000D01*
X100863400Y-82169000D02*
X99785400Y-82169000D01*
D25*
X99582200Y-82270600D02*
X99568000Y-82284800D01*
X99568000Y-82284800D02*
X99568000Y-82796780D01*
X99568000Y-82796780D02*
X99568000Y-83515200D01*
D28*
X96850200Y-103835200D02*
X97840800Y-102844600D01*
X95250000Y-116840000D02*
X96850200Y-115239800D01*
X96850200Y-115239800D02*
X96850200Y-103835200D01*
X96875600Y-103809800D02*
X97840800Y-102844600D01*
D24*
X104659200Y-99060000D02*
X104659200Y-96217400D01*
X104633800Y-78359000D02*
X104633800Y-77027000D01*
D25*
X104633800Y-77027000D02*
X104648000Y-77012800D01*
D24*
X108378800Y-77724000D02*
X108378800Y-76304600D01*
D26*
X86512400Y-90195400D02*
X84074000Y-87757000D01*
X103183800Y-93797390D02*
X102096410Y-92710000D01*
X103183800Y-94742000D02*
X103183800Y-93797390D01*
X102096410Y-92710000D02*
X96113600Y-92710000D01*
X96113600Y-92710000D02*
X93599000Y-90195400D01*
X93599000Y-90195400D02*
X86512400Y-90195400D01*
D24*
X109242400Y-93094000D02*
X109242400Y-95885000D01*
X113411000Y-88925400D02*
X109242400Y-93094000D01*
X108378800Y-76304600D02*
X108378800Y-75923600D01*
X108378800Y-75923600D02*
X108966000Y-75336400D01*
X113411000Y-75971400D02*
X113411000Y-88925400D01*
X108966000Y-75336400D02*
X112776000Y-75336400D01*
X112776000Y-75336400D02*
X113411000Y-75971400D01*
D25*
X105155999Y-76504801D02*
X104648000Y-77012800D01*
X108378800Y-75923600D02*
X105737200Y-75923600D01*
X105737200Y-75923600D02*
X105155999Y-76504801D01*
D24*
X103848600Y-94742000D02*
X103183800Y-94742000D01*
X104659200Y-96217400D02*
X104659200Y-95552600D01*
X104659200Y-95552600D02*
X103848600Y-94742000D01*
X104659200Y-95794600D02*
X104659200Y-96217400D01*
X109242400Y-95885000D02*
X104749600Y-95885000D01*
X104749600Y-95885000D02*
X104659200Y-95794600D01*
X104633800Y-100330000D02*
X106400600Y-100330000D01*
X104608400Y-100304600D02*
X104633800Y-100330000D01*
D28*
X94158200Y-101523800D02*
X96266000Y-101523800D01*
X94139400Y-101505000D02*
X94158200Y-101523800D01*
X91839400Y-96484000D02*
X91240400Y-95885000D01*
X91839400Y-101505000D02*
X91839400Y-96484000D01*
D29*
X92692600Y-105208200D02*
X92989400Y-105208200D01*
D26*
X91839400Y-104355000D02*
X92989400Y-105505000D01*
X91839400Y-101505000D02*
X91839400Y-104355000D01*
D24*
X99683800Y-101600000D02*
X101015800Y-101600000D01*
X99658400Y-101574600D02*
X99683800Y-101600000D01*
X100939600Y-107315000D02*
X100784200Y-107315000D01*
X101015800Y-101600000D02*
X102209600Y-102793800D01*
X102209600Y-102793800D02*
X102209600Y-106045000D01*
X102209600Y-106045000D02*
X100939600Y-107315000D01*
D28*
X102057200Y-116840000D02*
X102870000Y-116840000D01*
X100784200Y-107315000D02*
X100784200Y-115567000D01*
X100784200Y-115567000D02*
X102057200Y-116840000D01*
D25*
X82778600Y-102844600D02*
X84074000Y-104140000D01*
X82245200Y-102311200D02*
X82778600Y-102844600D01*
X84074000Y-89789000D02*
X82245200Y-91617800D01*
X82245200Y-91617800D02*
X82245200Y-102311200D01*
X111506000Y-98069400D02*
X108661200Y-98069400D01*
X108661200Y-98069400D02*
X106400600Y-100330000D01*
X112042400Y-95885000D02*
X112042400Y-97533000D01*
X112042400Y-97533000D02*
X111506000Y-98069400D01*
M02*
