M48
; DRILL file {KiCad (5.1.5)-3} date 6/16/2020 1:41:40 AM
; FORMAT={-:-/ absolute / inch / decimal}
; #@! TF.CreationDate,2020-06-16T01:41:40-04:00
; #@! TF.GenerationSoftware,Kicad,Pcbnew,(5.1.5)-3
; #@! TF.FileFunction,NonPlated,1,2,NPTH
FMAT,2
INCH
T1C0.1500
%
G90
G05
T1
X4.9Y-3.5622
X4.9Y-3.7622
X4.9Y-3.9622
X5.0Y-3.3622
X5.0Y-4.1622
X5.1Y-3.5622
X5.1Y-3.7622
X5.1Y-3.9622
X5.2Y-3.3622
X5.2Y-4.1622
X5.3Y-3.5622
X5.3Y-3.7622
X5.3Y-3.9622
X5.4Y-3.3622
X5.4Y-4.1622
X5.5Y-3.5622
X5.5Y-3.7622
X5.5Y-3.9622
X5.6Y-3.3622
X5.6Y-4.1622
X5.7Y-3.5622
X5.7Y-3.7622
X5.7Y-3.9622
T0
M30
