G04 #@! TF.GenerationSoftware,KiCad,Pcbnew,(5.1.5)-3*
G04 #@! TF.CreationDate,2020-06-16T01:41:36-04:00*
G04 #@! TF.ProjectId,SMT-Theremin-v1,534d542d-5468-4657-9265-6d696e2d7631,rev?*
G04 #@! TF.SameCoordinates,Original*
G04 #@! TF.FileFunction,Soldermask,Top*
G04 #@! TF.FilePolarity,Negative*
%FSLAX46Y46*%
G04 Gerber Fmt 4.6, Leading zero omitted, Abs format (unit mm)*
G04 Created by KiCad (PCBNEW (5.1.5)-3) date 2020-06-16 01:41:36*
%MOMM*%
%LPD*%
G04 APERTURE LIST*
%ADD10C,0.100000*%
G04 APERTURE END LIST*
D10*
G36*
X118650850Y-115057056D02*
G01*
X118988293Y-115196829D01*
X119291984Y-115399749D01*
X119550251Y-115658016D01*
X119753171Y-115961707D01*
X119892944Y-116299150D01*
X119964200Y-116657377D01*
X119964200Y-117022623D01*
X119892944Y-117380850D01*
X119753171Y-117718293D01*
X119550251Y-118021984D01*
X119291984Y-118280251D01*
X118988293Y-118483171D01*
X118650850Y-118622944D01*
X118292623Y-118694200D01*
X117927377Y-118694200D01*
X117569150Y-118622944D01*
X117231707Y-118483171D01*
X116928016Y-118280251D01*
X116669749Y-118021984D01*
X116466829Y-117718293D01*
X116327056Y-117380850D01*
X116255800Y-117022623D01*
X116255800Y-116657377D01*
X116327056Y-116299150D01*
X116466829Y-115961707D01*
X116669749Y-115658016D01*
X116928016Y-115399749D01*
X117231707Y-115196829D01*
X117569150Y-115057056D01*
X117927377Y-114985800D01*
X118292623Y-114985800D01*
X118650850Y-115057056D01*
G37*
G36*
X111030850Y-115057056D02*
G01*
X111368293Y-115196829D01*
X111671984Y-115399749D01*
X111930251Y-115658016D01*
X112133171Y-115961707D01*
X112272944Y-116299150D01*
X112344200Y-116657377D01*
X112344200Y-117022623D01*
X112272944Y-117380850D01*
X112133171Y-117718293D01*
X111930251Y-118021984D01*
X111671984Y-118280251D01*
X111368293Y-118483171D01*
X111030850Y-118622944D01*
X110672623Y-118694200D01*
X110307377Y-118694200D01*
X109949150Y-118622944D01*
X109611707Y-118483171D01*
X109308016Y-118280251D01*
X109049749Y-118021984D01*
X108846829Y-117718293D01*
X108707056Y-117380850D01*
X108635800Y-117022623D01*
X108635800Y-116657377D01*
X108707056Y-116299150D01*
X108846829Y-115961707D01*
X109049749Y-115658016D01*
X109308016Y-115399749D01*
X109611707Y-115196829D01*
X109949150Y-115057056D01*
X110307377Y-114985800D01*
X110672623Y-114985800D01*
X111030850Y-115057056D01*
G37*
G36*
X95790850Y-115057056D02*
G01*
X96128293Y-115196829D01*
X96431984Y-115399749D01*
X96690251Y-115658016D01*
X96893171Y-115961707D01*
X97032944Y-116299150D01*
X97104200Y-116657377D01*
X97104200Y-117022623D01*
X97032944Y-117380850D01*
X96893171Y-117718293D01*
X96690251Y-118021984D01*
X96431984Y-118280251D01*
X96128293Y-118483171D01*
X95790850Y-118622944D01*
X95432623Y-118694200D01*
X95067377Y-118694200D01*
X94709150Y-118622944D01*
X94371707Y-118483171D01*
X94068016Y-118280251D01*
X93809749Y-118021984D01*
X93606829Y-117718293D01*
X93467056Y-117380850D01*
X93395800Y-117022623D01*
X93395800Y-116657377D01*
X93467056Y-116299150D01*
X93606829Y-115961707D01*
X93809749Y-115658016D01*
X94068016Y-115399749D01*
X94371707Y-115196829D01*
X94709150Y-115057056D01*
X95067377Y-114985800D01*
X95432623Y-114985800D01*
X95790850Y-115057056D01*
G37*
G36*
X103410850Y-115057056D02*
G01*
X103748293Y-115196829D01*
X104051984Y-115399749D01*
X104310251Y-115658016D01*
X104513171Y-115961707D01*
X104652944Y-116299150D01*
X104724200Y-116657377D01*
X104724200Y-117022623D01*
X104652944Y-117380850D01*
X104513171Y-117718293D01*
X104310251Y-118021984D01*
X104051984Y-118280251D01*
X103748293Y-118483171D01*
X103410850Y-118622944D01*
X103052623Y-118694200D01*
X102687377Y-118694200D01*
X102329150Y-118622944D01*
X101991707Y-118483171D01*
X101688016Y-118280251D01*
X101429749Y-118021984D01*
X101226829Y-117718293D01*
X101087056Y-117380850D01*
X101015800Y-117022623D01*
X101015800Y-116657377D01*
X101087056Y-116299150D01*
X101226829Y-115961707D01*
X101429749Y-115658016D01*
X101688016Y-115399749D01*
X101991707Y-115196829D01*
X102329150Y-115057056D01*
X102687377Y-114985800D01*
X103052623Y-114985800D01*
X103410850Y-115057056D01*
G37*
G36*
X133687105Y-116039714D02*
G01*
X133897429Y-116126833D01*
X134086716Y-116253310D01*
X134247691Y-116414285D01*
X134374168Y-116603572D01*
X134461287Y-116813896D01*
X134495443Y-116985608D01*
X134502668Y-117009426D01*
X134514404Y-117031382D01*
X134530198Y-117050627D01*
X134549443Y-117066421D01*
X134571400Y-117078157D01*
X134595224Y-117085384D01*
X134620000Y-117087824D01*
X134644777Y-117085384D01*
X134668601Y-117078157D01*
X134690557Y-117066421D01*
X134709802Y-117050627D01*
X134725596Y-117031382D01*
X134737332Y-117009425D01*
X134744557Y-116985608D01*
X134778713Y-116813896D01*
X134865832Y-116603572D01*
X134992309Y-116414285D01*
X135153284Y-116253310D01*
X135342571Y-116126833D01*
X135552895Y-116039714D01*
X135776173Y-115995301D01*
X136003827Y-115995301D01*
X136227105Y-116039714D01*
X136437429Y-116126833D01*
X136626716Y-116253310D01*
X136787691Y-116414285D01*
X136914168Y-116603572D01*
X137001287Y-116813896D01*
X137045700Y-117037174D01*
X137045700Y-117264828D01*
X137001287Y-117488106D01*
X136914168Y-117698430D01*
X136787691Y-117887717D01*
X136626716Y-118048692D01*
X136437429Y-118175169D01*
X136227105Y-118262288D01*
X136003827Y-118306701D01*
X135776173Y-118306701D01*
X135552895Y-118262288D01*
X135342571Y-118175169D01*
X135153284Y-118048692D01*
X134992309Y-117887717D01*
X134865832Y-117698430D01*
X134778713Y-117488106D01*
X134744557Y-117316394D01*
X134737332Y-117292576D01*
X134725596Y-117270620D01*
X134709802Y-117251375D01*
X134690557Y-117235581D01*
X134668600Y-117223845D01*
X134644776Y-117216618D01*
X134620000Y-117214178D01*
X134595223Y-117216618D01*
X134571399Y-117223845D01*
X134549443Y-117235581D01*
X134530198Y-117251375D01*
X134514404Y-117270620D01*
X134502668Y-117292577D01*
X134495443Y-117316394D01*
X134461287Y-117488106D01*
X134374168Y-117698430D01*
X134247691Y-117887717D01*
X134086716Y-118048692D01*
X133897429Y-118175169D01*
X133687105Y-118262288D01*
X133463827Y-118306701D01*
X133236173Y-118306701D01*
X133012895Y-118262288D01*
X132802571Y-118175169D01*
X132613284Y-118048692D01*
X132452309Y-117887717D01*
X132325832Y-117698430D01*
X132238713Y-117488106D01*
X132194300Y-117264828D01*
X132194300Y-117037174D01*
X132238713Y-116813896D01*
X132325832Y-116603572D01*
X132452309Y-116414285D01*
X132613284Y-116253310D01*
X132802571Y-116126833D01*
X133012895Y-116039714D01*
X133236173Y-115995301D01*
X133463827Y-115995301D01*
X133687105Y-116039714D01*
G37*
G36*
X152819073Y-111262696D02*
G01*
X153292772Y-111356920D01*
X153571279Y-111472282D01*
X153849785Y-111587643D01*
X153849786Y-111587644D01*
X154351083Y-111922599D01*
X154777401Y-112348917D01*
X155001211Y-112683873D01*
X155112357Y-112850215D01*
X155227718Y-113128721D01*
X155343080Y-113407228D01*
X155460700Y-113998548D01*
X155460700Y-114601452D01*
X155343080Y-115192772D01*
X155257347Y-115399749D01*
X155112357Y-115749785D01*
X155112356Y-115749786D01*
X154777401Y-116251083D01*
X154351083Y-116677401D01*
X154146803Y-116813896D01*
X153849785Y-117012357D01*
X153571279Y-117127718D01*
X153292772Y-117243080D01*
X152819073Y-117337304D01*
X152701453Y-117360700D01*
X152098547Y-117360700D01*
X151980927Y-117337304D01*
X151507228Y-117243080D01*
X151228721Y-117127718D01*
X150950215Y-117012357D01*
X150653197Y-116813896D01*
X150448917Y-116677401D01*
X150022599Y-116251083D01*
X149687644Y-115749786D01*
X149687643Y-115749785D01*
X149542653Y-115399749D01*
X149456920Y-115192772D01*
X149339300Y-114601452D01*
X149339300Y-113998548D01*
X149456920Y-113407228D01*
X149572282Y-113128721D01*
X149687643Y-112850215D01*
X149798789Y-112683873D01*
X150022599Y-112348917D01*
X150448917Y-111922599D01*
X150950214Y-111587644D01*
X150950215Y-111587643D01*
X151228721Y-111472282D01*
X151507228Y-111356920D01*
X151980927Y-111262696D01*
X152098547Y-111239300D01*
X152701453Y-111239300D01*
X152819073Y-111262696D01*
G37*
G36*
X86779073Y-111262696D02*
G01*
X87252772Y-111356920D01*
X87531279Y-111472282D01*
X87809785Y-111587643D01*
X87809786Y-111587644D01*
X88311083Y-111922599D01*
X88737401Y-112348917D01*
X88961211Y-112683873D01*
X89072357Y-112850215D01*
X89187718Y-113128721D01*
X89303080Y-113407228D01*
X89420700Y-113998548D01*
X89420700Y-114601452D01*
X89303080Y-115192772D01*
X89217347Y-115399749D01*
X89072357Y-115749785D01*
X89072356Y-115749786D01*
X88737401Y-116251083D01*
X88311083Y-116677401D01*
X88106803Y-116813896D01*
X87809785Y-117012357D01*
X87531279Y-117127718D01*
X87252772Y-117243080D01*
X86779073Y-117337304D01*
X86661453Y-117360700D01*
X86058547Y-117360700D01*
X85940927Y-117337304D01*
X85467228Y-117243080D01*
X85188721Y-117127718D01*
X84910215Y-117012357D01*
X84613197Y-116813896D01*
X84408917Y-116677401D01*
X83982599Y-116251083D01*
X83647644Y-115749786D01*
X83647643Y-115749785D01*
X83502653Y-115399749D01*
X83416920Y-115192772D01*
X83299300Y-114601452D01*
X83299300Y-113998548D01*
X83416920Y-113407228D01*
X83532282Y-113128721D01*
X83647643Y-112850215D01*
X83758789Y-112683873D01*
X83982599Y-112348917D01*
X84408917Y-111922599D01*
X84910214Y-111587644D01*
X84910215Y-111587643D01*
X85188721Y-111472282D01*
X85467228Y-111356920D01*
X85940927Y-111262696D01*
X86058547Y-111239300D01*
X86661453Y-111239300D01*
X86779073Y-111262696D01*
G37*
G36*
X101406961Y-106242304D02*
G01*
X101454701Y-106256785D01*
X101498693Y-106280299D01*
X101537254Y-106311946D01*
X101568901Y-106350507D01*
X101592415Y-106394499D01*
X101606896Y-106442239D01*
X101612400Y-106498116D01*
X101612400Y-108131884D01*
X101606896Y-108187761D01*
X101592415Y-108235501D01*
X101568901Y-108279493D01*
X101537254Y-108318054D01*
X101498693Y-108349701D01*
X101454701Y-108373215D01*
X101406961Y-108387696D01*
X101351084Y-108393200D01*
X100217316Y-108393200D01*
X100161439Y-108387696D01*
X100113699Y-108373215D01*
X100069707Y-108349701D01*
X100031146Y-108318054D01*
X99999499Y-108279493D01*
X99975985Y-108235501D01*
X99961504Y-108187761D01*
X99956000Y-108131884D01*
X99956000Y-106498116D01*
X99961504Y-106442239D01*
X99975985Y-106394499D01*
X99999499Y-106350507D01*
X100031146Y-106311946D01*
X100069707Y-106280299D01*
X100113699Y-106256785D01*
X100161439Y-106242304D01*
X100217316Y-106236800D01*
X101351084Y-106236800D01*
X101406961Y-106242304D01*
G37*
G36*
X104206961Y-106242304D02*
G01*
X104254701Y-106256785D01*
X104298693Y-106280299D01*
X104337254Y-106311946D01*
X104368901Y-106350507D01*
X104392415Y-106394499D01*
X104406896Y-106442239D01*
X104412400Y-106498116D01*
X104412400Y-108131884D01*
X104406896Y-108187761D01*
X104392415Y-108235501D01*
X104368901Y-108279493D01*
X104337254Y-108318054D01*
X104298693Y-108349701D01*
X104254701Y-108373215D01*
X104206961Y-108387696D01*
X104151084Y-108393200D01*
X103017316Y-108393200D01*
X102961439Y-108387696D01*
X102913699Y-108373215D01*
X102869707Y-108349701D01*
X102831146Y-108318054D01*
X102799499Y-108279493D01*
X102775985Y-108235501D01*
X102761504Y-108187761D01*
X102756000Y-108131884D01*
X102756000Y-106498116D01*
X102761504Y-106442239D01*
X102775985Y-106394499D01*
X102799499Y-106350507D01*
X102831146Y-106311946D01*
X102869707Y-106280299D01*
X102913699Y-106256785D01*
X102961439Y-106242304D01*
X103017316Y-106236800D01*
X104151084Y-106236800D01*
X104206961Y-106242304D01*
G37*
G36*
X137774939Y-103693818D02*
G01*
X138158607Y-103852738D01*
X138503899Y-104083455D01*
X138797546Y-104377102D01*
X139028263Y-104722394D01*
X139187183Y-105106062D01*
X139268200Y-105513361D01*
X139268200Y-105928641D01*
X139187183Y-106335940D01*
X139028263Y-106719608D01*
X138797546Y-107064900D01*
X138503899Y-107358547D01*
X138158607Y-107589264D01*
X137774939Y-107748184D01*
X137367640Y-107829201D01*
X136952360Y-107829201D01*
X136545061Y-107748184D01*
X136161393Y-107589264D01*
X135816101Y-107358547D01*
X135522454Y-107064900D01*
X135291737Y-106719608D01*
X135132817Y-106335940D01*
X135051800Y-105928641D01*
X135051800Y-105513361D01*
X135132817Y-105106062D01*
X135291737Y-104722394D01*
X135522454Y-104377102D01*
X135816101Y-104083455D01*
X136161393Y-103852738D01*
X136545061Y-103693818D01*
X136952360Y-103612801D01*
X137367640Y-103612801D01*
X137774939Y-103693818D01*
G37*
G36*
X142854939Y-103693818D02*
G01*
X143238607Y-103852738D01*
X143583899Y-104083455D01*
X143877546Y-104377102D01*
X144108263Y-104722394D01*
X144267183Y-105106062D01*
X144348200Y-105513361D01*
X144348200Y-105928641D01*
X144267183Y-106335940D01*
X144108263Y-106719608D01*
X143877546Y-107064900D01*
X143583899Y-107358547D01*
X143238607Y-107589264D01*
X142854939Y-107748184D01*
X142447640Y-107829201D01*
X142032360Y-107829201D01*
X141625061Y-107748184D01*
X141241393Y-107589264D01*
X140896101Y-107358547D01*
X140602454Y-107064900D01*
X140371737Y-106719608D01*
X140212817Y-106335940D01*
X140131800Y-105928641D01*
X140131800Y-105513361D01*
X140212817Y-105106062D01*
X140371737Y-104722394D01*
X140602454Y-104377102D01*
X140896101Y-104083455D01*
X141241393Y-103852738D01*
X141625061Y-103693818D01*
X142032360Y-103612801D01*
X142447640Y-103612801D01*
X142854939Y-103693818D01*
G37*
G36*
X127614939Y-103693818D02*
G01*
X127998607Y-103852738D01*
X128343899Y-104083455D01*
X128637546Y-104377102D01*
X128868263Y-104722394D01*
X129027183Y-105106062D01*
X129108200Y-105513361D01*
X129108200Y-105928641D01*
X129027183Y-106335940D01*
X128868263Y-106719608D01*
X128637546Y-107064900D01*
X128343899Y-107358547D01*
X127998607Y-107589264D01*
X127614939Y-107748184D01*
X127207640Y-107829201D01*
X126792360Y-107829201D01*
X126385061Y-107748184D01*
X126001393Y-107589264D01*
X125656101Y-107358547D01*
X125362454Y-107064900D01*
X125131737Y-106719608D01*
X124972817Y-106335940D01*
X124891800Y-105928641D01*
X124891800Y-105513361D01*
X124972817Y-105106062D01*
X125131737Y-104722394D01*
X125362454Y-104377102D01*
X125656101Y-104083455D01*
X126001393Y-103852738D01*
X126385061Y-103693818D01*
X126792360Y-103612801D01*
X127207640Y-103612801D01*
X127614939Y-103693818D01*
G37*
G36*
X132694939Y-103693818D02*
G01*
X133078607Y-103852738D01*
X133423899Y-104083455D01*
X133717546Y-104377102D01*
X133948263Y-104722394D01*
X134107183Y-105106062D01*
X134188200Y-105513361D01*
X134188200Y-105928641D01*
X134107183Y-106335940D01*
X133948263Y-106719608D01*
X133717546Y-107064900D01*
X133423899Y-107358547D01*
X133078607Y-107589264D01*
X132694939Y-107748184D01*
X132287640Y-107829201D01*
X131872360Y-107829201D01*
X131465061Y-107748184D01*
X131081393Y-107589264D01*
X130736101Y-107358547D01*
X130442454Y-107064900D01*
X130211737Y-106719608D01*
X130052817Y-106335940D01*
X129971800Y-105928641D01*
X129971800Y-105513361D01*
X130052817Y-105106062D01*
X130211737Y-104722394D01*
X130442454Y-104377102D01*
X130736101Y-104083455D01*
X131081393Y-103852738D01*
X131465061Y-103693818D01*
X131872360Y-103612801D01*
X132287640Y-103612801D01*
X132694939Y-103693818D01*
G37*
G36*
X85127200Y-107733200D02*
G01*
X83020800Y-107733200D01*
X83020800Y-105626800D01*
X85127200Y-105626800D01*
X85127200Y-107733200D01*
G37*
G36*
X110146643Y-105372698D02*
G01*
X110198234Y-105388347D01*
X110245773Y-105413757D01*
X110287444Y-105447956D01*
X110321643Y-105489627D01*
X110347053Y-105537166D01*
X110362702Y-105588757D01*
X110368600Y-105648634D01*
X110368600Y-106441366D01*
X110362702Y-106501243D01*
X110347053Y-106552834D01*
X110321643Y-106600373D01*
X110287444Y-106642044D01*
X110245773Y-106676243D01*
X110198234Y-106701653D01*
X110146643Y-106717302D01*
X110086766Y-106723200D01*
X109194034Y-106723200D01*
X109134157Y-106717302D01*
X109082566Y-106701653D01*
X109035027Y-106676243D01*
X108993356Y-106642044D01*
X108959157Y-106600373D01*
X108933747Y-106552834D01*
X108918098Y-106501243D01*
X108912200Y-106441366D01*
X108912200Y-105648634D01*
X108918098Y-105588757D01*
X108933747Y-105537166D01*
X108959157Y-105489627D01*
X108993356Y-105447956D01*
X109035027Y-105413757D01*
X109082566Y-105388347D01*
X109134157Y-105372698D01*
X109194034Y-105366800D01*
X110086766Y-105366800D01*
X110146643Y-105372698D01*
G37*
G36*
X111896643Y-105372698D02*
G01*
X111948234Y-105388347D01*
X111995773Y-105413757D01*
X112037444Y-105447956D01*
X112071643Y-105489627D01*
X112097053Y-105537166D01*
X112112702Y-105588757D01*
X112118600Y-105648634D01*
X112118600Y-106441366D01*
X112112702Y-106501243D01*
X112097053Y-106552834D01*
X112071643Y-106600373D01*
X112037444Y-106642044D01*
X111995773Y-106676243D01*
X111948234Y-106701653D01*
X111896643Y-106717302D01*
X111836766Y-106723200D01*
X110944034Y-106723200D01*
X110884157Y-106717302D01*
X110832566Y-106701653D01*
X110785027Y-106676243D01*
X110743356Y-106642044D01*
X110709157Y-106600373D01*
X110683747Y-106552834D01*
X110668098Y-106501243D01*
X110662200Y-106441366D01*
X110662200Y-105648634D01*
X110668098Y-105588757D01*
X110683747Y-105537166D01*
X110709157Y-105489627D01*
X110743356Y-105447956D01*
X110785027Y-105413757D01*
X110832566Y-105388347D01*
X110884157Y-105372698D01*
X110944034Y-105366800D01*
X111836766Y-105366800D01*
X111896643Y-105372698D01*
G37*
G36*
X94192600Y-106708200D02*
G01*
X91786200Y-106708200D01*
X91786200Y-104301800D01*
X94192600Y-104301800D01*
X94192600Y-106708200D01*
G37*
G36*
X84381207Y-103127274D02*
G01*
X84572877Y-103206666D01*
X84745376Y-103321926D01*
X84892074Y-103468624D01*
X85007334Y-103641123D01*
X85086726Y-103832793D01*
X85127200Y-104036269D01*
X85127200Y-104243731D01*
X85086726Y-104447207D01*
X85007334Y-104638877D01*
X84892074Y-104811376D01*
X84745376Y-104958074D01*
X84572877Y-105073334D01*
X84381207Y-105152726D01*
X84177731Y-105193200D01*
X83970269Y-105193200D01*
X83766793Y-105152726D01*
X83575123Y-105073334D01*
X83402624Y-104958074D01*
X83255926Y-104811376D01*
X83140666Y-104638877D01*
X83061274Y-104447207D01*
X83020800Y-104243731D01*
X83020800Y-104036269D01*
X83061274Y-103832793D01*
X83140666Y-103641123D01*
X83255926Y-103468624D01*
X83402624Y-103321926D01*
X83575123Y-103206666D01*
X83766793Y-103127274D01*
X83970269Y-103086800D01*
X84177731Y-103086800D01*
X84381207Y-103127274D01*
G37*
G36*
X105685876Y-102371017D02*
G01*
X105721046Y-102381685D01*
X105753463Y-102399013D01*
X105781872Y-102422328D01*
X105805187Y-102450737D01*
X105822515Y-102483154D01*
X105833183Y-102518324D01*
X105837400Y-102561136D01*
X105837400Y-103178864D01*
X105833183Y-103221676D01*
X105822515Y-103256846D01*
X105805187Y-103289263D01*
X105781872Y-103317672D01*
X105753463Y-103340987D01*
X105721046Y-103358315D01*
X105685876Y-103368983D01*
X105643064Y-103373200D01*
X103675336Y-103373200D01*
X103632524Y-103368983D01*
X103597354Y-103358315D01*
X103564937Y-103340987D01*
X103536528Y-103317672D01*
X103513213Y-103289263D01*
X103495885Y-103256846D01*
X103485217Y-103221676D01*
X103481000Y-103178864D01*
X103481000Y-102561136D01*
X103485217Y-102518324D01*
X103495885Y-102483154D01*
X103513213Y-102450737D01*
X103536528Y-102422328D01*
X103564937Y-102399013D01*
X103597354Y-102381685D01*
X103632524Y-102371017D01*
X103675336Y-102366800D01*
X105643064Y-102366800D01*
X105685876Y-102371017D01*
G37*
G36*
X100735876Y-102371017D02*
G01*
X100771046Y-102381685D01*
X100803463Y-102399013D01*
X100831872Y-102422328D01*
X100855187Y-102450737D01*
X100872515Y-102483154D01*
X100883183Y-102518324D01*
X100887400Y-102561136D01*
X100887400Y-103178864D01*
X100883183Y-103221676D01*
X100872515Y-103256846D01*
X100855187Y-103289263D01*
X100831872Y-103317672D01*
X100803463Y-103340987D01*
X100771046Y-103358315D01*
X100735876Y-103368983D01*
X100693064Y-103373200D01*
X98725336Y-103373200D01*
X98682524Y-103368983D01*
X98647354Y-103358315D01*
X98614937Y-103340987D01*
X98586528Y-103317672D01*
X98563213Y-103289263D01*
X98545885Y-103256846D01*
X98535217Y-103221676D01*
X98531000Y-103178864D01*
X98531000Y-102561136D01*
X98535217Y-102518324D01*
X98545885Y-102483154D01*
X98563213Y-102450737D01*
X98586528Y-102422328D01*
X98614937Y-102399013D01*
X98647354Y-102381685D01*
X98682524Y-102371017D01*
X98725336Y-102366800D01*
X100693064Y-102366800D01*
X100735876Y-102371017D01*
G37*
G36*
X145394939Y-98613818D02*
G01*
X145778607Y-98772738D01*
X146123899Y-99003455D01*
X146417546Y-99297102D01*
X146648263Y-99642394D01*
X146807183Y-100026062D01*
X146888200Y-100433361D01*
X146888200Y-100848641D01*
X146807183Y-101255940D01*
X146648263Y-101639608D01*
X146417546Y-101984900D01*
X146123899Y-102278547D01*
X145778607Y-102509264D01*
X145394939Y-102668184D01*
X144987640Y-102749201D01*
X144572360Y-102749201D01*
X144165061Y-102668184D01*
X143781393Y-102509264D01*
X143436101Y-102278547D01*
X143142454Y-101984900D01*
X142911737Y-101639608D01*
X142752817Y-101255940D01*
X142671800Y-100848641D01*
X142671800Y-100433361D01*
X142752817Y-100026062D01*
X142911737Y-99642394D01*
X143142454Y-99297102D01*
X143436101Y-99003455D01*
X143781393Y-98772738D01*
X144165061Y-98613818D01*
X144572360Y-98532801D01*
X144987640Y-98532801D01*
X145394939Y-98613818D01*
G37*
G36*
X140314939Y-98613818D02*
G01*
X140698607Y-98772738D01*
X141043899Y-99003455D01*
X141337546Y-99297102D01*
X141568263Y-99642394D01*
X141727183Y-100026062D01*
X141808200Y-100433361D01*
X141808200Y-100848641D01*
X141727183Y-101255940D01*
X141568263Y-101639608D01*
X141337546Y-101984900D01*
X141043899Y-102278547D01*
X140698607Y-102509264D01*
X140314939Y-102668184D01*
X139907640Y-102749201D01*
X139492360Y-102749201D01*
X139085061Y-102668184D01*
X138701393Y-102509264D01*
X138356101Y-102278547D01*
X138062454Y-101984900D01*
X137831737Y-101639608D01*
X137672817Y-101255940D01*
X137591800Y-100848641D01*
X137591800Y-100433361D01*
X137672817Y-100026062D01*
X137831737Y-99642394D01*
X138062454Y-99297102D01*
X138356101Y-99003455D01*
X138701393Y-98772738D01*
X139085061Y-98613818D01*
X139492360Y-98532801D01*
X139907640Y-98532801D01*
X140314939Y-98613818D01*
G37*
G36*
X130154939Y-98613818D02*
G01*
X130538607Y-98772738D01*
X130883899Y-99003455D01*
X131177546Y-99297102D01*
X131408263Y-99642394D01*
X131567183Y-100026062D01*
X131648200Y-100433361D01*
X131648200Y-100848641D01*
X131567183Y-101255940D01*
X131408263Y-101639608D01*
X131177546Y-101984900D01*
X130883899Y-102278547D01*
X130538607Y-102509264D01*
X130154939Y-102668184D01*
X129747640Y-102749201D01*
X129332360Y-102749201D01*
X128925061Y-102668184D01*
X128541393Y-102509264D01*
X128196101Y-102278547D01*
X127902454Y-101984900D01*
X127671737Y-101639608D01*
X127512817Y-101255940D01*
X127431800Y-100848641D01*
X127431800Y-100433361D01*
X127512817Y-100026062D01*
X127671737Y-99642394D01*
X127902454Y-99297102D01*
X128196101Y-99003455D01*
X128541393Y-98772738D01*
X128925061Y-98613818D01*
X129332360Y-98532801D01*
X129747640Y-98532801D01*
X130154939Y-98613818D01*
G37*
G36*
X125074939Y-98613818D02*
G01*
X125458607Y-98772738D01*
X125803899Y-99003455D01*
X126097546Y-99297102D01*
X126328263Y-99642394D01*
X126487183Y-100026062D01*
X126568200Y-100433361D01*
X126568200Y-100848641D01*
X126487183Y-101255940D01*
X126328263Y-101639608D01*
X126097546Y-101984900D01*
X125803899Y-102278547D01*
X125458607Y-102509264D01*
X125074939Y-102668184D01*
X124667640Y-102749201D01*
X124252360Y-102749201D01*
X123845061Y-102668184D01*
X123461393Y-102509264D01*
X123116101Y-102278547D01*
X122822454Y-101984900D01*
X122591737Y-101639608D01*
X122432817Y-101255940D01*
X122351800Y-100848641D01*
X122351800Y-100433361D01*
X122432817Y-100026062D01*
X122591737Y-99642394D01*
X122822454Y-99297102D01*
X123116101Y-99003455D01*
X123461393Y-98772738D01*
X123845061Y-98613818D01*
X124252360Y-98532801D01*
X124667640Y-98532801D01*
X125074939Y-98613818D01*
G37*
G36*
X135234939Y-98613818D02*
G01*
X135618607Y-98772738D01*
X135963899Y-99003455D01*
X136257546Y-99297102D01*
X136488263Y-99642394D01*
X136647183Y-100026062D01*
X136728200Y-100433361D01*
X136728200Y-100848641D01*
X136647183Y-101255940D01*
X136488263Y-101639608D01*
X136257546Y-101984900D01*
X135963899Y-102278547D01*
X135618607Y-102509264D01*
X135234939Y-102668184D01*
X134827640Y-102749201D01*
X134412360Y-102749201D01*
X134005061Y-102668184D01*
X133621393Y-102509264D01*
X133276101Y-102278547D01*
X132982454Y-101984900D01*
X132751737Y-101639608D01*
X132592817Y-101255940D01*
X132511800Y-100848641D01*
X132511800Y-100433361D01*
X132592817Y-100026062D01*
X132751737Y-99642394D01*
X132982454Y-99297102D01*
X133276101Y-99003455D01*
X133621393Y-98772738D01*
X134005061Y-98613818D01*
X134412360Y-98532801D01*
X134827640Y-98532801D01*
X135234939Y-98613818D01*
G37*
G36*
X94992600Y-102708200D02*
G01*
X93286200Y-102708200D01*
X93286200Y-100301800D01*
X94992600Y-100301800D01*
X94992600Y-102708200D01*
G37*
G36*
X92692600Y-102708200D02*
G01*
X90986200Y-102708200D01*
X90986200Y-100301800D01*
X92692600Y-100301800D01*
X92692600Y-102708200D01*
G37*
G36*
X100735876Y-101101017D02*
G01*
X100771046Y-101111685D01*
X100803463Y-101129013D01*
X100831872Y-101152328D01*
X100855187Y-101180737D01*
X100872515Y-101213154D01*
X100883183Y-101248324D01*
X100887400Y-101291136D01*
X100887400Y-101908864D01*
X100883183Y-101951676D01*
X100872515Y-101986846D01*
X100855187Y-102019263D01*
X100831872Y-102047672D01*
X100803463Y-102070987D01*
X100771046Y-102088315D01*
X100735876Y-102098983D01*
X100693064Y-102103200D01*
X98725336Y-102103200D01*
X98682524Y-102098983D01*
X98647354Y-102088315D01*
X98614937Y-102070987D01*
X98586528Y-102047672D01*
X98563213Y-102019263D01*
X98545885Y-101986846D01*
X98535217Y-101951676D01*
X98531000Y-101908864D01*
X98531000Y-101291136D01*
X98535217Y-101248324D01*
X98545885Y-101213154D01*
X98563213Y-101180737D01*
X98586528Y-101152328D01*
X98614937Y-101129013D01*
X98647354Y-101111685D01*
X98682524Y-101101017D01*
X98725336Y-101096800D01*
X100693064Y-101096800D01*
X100735876Y-101101017D01*
G37*
G36*
X105685876Y-101101017D02*
G01*
X105721046Y-101111685D01*
X105753463Y-101129013D01*
X105781872Y-101152328D01*
X105805187Y-101180737D01*
X105822515Y-101213154D01*
X105833183Y-101248324D01*
X105837400Y-101291136D01*
X105837400Y-101908864D01*
X105833183Y-101951676D01*
X105822515Y-101986846D01*
X105805187Y-102019263D01*
X105781872Y-102047672D01*
X105753463Y-102070987D01*
X105721046Y-102088315D01*
X105685876Y-102098983D01*
X105643064Y-102103200D01*
X103675336Y-102103200D01*
X103632524Y-102098983D01*
X103597354Y-102088315D01*
X103564937Y-102070987D01*
X103536528Y-102047672D01*
X103513213Y-102019263D01*
X103495885Y-101986846D01*
X103485217Y-101951676D01*
X103481000Y-101908864D01*
X103481000Y-101291136D01*
X103485217Y-101248324D01*
X103495885Y-101213154D01*
X103513213Y-101180737D01*
X103536528Y-101152328D01*
X103564937Y-101129013D01*
X103597354Y-101111685D01*
X103632524Y-101101017D01*
X103675336Y-101096800D01*
X105643064Y-101096800D01*
X105685876Y-101101017D01*
G37*
G36*
X112104486Y-100067511D02*
G01*
X112154248Y-100082605D01*
X112200103Y-100107115D01*
X112240298Y-100140102D01*
X112273285Y-100180297D01*
X112297795Y-100226152D01*
X112312889Y-100275914D01*
X112318600Y-100333893D01*
X112318600Y-101596107D01*
X112312889Y-101654086D01*
X112297795Y-101703848D01*
X112273285Y-101749703D01*
X112240298Y-101789898D01*
X112200103Y-101822885D01*
X112154248Y-101847395D01*
X112104486Y-101862489D01*
X112046507Y-101868200D01*
X111034293Y-101868200D01*
X110976314Y-101862489D01*
X110926552Y-101847395D01*
X110880697Y-101822885D01*
X110840502Y-101789898D01*
X110807515Y-101749703D01*
X110783005Y-101703848D01*
X110767911Y-101654086D01*
X110762200Y-101596107D01*
X110762200Y-100333893D01*
X110767911Y-100275914D01*
X110783005Y-100226152D01*
X110807515Y-100180297D01*
X110840502Y-100140102D01*
X110880697Y-100107115D01*
X110926552Y-100082605D01*
X110976314Y-100067511D01*
X111034293Y-100061800D01*
X112046507Y-100061800D01*
X112104486Y-100067511D01*
G37*
G36*
X110054486Y-100067511D02*
G01*
X110104248Y-100082605D01*
X110150103Y-100107115D01*
X110190298Y-100140102D01*
X110223285Y-100180297D01*
X110247795Y-100226152D01*
X110262889Y-100275914D01*
X110268600Y-100333893D01*
X110268600Y-101596107D01*
X110262889Y-101654086D01*
X110247795Y-101703848D01*
X110223285Y-101749703D01*
X110190298Y-101789898D01*
X110150103Y-101822885D01*
X110104248Y-101847395D01*
X110054486Y-101862489D01*
X109996507Y-101868200D01*
X108984293Y-101868200D01*
X108926314Y-101862489D01*
X108876552Y-101847395D01*
X108830697Y-101822885D01*
X108790502Y-101789898D01*
X108757515Y-101749703D01*
X108733005Y-101703848D01*
X108717911Y-101654086D01*
X108712200Y-101596107D01*
X108712200Y-100333893D01*
X108717911Y-100275914D01*
X108733005Y-100226152D01*
X108757515Y-100180297D01*
X108790502Y-100140102D01*
X108830697Y-100107115D01*
X108876552Y-100082605D01*
X108926314Y-100067511D01*
X108984293Y-100061800D01*
X109996507Y-100061800D01*
X110054486Y-100067511D01*
G37*
G36*
X100735876Y-99831017D02*
G01*
X100771046Y-99841685D01*
X100803463Y-99859013D01*
X100831872Y-99882328D01*
X100855187Y-99910737D01*
X100872515Y-99943154D01*
X100883183Y-99978324D01*
X100887400Y-100021136D01*
X100887400Y-100638864D01*
X100883183Y-100681676D01*
X100872515Y-100716846D01*
X100855187Y-100749263D01*
X100831872Y-100777672D01*
X100803463Y-100800987D01*
X100771046Y-100818315D01*
X100735876Y-100828983D01*
X100693064Y-100833200D01*
X98725336Y-100833200D01*
X98682524Y-100828983D01*
X98647354Y-100818315D01*
X98614937Y-100800987D01*
X98586528Y-100777672D01*
X98563213Y-100749263D01*
X98545885Y-100716846D01*
X98535217Y-100681676D01*
X98531000Y-100638864D01*
X98531000Y-100021136D01*
X98535217Y-99978324D01*
X98545885Y-99943154D01*
X98563213Y-99910737D01*
X98586528Y-99882328D01*
X98614937Y-99859013D01*
X98647354Y-99841685D01*
X98682524Y-99831017D01*
X98725336Y-99826800D01*
X100693064Y-99826800D01*
X100735876Y-99831017D01*
G37*
G36*
X105685876Y-99831017D02*
G01*
X105721046Y-99841685D01*
X105753463Y-99859013D01*
X105781872Y-99882328D01*
X105805187Y-99910737D01*
X105822515Y-99943154D01*
X105833183Y-99978324D01*
X105837400Y-100021136D01*
X105837400Y-100638864D01*
X105833183Y-100681676D01*
X105822515Y-100716846D01*
X105805187Y-100749263D01*
X105781872Y-100777672D01*
X105753463Y-100800987D01*
X105721046Y-100818315D01*
X105685876Y-100828983D01*
X105643064Y-100833200D01*
X103675336Y-100833200D01*
X103632524Y-100828983D01*
X103597354Y-100818315D01*
X103564937Y-100800987D01*
X103536528Y-100777672D01*
X103513213Y-100749263D01*
X103495885Y-100716846D01*
X103485217Y-100681676D01*
X103481000Y-100638864D01*
X103481000Y-100021136D01*
X103485217Y-99978324D01*
X103495885Y-99943154D01*
X103513213Y-99910737D01*
X103536528Y-99882328D01*
X103564937Y-99859013D01*
X103597354Y-99841685D01*
X103632524Y-99831017D01*
X103675336Y-99826800D01*
X105643064Y-99826800D01*
X105685876Y-99831017D01*
G37*
G36*
X105685876Y-98561017D02*
G01*
X105721046Y-98571685D01*
X105753463Y-98589013D01*
X105781872Y-98612328D01*
X105805187Y-98640737D01*
X105822515Y-98673154D01*
X105833183Y-98708324D01*
X105837400Y-98751136D01*
X105837400Y-99368864D01*
X105833183Y-99411676D01*
X105822515Y-99446846D01*
X105805187Y-99479263D01*
X105781872Y-99507672D01*
X105753463Y-99530987D01*
X105721046Y-99548315D01*
X105685876Y-99558983D01*
X105643064Y-99563200D01*
X103675336Y-99563200D01*
X103632524Y-99558983D01*
X103597354Y-99548315D01*
X103564937Y-99530987D01*
X103536528Y-99507672D01*
X103513213Y-99479263D01*
X103495885Y-99446846D01*
X103485217Y-99411676D01*
X103481000Y-99368864D01*
X103481000Y-98751136D01*
X103485217Y-98708324D01*
X103495885Y-98673154D01*
X103513213Y-98640737D01*
X103536528Y-98612328D01*
X103564937Y-98589013D01*
X103597354Y-98571685D01*
X103632524Y-98561017D01*
X103675336Y-98556800D01*
X105643064Y-98556800D01*
X105685876Y-98561017D01*
G37*
G36*
X100735876Y-98561017D02*
G01*
X100771046Y-98571685D01*
X100803463Y-98589013D01*
X100831872Y-98612328D01*
X100855187Y-98640737D01*
X100872515Y-98673154D01*
X100883183Y-98708324D01*
X100887400Y-98751136D01*
X100887400Y-99368864D01*
X100883183Y-99411676D01*
X100872515Y-99446846D01*
X100855187Y-99479263D01*
X100831872Y-99507672D01*
X100803463Y-99530987D01*
X100771046Y-99548315D01*
X100735876Y-99558983D01*
X100693064Y-99563200D01*
X98725336Y-99563200D01*
X98682524Y-99558983D01*
X98647354Y-99548315D01*
X98614937Y-99530987D01*
X98586528Y-99507672D01*
X98563213Y-99479263D01*
X98545885Y-99446846D01*
X98535217Y-99411676D01*
X98531000Y-99368864D01*
X98531000Y-98751136D01*
X98535217Y-98708324D01*
X98545885Y-98673154D01*
X98563213Y-98640737D01*
X98586528Y-98612328D01*
X98614937Y-98589013D01*
X98647354Y-98571685D01*
X98682524Y-98561017D01*
X98725336Y-98556800D01*
X100693064Y-98556800D01*
X100735876Y-98561017D01*
G37*
G36*
X140314939Y-93533818D02*
G01*
X140698607Y-93692738D01*
X141043899Y-93923455D01*
X141337546Y-94217102D01*
X141568263Y-94562394D01*
X141727183Y-94946062D01*
X141808200Y-95353361D01*
X141808200Y-95768641D01*
X141727183Y-96175940D01*
X141568263Y-96559608D01*
X141337546Y-96904900D01*
X141043899Y-97198547D01*
X140698607Y-97429264D01*
X140314939Y-97588184D01*
X139907640Y-97669201D01*
X139492360Y-97669201D01*
X139085061Y-97588184D01*
X138701393Y-97429264D01*
X138356101Y-97198547D01*
X138062454Y-96904900D01*
X137831737Y-96559608D01*
X137672817Y-96175940D01*
X137591800Y-95768641D01*
X137591800Y-95353361D01*
X137672817Y-94946062D01*
X137831737Y-94562394D01*
X138062454Y-94217102D01*
X138356101Y-93923455D01*
X138701393Y-93692738D01*
X139085061Y-93533818D01*
X139492360Y-93452801D01*
X139907640Y-93452801D01*
X140314939Y-93533818D01*
G37*
G36*
X135234939Y-93533818D02*
G01*
X135618607Y-93692738D01*
X135963899Y-93923455D01*
X136257546Y-94217102D01*
X136488263Y-94562394D01*
X136647183Y-94946062D01*
X136728200Y-95353361D01*
X136728200Y-95768641D01*
X136647183Y-96175940D01*
X136488263Y-96559608D01*
X136257546Y-96904900D01*
X135963899Y-97198547D01*
X135618607Y-97429264D01*
X135234939Y-97588184D01*
X134827640Y-97669201D01*
X134412360Y-97669201D01*
X134005061Y-97588184D01*
X133621393Y-97429264D01*
X133276101Y-97198547D01*
X132982454Y-96904900D01*
X132751737Y-96559608D01*
X132592817Y-96175940D01*
X132511800Y-95768641D01*
X132511800Y-95353361D01*
X132592817Y-94946062D01*
X132751737Y-94562394D01*
X132982454Y-94217102D01*
X133276101Y-93923455D01*
X133621393Y-93692738D01*
X134005061Y-93533818D01*
X134412360Y-93452801D01*
X134827640Y-93452801D01*
X135234939Y-93533818D01*
G37*
G36*
X130154939Y-93533818D02*
G01*
X130538607Y-93692738D01*
X130883899Y-93923455D01*
X131177546Y-94217102D01*
X131408263Y-94562394D01*
X131567183Y-94946062D01*
X131648200Y-95353361D01*
X131648200Y-95768641D01*
X131567183Y-96175940D01*
X131408263Y-96559608D01*
X131177546Y-96904900D01*
X130883899Y-97198547D01*
X130538607Y-97429264D01*
X130154939Y-97588184D01*
X129747640Y-97669201D01*
X129332360Y-97669201D01*
X128925061Y-97588184D01*
X128541393Y-97429264D01*
X128196101Y-97198547D01*
X127902454Y-96904900D01*
X127671737Y-96559608D01*
X127512817Y-96175940D01*
X127431800Y-95768641D01*
X127431800Y-95353361D01*
X127512817Y-94946062D01*
X127671737Y-94562394D01*
X127902454Y-94217102D01*
X128196101Y-93923455D01*
X128541393Y-93692738D01*
X128925061Y-93533818D01*
X129332360Y-93452801D01*
X129747640Y-93452801D01*
X130154939Y-93533818D01*
G37*
G36*
X125074939Y-93533818D02*
G01*
X125458607Y-93692738D01*
X125803899Y-93923455D01*
X126097546Y-94217102D01*
X126328263Y-94562394D01*
X126487183Y-94946062D01*
X126568200Y-95353361D01*
X126568200Y-95768641D01*
X126487183Y-96175940D01*
X126328263Y-96559608D01*
X126097546Y-96904900D01*
X125803899Y-97198547D01*
X125458607Y-97429264D01*
X125074939Y-97588184D01*
X124667640Y-97669201D01*
X124252360Y-97669201D01*
X123845061Y-97588184D01*
X123461393Y-97429264D01*
X123116101Y-97198547D01*
X122822454Y-96904900D01*
X122591737Y-96559608D01*
X122432817Y-96175940D01*
X122351800Y-95768641D01*
X122351800Y-95353361D01*
X122432817Y-94946062D01*
X122591737Y-94562394D01*
X122822454Y-94217102D01*
X123116101Y-93923455D01*
X123461393Y-93692738D01*
X123845061Y-93533818D01*
X124252360Y-93452801D01*
X124667640Y-93452801D01*
X125074939Y-93533818D01*
G37*
G36*
X145394939Y-93533818D02*
G01*
X145778607Y-93692738D01*
X146123899Y-93923455D01*
X146417546Y-94217102D01*
X146648263Y-94562394D01*
X146807183Y-94946062D01*
X146888200Y-95353361D01*
X146888200Y-95768641D01*
X146807183Y-96175940D01*
X146648263Y-96559608D01*
X146417546Y-96904900D01*
X146123899Y-97198547D01*
X145778607Y-97429264D01*
X145394939Y-97588184D01*
X144987640Y-97669201D01*
X144572360Y-97669201D01*
X144165061Y-97588184D01*
X143781393Y-97429264D01*
X143436101Y-97198547D01*
X143142454Y-96904900D01*
X142911737Y-96559608D01*
X142752817Y-96175940D01*
X142671800Y-95768641D01*
X142671800Y-95353361D01*
X142752817Y-94946062D01*
X142911737Y-94562394D01*
X143142454Y-94217102D01*
X143436101Y-93923455D01*
X143781393Y-93692738D01*
X144165061Y-93533818D01*
X144572360Y-93452801D01*
X144987640Y-93452801D01*
X145394939Y-93533818D01*
G37*
G36*
X112665161Y-94812304D02*
G01*
X112712901Y-94826785D01*
X112756893Y-94850299D01*
X112795454Y-94881946D01*
X112827101Y-94920507D01*
X112850615Y-94964499D01*
X112865096Y-95012239D01*
X112870600Y-95068116D01*
X112870600Y-96701884D01*
X112865096Y-96757761D01*
X112850615Y-96805501D01*
X112827101Y-96849493D01*
X112795454Y-96888054D01*
X112756893Y-96919701D01*
X112712901Y-96943215D01*
X112665161Y-96957696D01*
X112609284Y-96963200D01*
X111475516Y-96963200D01*
X111419639Y-96957696D01*
X111371899Y-96943215D01*
X111327907Y-96919701D01*
X111289346Y-96888054D01*
X111257699Y-96849493D01*
X111234185Y-96805501D01*
X111219704Y-96757761D01*
X111214200Y-96701884D01*
X111214200Y-95068116D01*
X111219704Y-95012239D01*
X111234185Y-94964499D01*
X111257699Y-94920507D01*
X111289346Y-94881946D01*
X111327907Y-94850299D01*
X111371899Y-94826785D01*
X111419639Y-94812304D01*
X111475516Y-94806800D01*
X112609284Y-94806800D01*
X112665161Y-94812304D01*
G37*
G36*
X109865161Y-94812304D02*
G01*
X109912901Y-94826785D01*
X109956893Y-94850299D01*
X109995454Y-94881946D01*
X110027101Y-94920507D01*
X110050615Y-94964499D01*
X110065096Y-95012239D01*
X110070600Y-95068116D01*
X110070600Y-96701884D01*
X110065096Y-96757761D01*
X110050615Y-96805501D01*
X110027101Y-96849493D01*
X109995454Y-96888054D01*
X109956893Y-96919701D01*
X109912901Y-96943215D01*
X109865161Y-96957696D01*
X109809284Y-96963200D01*
X108675516Y-96963200D01*
X108619639Y-96957696D01*
X108571899Y-96943215D01*
X108527907Y-96919701D01*
X108489346Y-96888054D01*
X108457699Y-96849493D01*
X108434185Y-96805501D01*
X108419704Y-96757761D01*
X108414200Y-96701884D01*
X108414200Y-95068116D01*
X108419704Y-95012239D01*
X108434185Y-94964499D01*
X108457699Y-94920507D01*
X108489346Y-94881946D01*
X108527907Y-94850299D01*
X108571899Y-94826785D01*
X108619639Y-94812304D01*
X108675516Y-94806800D01*
X109809284Y-94806800D01*
X109865161Y-94812304D01*
G37*
G36*
X91370912Y-94939086D02*
G01*
X91518437Y-94968430D01*
X91605174Y-95004358D01*
X91691909Y-95040285D01*
X91848030Y-95144601D01*
X91980799Y-95277370D01*
X92085115Y-95433491D01*
X92104731Y-95480848D01*
X92156970Y-95606963D01*
X92193600Y-95791119D01*
X92193600Y-95978881D01*
X92156970Y-96163037D01*
X92151625Y-96175940D01*
X92085115Y-96336509D01*
X91980799Y-96492630D01*
X91848030Y-96625399D01*
X91691909Y-96729715D01*
X91624200Y-96757761D01*
X91518437Y-96801570D01*
X91370912Y-96830914D01*
X91334282Y-96838200D01*
X91146518Y-96838200D01*
X91109888Y-96830914D01*
X90962363Y-96801570D01*
X90856600Y-96757761D01*
X90788891Y-96729715D01*
X90632770Y-96625399D01*
X90500001Y-96492630D01*
X90395685Y-96336509D01*
X90329175Y-96175940D01*
X90323830Y-96163037D01*
X90287200Y-95978881D01*
X90287200Y-95791119D01*
X90323830Y-95606963D01*
X90376069Y-95480848D01*
X90395685Y-95433491D01*
X90500001Y-95277370D01*
X90632770Y-95144601D01*
X90788891Y-95040285D01*
X90875626Y-95004358D01*
X90962363Y-94968430D01*
X91109888Y-94939086D01*
X91146518Y-94931800D01*
X91334282Y-94931800D01*
X91370912Y-94939086D01*
G37*
G36*
X94770912Y-94939086D02*
G01*
X94918437Y-94968430D01*
X95005174Y-95004358D01*
X95091909Y-95040285D01*
X95248030Y-95144601D01*
X95380799Y-95277370D01*
X95485115Y-95433491D01*
X95504731Y-95480848D01*
X95556970Y-95606963D01*
X95593600Y-95791119D01*
X95593600Y-95978881D01*
X95556970Y-96163037D01*
X95551625Y-96175940D01*
X95485115Y-96336509D01*
X95380799Y-96492630D01*
X95248030Y-96625399D01*
X95091909Y-96729715D01*
X95024200Y-96757761D01*
X94918437Y-96801570D01*
X94770912Y-96830914D01*
X94734282Y-96838200D01*
X94546518Y-96838200D01*
X94509888Y-96830914D01*
X94362363Y-96801570D01*
X94256600Y-96757761D01*
X94188891Y-96729715D01*
X94032770Y-96625399D01*
X93900001Y-96492630D01*
X93795685Y-96336509D01*
X93729175Y-96175940D01*
X93723830Y-96163037D01*
X93687200Y-95978881D01*
X93687200Y-95791119D01*
X93723830Y-95606963D01*
X93776069Y-95480848D01*
X93795685Y-95433491D01*
X93900001Y-95277370D01*
X94032770Y-95144601D01*
X94188891Y-95040285D01*
X94275626Y-95004358D01*
X94362363Y-94968430D01*
X94509888Y-94939086D01*
X94546518Y-94931800D01*
X94734282Y-94931800D01*
X94770912Y-94939086D01*
G37*
G36*
X103747886Y-93844511D02*
G01*
X103797648Y-93859605D01*
X103843503Y-93884115D01*
X103883698Y-93917102D01*
X103916685Y-93957297D01*
X103941195Y-94003152D01*
X103956289Y-94052914D01*
X103962000Y-94110893D01*
X103962000Y-95373107D01*
X103956289Y-95431086D01*
X103941195Y-95480848D01*
X103916685Y-95526703D01*
X103883698Y-95566898D01*
X103843503Y-95599885D01*
X103797648Y-95624395D01*
X103747886Y-95639489D01*
X103689907Y-95645200D01*
X102677693Y-95645200D01*
X102619714Y-95639489D01*
X102569952Y-95624395D01*
X102524097Y-95599885D01*
X102483902Y-95566898D01*
X102450915Y-95526703D01*
X102426405Y-95480848D01*
X102411311Y-95431086D01*
X102405600Y-95373107D01*
X102405600Y-94110893D01*
X102411311Y-94052914D01*
X102426405Y-94003152D01*
X102450915Y-93957297D01*
X102483902Y-93917102D01*
X102524097Y-93884115D01*
X102569952Y-93859605D01*
X102619714Y-93844511D01*
X102677693Y-93838800D01*
X103689907Y-93838800D01*
X103747886Y-93844511D01*
G37*
G36*
X101697886Y-93844511D02*
G01*
X101747648Y-93859605D01*
X101793503Y-93884115D01*
X101833698Y-93917102D01*
X101866685Y-93957297D01*
X101891195Y-94003152D01*
X101906289Y-94052914D01*
X101912000Y-94110893D01*
X101912000Y-95373107D01*
X101906289Y-95431086D01*
X101891195Y-95480848D01*
X101866685Y-95526703D01*
X101833698Y-95566898D01*
X101793503Y-95599885D01*
X101747648Y-95624395D01*
X101697886Y-95639489D01*
X101639907Y-95645200D01*
X100627693Y-95645200D01*
X100569714Y-95639489D01*
X100519952Y-95624395D01*
X100474097Y-95599885D01*
X100433902Y-95566898D01*
X100400915Y-95526703D01*
X100376405Y-95480848D01*
X100361311Y-95431086D01*
X100355600Y-95373107D01*
X100355600Y-94110893D01*
X100361311Y-94052914D01*
X100376405Y-94003152D01*
X100400915Y-93957297D01*
X100433902Y-93917102D01*
X100474097Y-93884115D01*
X100519952Y-93859605D01*
X100569714Y-93844511D01*
X100627693Y-93838800D01*
X101639907Y-93838800D01*
X101697886Y-93844511D01*
G37*
G36*
X84318494Y-91015011D02*
G01*
X84471037Y-91078197D01*
X84608322Y-91169927D01*
X84725073Y-91286678D01*
X84816803Y-91423963D01*
X84879989Y-91576506D01*
X84912200Y-91738444D01*
X84912200Y-91903556D01*
X84879989Y-92065494D01*
X84816803Y-92218037D01*
X84725073Y-92355322D01*
X84608322Y-92472073D01*
X84471037Y-92563803D01*
X84439238Y-92576975D01*
X84417287Y-92588709D01*
X84398042Y-92604503D01*
X84382248Y-92623748D01*
X84370512Y-92645704D01*
X84363285Y-92669528D01*
X84360845Y-92694305D01*
X84363285Y-92719081D01*
X84370512Y-92742905D01*
X84382249Y-92764861D01*
X84398043Y-92784106D01*
X84417288Y-92799900D01*
X84439244Y-92811636D01*
X84651508Y-92899559D01*
X84851195Y-93032986D01*
X85021014Y-93202805D01*
X85154441Y-93402492D01*
X85208838Y-93533818D01*
X85246348Y-93624374D01*
X85259946Y-93692738D01*
X85293138Y-93859605D01*
X85293200Y-93859920D01*
X85293200Y-94100080D01*
X85246348Y-94335626D01*
X85212397Y-94417589D01*
X85154441Y-94557508D01*
X85021014Y-94757195D01*
X84851195Y-94927014D01*
X84651508Y-95060441D01*
X84511589Y-95118397D01*
X84429626Y-95152348D01*
X84240933Y-95189881D01*
X84194081Y-95199200D01*
X83953919Y-95199200D01*
X83907067Y-95189881D01*
X83718374Y-95152348D01*
X83636411Y-95118397D01*
X83496492Y-95060441D01*
X83296805Y-94927014D01*
X83126986Y-94757195D01*
X82993559Y-94557508D01*
X82935603Y-94417589D01*
X82901652Y-94335626D01*
X82854800Y-94100080D01*
X82854800Y-93859920D01*
X82854863Y-93859605D01*
X82888054Y-93692738D01*
X82901652Y-93624374D01*
X82939162Y-93533818D01*
X82993559Y-93402492D01*
X83126986Y-93202805D01*
X83296805Y-93032986D01*
X83496492Y-92899559D01*
X83708756Y-92811636D01*
X83730713Y-92799900D01*
X83749958Y-92784106D01*
X83765752Y-92764861D01*
X83777488Y-92742904D01*
X83784715Y-92719080D01*
X83787155Y-92694304D01*
X83784715Y-92669527D01*
X83777488Y-92645703D01*
X83765752Y-92623747D01*
X83749958Y-92604502D01*
X83730713Y-92588708D01*
X83708762Y-92576975D01*
X83676963Y-92563803D01*
X83539678Y-92472073D01*
X83422927Y-92355322D01*
X83331197Y-92218037D01*
X83268011Y-92065494D01*
X83235800Y-91903556D01*
X83235800Y-91738444D01*
X83268011Y-91576506D01*
X83331197Y-91423963D01*
X83422927Y-91286678D01*
X83539678Y-91169927D01*
X83676963Y-91078197D01*
X83829506Y-91015011D01*
X83991444Y-90982800D01*
X84156556Y-90982800D01*
X84318494Y-91015011D01*
G37*
G36*
X125074939Y-88453818D02*
G01*
X125458607Y-88612738D01*
X125803899Y-88843455D01*
X126097546Y-89137102D01*
X126328263Y-89482394D01*
X126487183Y-89866062D01*
X126568200Y-90273361D01*
X126568200Y-90688641D01*
X126487183Y-91095940D01*
X126328263Y-91479608D01*
X126097546Y-91824900D01*
X125803899Y-92118547D01*
X125458607Y-92349264D01*
X125074939Y-92508184D01*
X124667640Y-92589201D01*
X124252360Y-92589201D01*
X123845061Y-92508184D01*
X123461393Y-92349264D01*
X123116101Y-92118547D01*
X122822454Y-91824900D01*
X122591737Y-91479608D01*
X122432817Y-91095940D01*
X122351800Y-90688641D01*
X122351800Y-90273361D01*
X122432817Y-89866062D01*
X122591737Y-89482394D01*
X122822454Y-89137102D01*
X123116101Y-88843455D01*
X123461393Y-88612738D01*
X123845061Y-88453818D01*
X124252360Y-88372801D01*
X124667640Y-88372801D01*
X125074939Y-88453818D01*
G37*
G36*
X145394939Y-88453818D02*
G01*
X145778607Y-88612738D01*
X146123899Y-88843455D01*
X146417546Y-89137102D01*
X146648263Y-89482394D01*
X146807183Y-89866062D01*
X146888200Y-90273361D01*
X146888200Y-90688641D01*
X146807183Y-91095940D01*
X146648263Y-91479608D01*
X146417546Y-91824900D01*
X146123899Y-92118547D01*
X145778607Y-92349264D01*
X145394939Y-92508184D01*
X144987640Y-92589201D01*
X144572360Y-92589201D01*
X144165061Y-92508184D01*
X143781393Y-92349264D01*
X143436101Y-92118547D01*
X143142454Y-91824900D01*
X142911737Y-91479608D01*
X142752817Y-91095940D01*
X142671800Y-90688641D01*
X142671800Y-90273361D01*
X142752817Y-89866062D01*
X142911737Y-89482394D01*
X143142454Y-89137102D01*
X143436101Y-88843455D01*
X143781393Y-88612738D01*
X144165061Y-88453818D01*
X144572360Y-88372801D01*
X144987640Y-88372801D01*
X145394939Y-88453818D01*
G37*
G36*
X140314939Y-88453818D02*
G01*
X140698607Y-88612738D01*
X141043899Y-88843455D01*
X141337546Y-89137102D01*
X141568263Y-89482394D01*
X141727183Y-89866062D01*
X141808200Y-90273361D01*
X141808200Y-90688641D01*
X141727183Y-91095940D01*
X141568263Y-91479608D01*
X141337546Y-91824900D01*
X141043899Y-92118547D01*
X140698607Y-92349264D01*
X140314939Y-92508184D01*
X139907640Y-92589201D01*
X139492360Y-92589201D01*
X139085061Y-92508184D01*
X138701393Y-92349264D01*
X138356101Y-92118547D01*
X138062454Y-91824900D01*
X137831737Y-91479608D01*
X137672817Y-91095940D01*
X137591800Y-90688641D01*
X137591800Y-90273361D01*
X137672817Y-89866062D01*
X137831737Y-89482394D01*
X138062454Y-89137102D01*
X138356101Y-88843455D01*
X138701393Y-88612738D01*
X139085061Y-88453818D01*
X139492360Y-88372801D01*
X139907640Y-88372801D01*
X140314939Y-88453818D01*
G37*
G36*
X130154939Y-88453818D02*
G01*
X130538607Y-88612738D01*
X130883899Y-88843455D01*
X131177546Y-89137102D01*
X131408263Y-89482394D01*
X131567183Y-89866062D01*
X131648200Y-90273361D01*
X131648200Y-90688641D01*
X131567183Y-91095940D01*
X131408263Y-91479608D01*
X131177546Y-91824900D01*
X130883899Y-92118547D01*
X130538607Y-92349264D01*
X130154939Y-92508184D01*
X129747640Y-92589201D01*
X129332360Y-92589201D01*
X128925061Y-92508184D01*
X128541393Y-92349264D01*
X128196101Y-92118547D01*
X127902454Y-91824900D01*
X127671737Y-91479608D01*
X127512817Y-91095940D01*
X127431800Y-90688641D01*
X127431800Y-90273361D01*
X127512817Y-89866062D01*
X127671737Y-89482394D01*
X127902454Y-89137102D01*
X128196101Y-88843455D01*
X128541393Y-88612738D01*
X128925061Y-88453818D01*
X129332360Y-88372801D01*
X129747640Y-88372801D01*
X130154939Y-88453818D01*
G37*
G36*
X135234939Y-88453818D02*
G01*
X135618607Y-88612738D01*
X135963899Y-88843455D01*
X136257546Y-89137102D01*
X136488263Y-89482394D01*
X136647183Y-89866062D01*
X136728200Y-90273361D01*
X136728200Y-90688641D01*
X136647183Y-91095940D01*
X136488263Y-91479608D01*
X136257546Y-91824900D01*
X135963899Y-92118547D01*
X135618607Y-92349264D01*
X135234939Y-92508184D01*
X134827640Y-92589201D01*
X134412360Y-92589201D01*
X134005061Y-92508184D01*
X133621393Y-92349264D01*
X133276101Y-92118547D01*
X132982454Y-91824900D01*
X132751737Y-91479608D01*
X132592817Y-91095940D01*
X132511800Y-90688641D01*
X132511800Y-90273361D01*
X132592817Y-89866062D01*
X132751737Y-89482394D01*
X132982454Y-89137102D01*
X133276101Y-88843455D01*
X133621393Y-88612738D01*
X134005061Y-88453818D01*
X134412360Y-88372801D01*
X134827640Y-88372801D01*
X135234939Y-88453818D01*
G37*
G36*
X84318494Y-88983011D02*
G01*
X84471037Y-89046197D01*
X84608322Y-89137927D01*
X84725073Y-89254678D01*
X84816803Y-89391963D01*
X84879989Y-89544506D01*
X84912200Y-89706444D01*
X84912200Y-89871556D01*
X84879989Y-90033494D01*
X84816803Y-90186037D01*
X84725073Y-90323322D01*
X84608322Y-90440073D01*
X84471037Y-90531803D01*
X84318494Y-90594989D01*
X84156556Y-90627200D01*
X83991444Y-90627200D01*
X83829506Y-90594989D01*
X83676963Y-90531803D01*
X83539678Y-90440073D01*
X83422927Y-90323322D01*
X83331197Y-90186037D01*
X83268011Y-90033494D01*
X83235800Y-89871556D01*
X83235800Y-89706444D01*
X83268011Y-89544506D01*
X83331197Y-89391963D01*
X83422927Y-89254678D01*
X83539678Y-89137927D01*
X83676963Y-89046197D01*
X83829506Y-88983011D01*
X83991444Y-88950800D01*
X84156556Y-88950800D01*
X84318494Y-88983011D01*
G37*
G36*
X101362000Y-90496800D02*
G01*
X98955600Y-90496800D01*
X98955600Y-88790400D01*
X101362000Y-88790400D01*
X101362000Y-90496800D01*
G37*
G36*
X105362000Y-89696800D02*
G01*
X102955600Y-89696800D01*
X102955600Y-87290400D01*
X105362000Y-87290400D01*
X105362000Y-89696800D01*
G37*
G36*
X84240933Y-84388119D02*
G01*
X84429626Y-84425652D01*
X84511589Y-84459603D01*
X84651508Y-84517559D01*
X84851195Y-84650986D01*
X85021014Y-84820805D01*
X85154441Y-85020492D01*
X85212397Y-85160411D01*
X85246348Y-85242374D01*
X85293200Y-85477920D01*
X85293200Y-85718080D01*
X85246348Y-85953626D01*
X85220536Y-86015940D01*
X85154441Y-86175508D01*
X85021014Y-86375195D01*
X84851195Y-86545014D01*
X84651508Y-86678441D01*
X84453581Y-86760425D01*
X84439243Y-86766364D01*
X84417287Y-86778100D01*
X84398042Y-86793894D01*
X84382248Y-86813139D01*
X84370512Y-86835096D01*
X84363285Y-86858920D01*
X84360845Y-86883696D01*
X84363285Y-86908473D01*
X84370512Y-86932297D01*
X84382248Y-86954253D01*
X84398042Y-86973498D01*
X84417287Y-86989292D01*
X84439238Y-87001025D01*
X84471037Y-87014197D01*
X84608322Y-87105927D01*
X84725073Y-87222678D01*
X84816803Y-87359963D01*
X84879989Y-87512506D01*
X84912200Y-87674444D01*
X84912200Y-87839556D01*
X84879989Y-88001494D01*
X84816803Y-88154037D01*
X84725073Y-88291322D01*
X84608322Y-88408073D01*
X84471037Y-88499803D01*
X84318494Y-88562989D01*
X84156556Y-88595200D01*
X83991444Y-88595200D01*
X83829506Y-88562989D01*
X83676963Y-88499803D01*
X83539678Y-88408073D01*
X83422927Y-88291322D01*
X83331197Y-88154037D01*
X83268011Y-88001494D01*
X83235800Y-87839556D01*
X83235800Y-87674444D01*
X83268011Y-87512506D01*
X83331197Y-87359963D01*
X83422927Y-87222678D01*
X83539678Y-87105927D01*
X83676963Y-87014197D01*
X83708762Y-87001025D01*
X83730713Y-86989291D01*
X83749958Y-86973497D01*
X83765752Y-86954252D01*
X83777488Y-86932296D01*
X83784715Y-86908472D01*
X83787155Y-86883695D01*
X83784715Y-86858919D01*
X83777488Y-86835095D01*
X83765751Y-86813139D01*
X83749957Y-86793894D01*
X83730712Y-86778100D01*
X83708757Y-86766364D01*
X83694419Y-86760425D01*
X83496492Y-86678441D01*
X83296805Y-86545014D01*
X83126986Y-86375195D01*
X82993559Y-86175508D01*
X82927464Y-86015940D01*
X82901652Y-85953626D01*
X82854800Y-85718080D01*
X82854800Y-85477920D01*
X82901652Y-85242374D01*
X82935603Y-85160411D01*
X82993559Y-85020492D01*
X83126986Y-84820805D01*
X83296805Y-84650986D01*
X83496492Y-84517559D01*
X83636411Y-84459603D01*
X83718374Y-84425652D01*
X83907067Y-84388119D01*
X83953919Y-84378800D01*
X84194081Y-84378800D01*
X84240933Y-84388119D01*
G37*
G36*
X101362000Y-88196800D02*
G01*
X98955600Y-88196800D01*
X98955600Y-86490400D01*
X101362000Y-86490400D01*
X101362000Y-88196800D01*
G37*
G36*
X137774939Y-83373818D02*
G01*
X138158607Y-83532738D01*
X138503899Y-83763455D01*
X138797546Y-84057102D01*
X139028263Y-84402394D01*
X139187183Y-84786062D01*
X139268200Y-85193361D01*
X139268200Y-85608641D01*
X139187183Y-86015940D01*
X139028263Y-86399608D01*
X138797546Y-86744900D01*
X138503899Y-87038547D01*
X138158607Y-87269264D01*
X137774939Y-87428184D01*
X137367640Y-87509201D01*
X136952360Y-87509201D01*
X136545061Y-87428184D01*
X136161393Y-87269264D01*
X135816101Y-87038547D01*
X135522454Y-86744900D01*
X135291737Y-86399608D01*
X135132817Y-86015940D01*
X135051800Y-85608641D01*
X135051800Y-85193361D01*
X135132817Y-84786062D01*
X135291737Y-84402394D01*
X135522454Y-84057102D01*
X135816101Y-83763455D01*
X136161393Y-83532738D01*
X136545061Y-83373818D01*
X136952360Y-83292801D01*
X137367640Y-83292801D01*
X137774939Y-83373818D01*
G37*
G36*
X132694939Y-83373818D02*
G01*
X133078607Y-83532738D01*
X133423899Y-83763455D01*
X133717546Y-84057102D01*
X133948263Y-84402394D01*
X134107183Y-84786062D01*
X134188200Y-85193361D01*
X134188200Y-85608641D01*
X134107183Y-86015940D01*
X133948263Y-86399608D01*
X133717546Y-86744900D01*
X133423899Y-87038547D01*
X133078607Y-87269264D01*
X132694939Y-87428184D01*
X132287640Y-87509201D01*
X131872360Y-87509201D01*
X131465061Y-87428184D01*
X131081393Y-87269264D01*
X130736101Y-87038547D01*
X130442454Y-86744900D01*
X130211737Y-86399608D01*
X130052817Y-86015940D01*
X129971800Y-85608641D01*
X129971800Y-85193361D01*
X130052817Y-84786062D01*
X130211737Y-84402394D01*
X130442454Y-84057102D01*
X130736101Y-83763455D01*
X131081393Y-83532738D01*
X131465061Y-83373818D01*
X131872360Y-83292801D01*
X132287640Y-83292801D01*
X132694939Y-83373818D01*
G37*
G36*
X142854939Y-83373818D02*
G01*
X143238607Y-83532738D01*
X143583899Y-83763455D01*
X143877546Y-84057102D01*
X144108263Y-84402394D01*
X144267183Y-84786062D01*
X144348200Y-85193361D01*
X144348200Y-85608641D01*
X144267183Y-86015940D01*
X144108263Y-86399608D01*
X143877546Y-86744900D01*
X143583899Y-87038547D01*
X143238607Y-87269264D01*
X142854939Y-87428184D01*
X142447640Y-87509201D01*
X142032360Y-87509201D01*
X141625061Y-87428184D01*
X141241393Y-87269264D01*
X140896101Y-87038547D01*
X140602454Y-86744900D01*
X140371737Y-86399608D01*
X140212817Y-86015940D01*
X140131800Y-85608641D01*
X140131800Y-85193361D01*
X140212817Y-84786062D01*
X140371737Y-84402394D01*
X140602454Y-84057102D01*
X140896101Y-83763455D01*
X141241393Y-83532738D01*
X141625061Y-83373818D01*
X142032360Y-83292801D01*
X142447640Y-83292801D01*
X142854939Y-83373818D01*
G37*
G36*
X127614939Y-83373818D02*
G01*
X127998607Y-83532738D01*
X128343899Y-83763455D01*
X128637546Y-84057102D01*
X128868263Y-84402394D01*
X129027183Y-84786062D01*
X129108200Y-85193361D01*
X129108200Y-85608641D01*
X129027183Y-86015940D01*
X128868263Y-86399608D01*
X128637546Y-86744900D01*
X128343899Y-87038547D01*
X127998607Y-87269264D01*
X127614939Y-87428184D01*
X127207640Y-87509201D01*
X126792360Y-87509201D01*
X126385061Y-87428184D01*
X126001393Y-87269264D01*
X125656101Y-87038547D01*
X125362454Y-86744900D01*
X125131737Y-86399608D01*
X124972817Y-86015940D01*
X124891800Y-85608641D01*
X124891800Y-85193361D01*
X124972817Y-84786062D01*
X125131737Y-84402394D01*
X125362454Y-84057102D01*
X125656101Y-83763455D01*
X126001393Y-83532738D01*
X126385061Y-83373818D01*
X126792360Y-83292801D01*
X127207640Y-83292801D01*
X127614939Y-83373818D01*
G37*
G36*
X96542000Y-86197200D02*
G01*
X94835600Y-86197200D01*
X94835600Y-84490800D01*
X96542000Y-84490800D01*
X96542000Y-86197200D01*
G37*
G36*
X94242000Y-86197200D02*
G01*
X92535600Y-86197200D01*
X92535600Y-84490800D01*
X94242000Y-84490800D01*
X94242000Y-86197200D01*
G37*
G36*
X109410043Y-82131698D02*
G01*
X109461634Y-82147347D01*
X109509173Y-82172757D01*
X109550844Y-82206956D01*
X109585043Y-82248627D01*
X109610453Y-82296166D01*
X109626102Y-82347757D01*
X109632000Y-82407634D01*
X109632000Y-83200366D01*
X109626102Y-83260243D01*
X109610453Y-83311834D01*
X109585043Y-83359373D01*
X109550844Y-83401044D01*
X109509173Y-83435243D01*
X109461634Y-83460653D01*
X109410043Y-83476302D01*
X109350166Y-83482200D01*
X108457434Y-83482200D01*
X108397557Y-83476302D01*
X108345966Y-83460653D01*
X108298427Y-83435243D01*
X108256756Y-83401044D01*
X108222557Y-83359373D01*
X108197147Y-83311834D01*
X108181498Y-83260243D01*
X108175600Y-83200366D01*
X108175600Y-82407634D01*
X108181498Y-82347757D01*
X108197147Y-82296166D01*
X108222557Y-82248627D01*
X108256756Y-82206956D01*
X108298427Y-82172757D01*
X108345966Y-82147347D01*
X108397557Y-82131698D01*
X108457434Y-82125800D01*
X109350166Y-82125800D01*
X109410043Y-82131698D01*
G37*
G36*
X111160043Y-82131698D02*
G01*
X111211634Y-82147347D01*
X111259173Y-82172757D01*
X111300844Y-82206956D01*
X111335043Y-82248627D01*
X111360453Y-82296166D01*
X111376102Y-82347757D01*
X111382000Y-82407634D01*
X111382000Y-83200366D01*
X111376102Y-83260243D01*
X111360453Y-83311834D01*
X111335043Y-83359373D01*
X111300844Y-83401044D01*
X111259173Y-83435243D01*
X111211634Y-83460653D01*
X111160043Y-83476302D01*
X111100166Y-83482200D01*
X110207434Y-83482200D01*
X110147557Y-83476302D01*
X110095966Y-83460653D01*
X110048427Y-83435243D01*
X110006756Y-83401044D01*
X109972557Y-83359373D01*
X109947147Y-83311834D01*
X109931498Y-83260243D01*
X109925600Y-83200366D01*
X109925600Y-82407634D01*
X109931498Y-82347757D01*
X109947147Y-82296166D01*
X109972557Y-82248627D01*
X110006756Y-82206956D01*
X110048427Y-82172757D01*
X110095966Y-82147347D01*
X110147557Y-82131698D01*
X110207434Y-82125800D01*
X111100166Y-82125800D01*
X111160043Y-82131698D01*
G37*
G36*
X105660476Y-81670017D02*
G01*
X105695646Y-81680685D01*
X105728063Y-81698013D01*
X105756472Y-81721328D01*
X105779787Y-81749737D01*
X105797115Y-81782154D01*
X105807783Y-81817324D01*
X105812000Y-81860136D01*
X105812000Y-82477864D01*
X105807783Y-82520676D01*
X105797115Y-82555846D01*
X105779787Y-82588263D01*
X105756472Y-82616672D01*
X105728063Y-82639987D01*
X105695646Y-82657315D01*
X105660476Y-82667983D01*
X105617664Y-82672200D01*
X103649936Y-82672200D01*
X103607124Y-82667983D01*
X103571954Y-82657315D01*
X103539537Y-82639987D01*
X103511128Y-82616672D01*
X103487813Y-82588263D01*
X103470485Y-82555846D01*
X103459817Y-82520676D01*
X103455600Y-82477864D01*
X103455600Y-81860136D01*
X103459817Y-81817324D01*
X103470485Y-81782154D01*
X103487813Y-81749737D01*
X103511128Y-81721328D01*
X103539537Y-81698013D01*
X103571954Y-81680685D01*
X103607124Y-81670017D01*
X103649936Y-81665800D01*
X105617664Y-81665800D01*
X105660476Y-81670017D01*
G37*
G36*
X100710476Y-81670017D02*
G01*
X100745646Y-81680685D01*
X100778063Y-81698013D01*
X100806472Y-81721328D01*
X100829787Y-81749737D01*
X100847115Y-81782154D01*
X100857783Y-81817324D01*
X100862000Y-81860136D01*
X100862000Y-82477864D01*
X100857783Y-82520676D01*
X100847115Y-82555846D01*
X100829787Y-82588263D01*
X100806472Y-82616672D01*
X100778063Y-82639987D01*
X100745646Y-82657315D01*
X100710476Y-82667983D01*
X100667664Y-82672200D01*
X98699936Y-82672200D01*
X98657124Y-82667983D01*
X98621954Y-82657315D01*
X98589537Y-82639987D01*
X98561128Y-82616672D01*
X98537813Y-82588263D01*
X98520485Y-82555846D01*
X98509817Y-82520676D01*
X98505600Y-82477864D01*
X98505600Y-81860136D01*
X98509817Y-81817324D01*
X98520485Y-81782154D01*
X98537813Y-81749737D01*
X98561128Y-81721328D01*
X98589537Y-81698013D01*
X98621954Y-81680685D01*
X98657124Y-81670017D01*
X98699936Y-81665800D01*
X100667664Y-81665800D01*
X100710476Y-81670017D01*
G37*
G36*
X100710476Y-80400017D02*
G01*
X100745646Y-80410685D01*
X100778063Y-80428013D01*
X100806472Y-80451328D01*
X100829787Y-80479737D01*
X100847115Y-80512154D01*
X100857783Y-80547324D01*
X100862000Y-80590136D01*
X100862000Y-81207864D01*
X100857783Y-81250676D01*
X100847115Y-81285846D01*
X100829787Y-81318263D01*
X100806472Y-81346672D01*
X100778063Y-81369987D01*
X100745646Y-81387315D01*
X100710476Y-81397983D01*
X100667664Y-81402200D01*
X98699936Y-81402200D01*
X98657124Y-81397983D01*
X98621954Y-81387315D01*
X98589537Y-81369987D01*
X98561128Y-81346672D01*
X98537813Y-81318263D01*
X98520485Y-81285846D01*
X98509817Y-81250676D01*
X98505600Y-81207864D01*
X98505600Y-80590136D01*
X98509817Y-80547324D01*
X98520485Y-80512154D01*
X98537813Y-80479737D01*
X98561128Y-80451328D01*
X98589537Y-80428013D01*
X98621954Y-80410685D01*
X98657124Y-80400017D01*
X98699936Y-80395800D01*
X100667664Y-80395800D01*
X100710476Y-80400017D01*
G37*
G36*
X105660476Y-80400017D02*
G01*
X105695646Y-80410685D01*
X105728063Y-80428013D01*
X105756472Y-80451328D01*
X105779787Y-80479737D01*
X105797115Y-80512154D01*
X105807783Y-80547324D01*
X105812000Y-80590136D01*
X105812000Y-81207864D01*
X105807783Y-81250676D01*
X105797115Y-81285846D01*
X105779787Y-81318263D01*
X105756472Y-81346672D01*
X105728063Y-81369987D01*
X105695646Y-81387315D01*
X105660476Y-81397983D01*
X105617664Y-81402200D01*
X103649936Y-81402200D01*
X103607124Y-81397983D01*
X103571954Y-81387315D01*
X103539537Y-81369987D01*
X103511128Y-81346672D01*
X103487813Y-81318263D01*
X103470485Y-81285846D01*
X103459817Y-81250676D01*
X103455600Y-81207864D01*
X103455600Y-80590136D01*
X103459817Y-80547324D01*
X103470485Y-80512154D01*
X103487813Y-80479737D01*
X103511128Y-80451328D01*
X103539537Y-80428013D01*
X103571954Y-80410685D01*
X103607124Y-80400017D01*
X103649936Y-80395800D01*
X105617664Y-80395800D01*
X105660476Y-80400017D01*
G37*
G36*
X93761561Y-79191304D02*
G01*
X93809301Y-79205785D01*
X93853293Y-79229299D01*
X93891854Y-79260946D01*
X93923501Y-79299507D01*
X93947015Y-79343499D01*
X93961496Y-79391239D01*
X93967000Y-79447116D01*
X93967000Y-81080884D01*
X93961496Y-81136761D01*
X93947015Y-81184501D01*
X93923501Y-81228493D01*
X93891854Y-81267054D01*
X93853293Y-81298701D01*
X93809301Y-81322215D01*
X93761561Y-81336696D01*
X93705684Y-81342200D01*
X92571916Y-81342200D01*
X92516039Y-81336696D01*
X92468299Y-81322215D01*
X92424307Y-81298701D01*
X92385746Y-81267054D01*
X92354099Y-81228493D01*
X92330585Y-81184501D01*
X92316104Y-81136761D01*
X92310600Y-81080884D01*
X92310600Y-79447116D01*
X92316104Y-79391239D01*
X92330585Y-79343499D01*
X92354099Y-79299507D01*
X92385746Y-79260946D01*
X92424307Y-79229299D01*
X92468299Y-79205785D01*
X92516039Y-79191304D01*
X92571916Y-79185800D01*
X93705684Y-79185800D01*
X93761561Y-79191304D01*
G37*
G36*
X96561561Y-79191304D02*
G01*
X96609301Y-79205785D01*
X96653293Y-79229299D01*
X96691854Y-79260946D01*
X96723501Y-79299507D01*
X96747015Y-79343499D01*
X96761496Y-79391239D01*
X96767000Y-79447116D01*
X96767000Y-81080884D01*
X96761496Y-81136761D01*
X96747015Y-81184501D01*
X96723501Y-81228493D01*
X96691854Y-81267054D01*
X96653293Y-81298701D01*
X96609301Y-81322215D01*
X96561561Y-81336696D01*
X96505684Y-81342200D01*
X95371916Y-81342200D01*
X95316039Y-81336696D01*
X95268299Y-81322215D01*
X95224307Y-81298701D01*
X95185746Y-81267054D01*
X95154099Y-81228493D01*
X95130585Y-81184501D01*
X95116104Y-81136761D01*
X95110600Y-81080884D01*
X95110600Y-79447116D01*
X95116104Y-79391239D01*
X95130585Y-79343499D01*
X95154099Y-79299507D01*
X95185746Y-79260946D01*
X95224307Y-79229299D01*
X95268299Y-79205785D01*
X95316039Y-79191304D01*
X95371916Y-79185800D01*
X96505684Y-79185800D01*
X96561561Y-79191304D01*
G37*
G36*
X100710476Y-79130017D02*
G01*
X100745646Y-79140685D01*
X100778063Y-79158013D01*
X100806472Y-79181328D01*
X100829787Y-79209737D01*
X100847115Y-79242154D01*
X100857783Y-79277324D01*
X100862000Y-79320136D01*
X100862000Y-79937864D01*
X100857783Y-79980676D01*
X100847115Y-80015846D01*
X100829787Y-80048263D01*
X100806472Y-80076672D01*
X100778063Y-80099987D01*
X100745646Y-80117315D01*
X100710476Y-80127983D01*
X100667664Y-80132200D01*
X98699936Y-80132200D01*
X98657124Y-80127983D01*
X98621954Y-80117315D01*
X98589537Y-80099987D01*
X98561128Y-80076672D01*
X98537813Y-80048263D01*
X98520485Y-80015846D01*
X98509817Y-79980676D01*
X98505600Y-79937864D01*
X98505600Y-79320136D01*
X98509817Y-79277324D01*
X98520485Y-79242154D01*
X98537813Y-79209737D01*
X98561128Y-79181328D01*
X98589537Y-79158013D01*
X98621954Y-79140685D01*
X98657124Y-79130017D01*
X98699936Y-79125800D01*
X100667664Y-79125800D01*
X100710476Y-79130017D01*
G37*
G36*
X105660476Y-79130017D02*
G01*
X105695646Y-79140685D01*
X105728063Y-79158013D01*
X105756472Y-79181328D01*
X105779787Y-79209737D01*
X105797115Y-79242154D01*
X105807783Y-79277324D01*
X105812000Y-79320136D01*
X105812000Y-79937864D01*
X105807783Y-79980676D01*
X105797115Y-80015846D01*
X105779787Y-80048263D01*
X105756472Y-80076672D01*
X105728063Y-80099987D01*
X105695646Y-80117315D01*
X105660476Y-80127983D01*
X105617664Y-80132200D01*
X103649936Y-80132200D01*
X103607124Y-80127983D01*
X103571954Y-80117315D01*
X103539537Y-80099987D01*
X103511128Y-80076672D01*
X103487813Y-80048263D01*
X103470485Y-80015846D01*
X103459817Y-79980676D01*
X103455600Y-79937864D01*
X103455600Y-79320136D01*
X103459817Y-79277324D01*
X103470485Y-79242154D01*
X103487813Y-79209737D01*
X103511128Y-79181328D01*
X103539537Y-79158013D01*
X103571954Y-79140685D01*
X103607124Y-79130017D01*
X103649936Y-79125800D01*
X105617664Y-79125800D01*
X105660476Y-79130017D01*
G37*
G36*
X152819073Y-73162696D02*
G01*
X153292772Y-73256920D01*
X153571279Y-73372282D01*
X153849785Y-73487643D01*
X153849786Y-73487644D01*
X154351083Y-73822599D01*
X154777401Y-74248917D01*
X154868314Y-74384979D01*
X155112357Y-74750215D01*
X155227718Y-75028721D01*
X155343080Y-75307228D01*
X155460700Y-75898548D01*
X155460700Y-76501452D01*
X155343080Y-77092772D01*
X155227718Y-77371279D01*
X155112357Y-77649785D01*
X155112356Y-77649786D01*
X154777401Y-78151083D01*
X154351083Y-78577401D01*
X154050471Y-78778263D01*
X153849785Y-78912357D01*
X153571279Y-79027718D01*
X153292772Y-79143080D01*
X152819073Y-79237304D01*
X152701453Y-79260700D01*
X152098547Y-79260700D01*
X151980927Y-79237304D01*
X151507228Y-79143080D01*
X151228721Y-79027718D01*
X150950215Y-78912357D01*
X150749529Y-78778263D01*
X150448917Y-78577401D01*
X150022599Y-78151083D01*
X149687644Y-77649786D01*
X149687643Y-77649785D01*
X149572282Y-77371279D01*
X149456920Y-77092772D01*
X149339300Y-76501452D01*
X149339300Y-75898548D01*
X149456920Y-75307228D01*
X149572282Y-75028721D01*
X149687643Y-74750215D01*
X149931686Y-74384979D01*
X150022599Y-74248917D01*
X150448917Y-73822599D01*
X150950214Y-73487644D01*
X150950215Y-73487643D01*
X151228721Y-73372282D01*
X151507228Y-73256920D01*
X151980927Y-73162696D01*
X152098547Y-73139300D01*
X152701453Y-73139300D01*
X152819073Y-73162696D01*
G37*
G36*
X86779073Y-73162696D02*
G01*
X87252772Y-73256920D01*
X87531279Y-73372282D01*
X87809785Y-73487643D01*
X87809786Y-73487644D01*
X88311083Y-73822599D01*
X88737401Y-74248917D01*
X88828314Y-74384979D01*
X89072357Y-74750215D01*
X89187718Y-75028721D01*
X89303080Y-75307228D01*
X89420700Y-75898548D01*
X89420700Y-76501452D01*
X89303080Y-77092772D01*
X89187718Y-77371279D01*
X89072357Y-77649785D01*
X89072356Y-77649786D01*
X88737401Y-78151083D01*
X88311083Y-78577401D01*
X88010471Y-78778263D01*
X87809785Y-78912357D01*
X87531279Y-79027718D01*
X87252772Y-79143080D01*
X86779073Y-79237304D01*
X86661453Y-79260700D01*
X86058547Y-79260700D01*
X85940927Y-79237304D01*
X85467228Y-79143080D01*
X85188721Y-79027718D01*
X84910215Y-78912357D01*
X84709529Y-78778263D01*
X84408917Y-78577401D01*
X83982599Y-78151083D01*
X83647644Y-77649786D01*
X83647643Y-77649785D01*
X83532282Y-77371279D01*
X83416920Y-77092772D01*
X83299300Y-76501452D01*
X83299300Y-75898548D01*
X83416920Y-75307228D01*
X83532282Y-75028721D01*
X83647643Y-74750215D01*
X83891686Y-74384979D01*
X83982599Y-74248917D01*
X84408917Y-73822599D01*
X84910214Y-73487644D01*
X84910215Y-73487643D01*
X85188721Y-73372282D01*
X85467228Y-73256920D01*
X85940927Y-73162696D01*
X86058547Y-73139300D01*
X86661453Y-73139300D01*
X86779073Y-73162696D01*
G37*
G36*
X100710476Y-77860017D02*
G01*
X100745646Y-77870685D01*
X100778063Y-77888013D01*
X100806472Y-77911328D01*
X100829787Y-77939737D01*
X100847115Y-77972154D01*
X100857783Y-78007324D01*
X100862000Y-78050136D01*
X100862000Y-78667864D01*
X100857783Y-78710676D01*
X100847115Y-78745846D01*
X100829787Y-78778263D01*
X100806472Y-78806672D01*
X100778063Y-78829987D01*
X100745646Y-78847315D01*
X100710476Y-78857983D01*
X100667664Y-78862200D01*
X98699936Y-78862200D01*
X98657124Y-78857983D01*
X98621954Y-78847315D01*
X98589537Y-78829987D01*
X98561128Y-78806672D01*
X98537813Y-78778263D01*
X98520485Y-78745846D01*
X98509817Y-78710676D01*
X98505600Y-78667864D01*
X98505600Y-78050136D01*
X98509817Y-78007324D01*
X98520485Y-77972154D01*
X98537813Y-77939737D01*
X98561128Y-77911328D01*
X98589537Y-77888013D01*
X98621954Y-77870685D01*
X98657124Y-77860017D01*
X98699936Y-77855800D01*
X100667664Y-77855800D01*
X100710476Y-77860017D01*
G37*
G36*
X105660476Y-77860017D02*
G01*
X105695646Y-77870685D01*
X105728063Y-77888013D01*
X105756472Y-77911328D01*
X105779787Y-77939737D01*
X105797115Y-77972154D01*
X105807783Y-78007324D01*
X105812000Y-78050136D01*
X105812000Y-78667864D01*
X105807783Y-78710676D01*
X105797115Y-78745846D01*
X105779787Y-78778263D01*
X105756472Y-78806672D01*
X105728063Y-78829987D01*
X105695646Y-78847315D01*
X105660476Y-78857983D01*
X105617664Y-78862200D01*
X103649936Y-78862200D01*
X103607124Y-78857983D01*
X103571954Y-78847315D01*
X103539537Y-78829987D01*
X103511128Y-78806672D01*
X103487813Y-78778263D01*
X103470485Y-78745846D01*
X103459817Y-78710676D01*
X103455600Y-78667864D01*
X103455600Y-78050136D01*
X103459817Y-78007324D01*
X103470485Y-77972154D01*
X103487813Y-77939737D01*
X103511128Y-77911328D01*
X103539537Y-77888013D01*
X103571954Y-77870685D01*
X103607124Y-77860017D01*
X103649936Y-77855800D01*
X105617664Y-77855800D01*
X105660476Y-77860017D01*
G37*
G36*
X111801561Y-76651304D02*
G01*
X111849301Y-76665785D01*
X111893293Y-76689299D01*
X111931854Y-76720946D01*
X111963501Y-76759507D01*
X111987015Y-76803499D01*
X112001496Y-76851239D01*
X112007000Y-76907116D01*
X112007000Y-78540884D01*
X112001496Y-78596761D01*
X111987015Y-78644501D01*
X111963501Y-78688493D01*
X111931854Y-78727054D01*
X111893293Y-78758701D01*
X111849301Y-78782215D01*
X111801561Y-78796696D01*
X111745684Y-78802200D01*
X110611916Y-78802200D01*
X110556039Y-78796696D01*
X110508299Y-78782215D01*
X110464307Y-78758701D01*
X110425746Y-78727054D01*
X110394099Y-78688493D01*
X110370585Y-78644501D01*
X110356104Y-78596761D01*
X110350600Y-78540884D01*
X110350600Y-76907116D01*
X110356104Y-76851239D01*
X110370585Y-76803499D01*
X110394099Y-76759507D01*
X110425746Y-76720946D01*
X110464307Y-76689299D01*
X110508299Y-76665785D01*
X110556039Y-76651304D01*
X110611916Y-76645800D01*
X111745684Y-76645800D01*
X111801561Y-76651304D01*
G37*
G36*
X109001561Y-76651304D02*
G01*
X109049301Y-76665785D01*
X109093293Y-76689299D01*
X109131854Y-76720946D01*
X109163501Y-76759507D01*
X109187015Y-76803499D01*
X109201496Y-76851239D01*
X109207000Y-76907116D01*
X109207000Y-78540884D01*
X109201496Y-78596761D01*
X109187015Y-78644501D01*
X109163501Y-78688493D01*
X109131854Y-78727054D01*
X109093293Y-78758701D01*
X109049301Y-78782215D01*
X109001561Y-78796696D01*
X108945684Y-78802200D01*
X107811916Y-78802200D01*
X107756039Y-78796696D01*
X107708299Y-78782215D01*
X107664307Y-78758701D01*
X107625746Y-78727054D01*
X107594099Y-78688493D01*
X107570585Y-78644501D01*
X107556104Y-78596761D01*
X107550600Y-78540884D01*
X107550600Y-76907116D01*
X107556104Y-76851239D01*
X107570585Y-76803499D01*
X107594099Y-76759507D01*
X107625746Y-76720946D01*
X107664307Y-76689299D01*
X107708299Y-76665785D01*
X107756039Y-76651304D01*
X107811916Y-76645800D01*
X108945684Y-76645800D01*
X109001561Y-76651304D01*
G37*
G36*
X93747179Y-74111646D02*
G01*
X93798274Y-74127146D01*
X93845353Y-74152310D01*
X93886622Y-74186178D01*
X93920490Y-74227447D01*
X93945654Y-74274526D01*
X93961154Y-74325621D01*
X93967000Y-74384979D01*
X93967000Y-75983021D01*
X93961154Y-76042379D01*
X93945654Y-76093474D01*
X93920490Y-76140553D01*
X93886622Y-76181822D01*
X93845353Y-76215690D01*
X93798274Y-76240854D01*
X93747179Y-76256354D01*
X93687821Y-76262200D01*
X92214779Y-76262200D01*
X92155421Y-76256354D01*
X92104326Y-76240854D01*
X92057247Y-76215690D01*
X92015978Y-76181822D01*
X91982110Y-76140553D01*
X91956946Y-76093474D01*
X91941446Y-76042379D01*
X91935600Y-75983021D01*
X91935600Y-74384979D01*
X91941446Y-74325621D01*
X91956946Y-74274526D01*
X91982110Y-74227447D01*
X92015978Y-74186178D01*
X92057247Y-74152310D01*
X92104326Y-74127146D01*
X92155421Y-74111646D01*
X92214779Y-74105800D01*
X93687821Y-74105800D01*
X93747179Y-74111646D01*
G37*
G36*
X96922179Y-74111646D02*
G01*
X96973274Y-74127146D01*
X97020353Y-74152310D01*
X97061622Y-74186178D01*
X97095490Y-74227447D01*
X97120654Y-74274526D01*
X97136154Y-74325621D01*
X97142000Y-74384979D01*
X97142000Y-75983021D01*
X97136154Y-76042379D01*
X97120654Y-76093474D01*
X97095490Y-76140553D01*
X97061622Y-76181822D01*
X97020353Y-76215690D01*
X96973274Y-76240854D01*
X96922179Y-76256354D01*
X96862821Y-76262200D01*
X95389779Y-76262200D01*
X95330421Y-76256354D01*
X95279326Y-76240854D01*
X95232247Y-76215690D01*
X95190978Y-76181822D01*
X95157110Y-76140553D01*
X95131946Y-76093474D01*
X95116446Y-76042379D01*
X95110600Y-75983021D01*
X95110600Y-74384979D01*
X95116446Y-74325621D01*
X95131946Y-74274526D01*
X95157110Y-74227447D01*
X95190978Y-74186178D01*
X95232247Y-74152310D01*
X95279326Y-74127146D01*
X95330421Y-74111646D01*
X95389779Y-74105800D01*
X96862821Y-74105800D01*
X96922179Y-74111646D01*
G37*
M02*
